<svg version="1.1" xmlns="http://www.w3.org/2000/svg" style="display: block;" viewBox="0 0 2048 2048" width="1024" height="1024" preserveAspectRatio="none" xmlns:c2pa="http://c2pa.org/manifest"><metadata><c2pa:manifest>AAAzs2p1bWIAAAAeanVtZGMycGEAEQAQgAAAqgA4m3EDYzJwYQAAADONanVtYgAAAEdqdW1kYzJtYQARABCAAACqADibcQN1cm46YzJwYTpiZjFhYzE5MS1iOWVmLTQ4ODQtYWYwNy00NTg1MGUwYjdjYjEAAAAB4mp1bWIAAAApanVtZGMyYXMAEQAQgAAAqgA4m3EDYzJwYS5hc3NlcnRpb25zAAAAAO1qdW1iAAAAQWp1bWRjYm9yABEAEIAAAKoAOJtxE2MycGEuYWN0aW9ucy52MgAAAAAYYzJzaJ88mZjhtwGtBd+Jq6F4F08AAACkY2JvcqFnYWN0aW9uc4GjZmFjdGlvbmxjMnBhLmNyZWF0ZWRxZGlnaXRhbFNvdXJjZVR5cGV4Rmh0dHA6Ly9jdi5pcHRjLm9yZy9uZXdzY29kZXMvZGlnaXRhbHNvdXJjZXR5cGUvdHJhaW5lZEFsZ29yaXRobWljTWVkaWFrZGVzY3JpcHRpb252Q3JlYXRlZCBieSBSZWNyYWZ0IEFJLgAAAMRqdW1iAAAAQGp1bWRjYm9yABEAEIAAAKoAOJtxE2MycGEuaGFzaC5kYXRhAAAAABhjMnNouXn2NpPbwd31iYIU7mIHTQAAAHxjYm9ypWpleGNsdXNpb25zgaJlc3RhcnQY22ZsZW5ndGgZRPBkbmFtZW5qdW1iZiBtYW5pZmVzdGNhbGdmc2hhMjU2ZGhhc2hYIFS6XwCL3F6trnIJ1uCxLZ6RWqMApay06tknbzSU8ZNJY3BhZEkAAAAAAAAAAAAAAAI0anVtYgAAACdqdW1kYzJjbAARABCAAACqADibcQNjMnBhLmNsYWltLnYyAAAAAgVjYm9ypmppbnN0YW5jZUlEeCx4bXA6aWlkOjE2ZDE2MDRlLWExYzgtNDNkYS04MTliLTllZTc4YjA0MjI4ZnRjbGFpbV9nZW5lcmF0b3JfaW5mb6NkbmFtZWpyZWNyYWZ0LmFpZ3ZlcnNpb254KDgxY2U4MmUyYzVjM2NiZmJlOGM2ZmJlMTc5ZDVmOGQ5MWM0MDljZTF3b3JnLmNvbnRlbnRhdXRoLmMycGFfcnNmMC45MC43aXNpZ25hdHVyZXhNc2VsZiNqdW1iZj0vYzJwYS91cm46YzJwYTpiZjFhYzE5MS1iOWVmLTQ4ODQtYWYwNy00NTg1MGUwYjdjYjEvYzJwYS5zaWduYXR1cmVyY3JlYXRlZF9hc3NlcnRpb25zgqJjdXJseCpzZWxmI2p1bWJmPWMycGEuYXNzZXJ0aW9ucy9jMnBhLmFjdGlvbnMudjJkaGFzaFggnISiwmng3zlxYzBbYh740KzgQ9Ywm/wW2KPIcel8QZGiY3VybHgpc2VsZiNqdW1iZj1jMnBhLmFzc2VydGlvbnMvYzJwYS5oYXNoLmRhdGFkaGFzaFgg/6my80wnThedSXdP/WvH64Xlq2oxh1OSOSLHfAaPI7loZGM6dGl0bGV4GlJlY3JhZnQgQUkgR2VuZXJhdGVkIEltYWdlY2FsZ2ZzaGEyNTYAAC8oanVtYgAAAChqdW1kYzJjcwARABCAAACqADibcQNjMnBhLnNpZ25hdHVyZQAAAC74Y2JvctKEWQPsogEmGCGCWQH0MIIB8DCCAZWgAwIBAgIUJcFH1Va4pZJDhzepwEtzPPNj2YMwCgYIKoZIzj0EAwIwQTELMAkGA1UEBhMCVVMxEzARBgNVBAoMClJlY3JhZnQgQUkxHTAbBgNVBAMMFFJlY3JhZnQgQzJQQSBSb290IENBMB4XDTI2MDkxMDE2NTIzNFoXDTI3MDkxMDE2NTIzNFowNzELMAkGA1UEBhMCVVMxEzARBgNVBAoMClJlY3JhZnQgQUkxEzARBgNVBAMMCnJlY3JhZnQuYWkwWTATBgcqhkjOPQIBBggqhkjOPQMBBwNCAASoOPdqG3YmNRdGd+dltfh1ikcE/nkLm8YK10H29taFa8iegusHYB1678yl5Bs18hLaV/Fhd+Ni32xAlnHdbimFo3UwczAMBgNVHRMBAf8EAjAAMA4GA1UdDwEB/wQEAwIGwDATBgNVHSUEDDAKBggrBgEFBQcDBDAdBgNVHQ4EFgQUgVwhvbEXPSSgCubOfUHxCtuoVAQwHwYDVR0jBBgwFoAUc9yF+sfWlRHeWv2Iucaec5jwdAgwCgYIKoZIzj0EAwIDSQAwRgIhAJltDpQN+vbXITLxb+8BNwSL6/5WktO4Sevkb0VXjtfWAiEAqhoz7z/sN32NxdnnZsQVTeu3P7CgGtJdXFx283fp08RZAewwggHoMIIBjaADAgECAhQAydo/NKOQWWu/4V5FktVQHX7jTDAKBggqhkjOPQQDAjBBMQswCQYDVQQGEwJVUzETMBEGA1UECgwKUmVjcmFmdCBBSTEdMBsGA1UEAwwUUmVjcmFmdCBDMlBBIFJvb3QgQ0EwHhcNMjYwOTEwMTY1MjM0WhcNMzYwOTA3MTY1MjM0WjBBMQswCQYDVQQGEwJVUzETMBEGA1UECgwKUmVjcmFmdCBBSTEdMBsGA1UEAwwUUmVjcmFmdCBDMlBBIFJvb3QgQ0EwWTATBgcqhkjOPQIBBggqhkjOPQMBBwNCAAQbQ+eF6fkpnHhTwrMxSBLh/JhROWkzsC8L8jN1r1Rlf8oECvzEFk3WujloPtNs3PLADriqR5rGtd+8giFuiTLno2MwYTAfBgNVHSMEGDAWgBRz3IX6x9aVEd5a/Yi5xp5zmPB0CDAPBgNVHRMBAf8EBTADAQH/MA4GA1UdDwEB/wQEAwIBhjAdBgNVHQ4EFgQUc9yF+sfWlRHeWv2Iucaec5jwdAgwCgYIKoZIzj0EAwIDSQAwRgIhAND2Z+xryBRnMbxk8eAzMcAq8bzl0rfA9Y2z7q5QoEUeAiEA6ZbI3e47h5clRZaARSOOotKXsK/YQMWC3vj91d3bmlOhY3BhZFkqtAAAAAAAAAAAAAAAAAAAAAAAAAAAAAAAAAAAAAAAAAAAAAAAAAAAAAAAAAAAAAAAAAAAAAAAAAAAAAAAAAAAAAAAAAAAAAAAAAAAAAAAAAAAAAAAAAAAAAAAAAAAAAAAAAAAAAAAAAAAAAAAAAAAAAAAAAAAAAAAAAAAAAAAAAAAAAAAAAAAAAAAAAAAAAAAAAAAAAAAAAAAAAAAAAAAAAAAAAAAAAAAAAAAAAAAAAAAAAAAAAAAAAAAAAAAAAAAAAAAAAAAAAAAAAAAAAAAAAAAAAAAAAAAAAAAAAAAAAAAAAAAAAAAAAAAAAAAAAAAAAAAAAAAAAAAAAAAAAAAAAAAAAAAAAAAAAAAAAAAAAAAAAAAAAAAAAAAAAAAAAAAAAAAAAAAAAAAAAAAAAAAAAAAAAAAAAAAAAAAAAAAAAAAAAAAAAAAAAAAAAAAAAAAAAAAAAAAAAAAAAAAAAAAAAAAAAAAAAAAAAAAAAAAAAAAAAAAAAAAAAAAAAAAAAAAAAAAAAAAAAAAAAAAAAAAAAAAAAAAAAAAAAAAAAAAAAAAAAAAAAAAAAAAAAAAAAAAAAAAAAAAAAAAAAAAAAAAAAAAAAAAAAAAAAAAAAAAAAAAAAAAAAAAAAAAAAAAAAAAAAAAAAAAAAAAAAAAAAAAAAAAAAAAAAAAAAAAAAAAAAAAAAAAAAAAAAAAAAAAAAAAAAAAAAAAAAAAAAAAAAAAAAAAAAAAAAAAAAAAAAAAAAAAAAAAAAAAAAAAAAAAAAAAAAAAAAAAAAAAAAAAAAAAAAAAAAAAAAAAAAAAAAAAAAAAAAAAAAAAAAAAAAAAAAAAAAAAAAAAAAAAAAAAAAAAAAAAAAAAAAAAAAAAAAAAAAAAAAAAAAAAAAAAAAAAAAAAAAAAAAAAAAAAAAAAAAAAAAAAAAAAAAAAAAAAAAAAAAAAAAAAAAAAAAAAAAAAAAAAAAAAAAAAAAAAAAAAAAAAAAAAAAAAAAAAAAAAAAAAAAAAAAAAAAAAAAAAAAAAAAAAAAAAAAAAAAAAAAAAAAAAAAAAAAAAAAAAAAAAAAAAAAAAAAAAAAAAAAAAAAAAAAAAAAAAAAAAAAAAAAAAAAAAAAAAAAAAAAAAAAAAAAAAAAAAAAAAAAAAAAAAAAAAAAAAAAAAAAAAAAAAAAAAAAAAAAAAAAAAAAAAAAAAAAAAAAAAAAAAAAAAAAAAAAAAAAAAAAAAAAAAAAAAAAAAAAAAAAAAAAAAAAAAAAAAAAAAAAAAAAAAAAAAAAAAAAAAAAAAAAAAAAAAAAAAAAAAAAAAAAAAAAAAAAAAAAAAAAAAAAAAAAAAAAAAAAAAAAAAAAAAAAAAAAAAAAAAAAAAAAAAAAAAAAAAAAAAAAAAAAAAAAAAAAAAAAAAAAAAAAAAAAAAAAAAAAAAAAAAAAAAAAAAAAAAAAAAAAAAAAAAAAAAAAAAAAAAAAAAAAAAAAAAAAAAAAAAAAAAAAAAAAAAAAAAAAAAAAAAAAAAAAAAAAAAAAAAAAAAAAAAAAAAAAAAAAAAAAAAAAAAAAAAAAAAAAAAAAAAAAAAAAAAAAAAAAAAAAAAAAAAAAAAAAAAAAAAAAAAAAAAAAAAAAAAAAAAAAAAAAAAAAAAAAAAAAAAAAAAAAAAAAAAAAAAAAAAAAAAAAAAAAAAAAAAAAAAAAAAAAAAAAAAAAAAAAAAAAAAAAAAAAAAAAAAAAAAAAAAAAAAAAAAAAAAAAAAAAAAAAAAAAAAAAAAAAAAAAAAAAAAAAAAAAAAAAAAAAAAAAAAAAAAAAAAAAAAAAAAAAAAAAAAAAAAAAAAAAAAAAAAAAAAAAAAAAAAAAAAAAAAAAAAAAAAAAAAAAAAAAAAAAAAAAAAAAAAAAAAAAAAAAAAAAAAAAAAAAAAAAAAAAAAAAAAAAAAAAAAAAAAAAAAAAAAAAAAAAAAAAAAAAAAAAAAAAAAAAAAAAAAAAAAAAAAAAAAAAAAAAAAAAAAAAAAAAAAAAAAAAAAAAAAAAAAAAAAAAAAAAAAAAAAAAAAAAAAAAAAAAAAAAAAAAAAAAAAAAAAAAAAAAAAAAAAAAAAAAAAAAAAAAAAAAAAAAAAAAAAAAAAAAAAAAAAAAAAAAAAAAAAAAAAAAAAAAAAAAAAAAAAAAAAAAAAAAAAAAAAAAAAAAAAAAAAAAAAAAAAAAAAAAAAAAAAAAAAAAAAAAAAAAAAAAAAAAAAAAAAAAAAAAAAAAAAAAAAAAAAAAAAAAAAAAAAAAAAAAAAAAAAAAAAAAAAAAAAAAAAAAAAAAAAAAAAAAAAAAAAAAAAAAAAAAAAAAAAAAAAAAAAAAAAAAAAAAAAAAAAAAAAAAAAAAAAAAAAAAAAAAAAAAAAAAAAAAAAAAAAAAAAAAAAAAAAAAAAAAAAAAAAAAAAAAAAAAAAAAAAAAAAAAAAAAAAAAAAAAAAAAAAAAAAAAAAAAAAAAAAAAAAAAAAAAAAAAAAAAAAAAAAAAAAAAAAAAAAAAAAAAAAAAAAAAAAAAAAAAAAAAAAAAAAAAAAAAAAAAAAAAAAAAAAAAAAAAAAAAAAAAAAAAAAAAAAAAAAAAAAAAAAAAAAAAAAAAAAAAAAAAAAAAAAAAAAAAAAAAAAAAAAAAAAAAAAAAAAAAAAAAAAAAAAAAAAAAAAAAAAAAAAAAAAAAAAAAAAAAAAAAAAAAAAAAAAAAAAAAAAAAAAAAAAAAAAAAAAAAAAAAAAAAAAAAAAAAAAAAAAAAAAAAAAAAAAAAAAAAAAAAAAAAAAAAAAAAAAAAAAAAAAAAAAAAAAAAAAAAAAAAAAAAAAAAAAAAAAAAAAAAAAAAAAAAAAAAAAAAAAAAAAAAAAAAAAAAAAAAAAAAAAAAAAAAAAAAAAAAAAAAAAAAAAAAAAAAAAAAAAAAAAAAAAAAAAAAAAAAAAAAAAAAAAAAAAAAAAAAAAAAAAAAAAAAAAAAAAAAAAAAAAAAAAAAAAAAAAAAAAAAAAAAAAAAAAAAAAAAAAAAAAAAAAAAAAAAAAAAAAAAAAAAAAAAAAAAAAAAAAAAAAAAAAAAAAAAAAAAAAAAAAAAAAAAAAAAAAAAAAAAAAAAAAAAAAAAAAAAAAAAAAAAAAAAAAAAAAAAAAAAAAAAAAAAAAAAAAAAAAAAAAAAAAAAAAAAAAAAAAAAAAAAAAAAAAAAAAAAAAAAAAAAAAAAAAAAAAAAAAAAAAAAAAAAAAAAAAAAAAAAAAAAAAAAAAAAAAAAAAAAAAAAAAAAAAAAAAAAAAAAAAAAAAAAAAAAAAAAAAAAAAAAAAAAAAAAAAAAAAAAAAAAAAAAAAAAAAAAAAAAAAAAAAAAAAAAAAAAAAAAAAAAAAAAAAAAAAAAAAAAAAAAAAAAAAAAAAAAAAAAAAAAAAAAAAAAAAAAAAAAAAAAAAAAAAAAAAAAAAAAAAAAAAAAAAAAAAAAAAAAAAAAAAAAAAAAAAAAAAAAAAAAAAAAAAAAAAAAAAAAAAAAAAAAAAAAAAAAAAAAAAAAAAAAAAAAAAAAAAAAAAAAAAAAAAAAAAAAAAAAAAAAAAAAAAAAAAAAAAAAAAAAAAAAAAAAAAAAAAAAAAAAAAAAAAAAAAAAAAAAAAAAAAAAAAAAAAAAAAAAAAAAAAAAAAAAAAAAAAAAAAAAAAAAAAAAAAAAAAAAAAAAAAAAAAAAAAAAAAAAAAAAAAAAAAAAAAAAAAAAAAAAAAAAAAAAAAAAAAAAAAAAAAAAAAAAAAAAAAAAAAAAAAAAAAAAAAAAAAAAAAAAAAAAAAAAAAAAAAAAAAAAAAAAAAAAAAAAAAAAAAAAAAAAAAAAAAAAAAAAAAAAAAAAAAAAAAAAAAAAAAAAAAAAAAAAAAAAAAAAAAAAAAAAAAAAAAAAAAAAAAAAAAAAAAAAAAAAAAAAAAAAAAAAAAAAAAAAAAAAAAAAAAAAAAAAAAAAAAAAAAAAAAAAAAAAAAAAAAAAAAAAAAAAAAAAAAAAAAAAAAAAAAAAAAAAAAAAAAAAAAAAAAAAAAAAAAAAAAAAAAAAAAAAAAAAAAAAAAAAAAAAAAAAAAAAAAAAAAAAAAAAAAAAAAAAAAAAAAAAAAAAAAAAAAAAAAAAAAAAAAAAAAAAAAAAAAAAAAAAAAAAAAAAAAAAAAAAAAAAAAAAAAAAAAAAAAAAAAAAAAAAAAAAAAAAAAAAAAAAAAAAAAAAAAAAAAAAAAAAAAAAAAAAAAAAAAAAAAAAAAAAAAAAAAAAAAAAAAAAAAAAAAAAAAAAAAAAAAAAAAAAAAAAAAAAAAAAAAAAAAAAAAAAAAAAAAAAAAAAAAAAAAAAAAAAAAAAAAAAAAAAAAAAAAAAAAAAAAAAAAAAAAAAAAAAAAAAAAAAAAAAAAAAAAAAAAAAAAAAAAAAAAAAAAAAAAAAAAAAAAAAAAAAAAAAAAAAAAAAAAAAAAAAAAAAAAAAAAAAAAAAAAAAAAAAAAAAAAAAAAAAAAAAAAAAAAAAAAAAAAAAAAAAAAAAAAAAAAAAAAAAAAAAAAAAAAAAAAAAAAAAAAAAAAAAAAAAAAAAAAAAAAAAAAAAAAAAAAAAAAAAAAAAAAAAAAAAAAAAAAAAAAAAAAAAAAAAAAAAAAAAAAAAAAAAAAAAAAAAAAAAAAAAAAAAAAAAAAAAAAAAAAAAAAAAAAAAAAAAAAAAAAAAAAAAAAAAAAAAAAAAAAAAAAAAAAAAAAAAAAAAAAAAAAAAAAAAAAAAAAAAAAAAAAAAAAAAAAAAAAAAAAAAAAAAAAAAAAAAAAAAAAAAAAAAAAAAAAAAAAAAAAAAAAAAAAAAAAAAAAAAAAAAAAAAAAAAAAAAAAAAAAAAAAAAAAAAAAAAAAAAAAAAAAAAAAAAAAAAAAAAAAAAAAAAAAAAAAAAAAAAAAAAAAAAAAAAAAAAAAAAAAAAAAAAAAAAAAAAAAAAAAAAAAAAAAAAAAAAAAAAAAAAAAAAAAAAAAAAAAAAAAAAAAAAAAAAAAAAAAAAAAAAAAAAAAAAAAAAAAAAAAAAAAAAAAAAAAAAAAAAAAAAAAAAAAAAAAAAAAAAAAAAAAAAAAAAAAAAAAAAAAAAAAAAAAAAAAAAAAAAAAAAAAAAAAAAAAAAAAAAAAAAAAAAAAAAAAAAAAAAAAAAAAAAAAAAAAAAAAAAAAAAAAAAAAAAAAAAAAAAAAAAAAAAAAAAAAAAAAAAAAAAAAAAAAAAAAAAAAAAAAAAAAAAAAAAAAAAAAAAAAAAAAAAAAAAAAAAAAAAAAAAAAAAAAAAAAAAAAAAAAAAAAAAAAAAAAAAAAAAAAAAAAAAAAAAAAAAAAAAAAAAAAAAAAAAAAAAAAAAAAAAAAAAAAAAAAAAAAAAAAAAAAAAAAAAAAAAAAAAAAAAAAAAAAAAAAAAAAAAAAAAAAAAAAAAAAAAAAAAAAAAAAAAAAAAAAAAAAAAAAAAAAAAAAAAAAAAAAAAAAAAAAAAAAAAAAAAAAAAAAAAAAAAAAAAAAAAAAAAAAAAAAAAAAAAAAAAAAAAAAAAAAAAAAAAAAAAAAAAAAAAAAAAAAAAAAAAAAAAAAAAAAAAAAAAAAAAAAAAAAAAAAAAAAAAAAAAAAAAAAAAAAAAAAAAAAAAAAAAAAAAAAAAAAAAAAAAAAAAAAAAAAAAAAAAAAAAAAAAAAAAAAAAAAAAAAAAAAAAAAAAAAAAAAAAAAAAAAAAAAAAAAAAAAAAAAAAAAAAAAAAAAAAAAAAAAAAAAAAAAAAAAAAAAAAAAAAAAAAAAAAAAAAAAAAAAAAAAAAAAAAAAAAAAAAAAAAAAAAAAAAAAAAAAAAAAAAAAAAAAAAAAAAAAAAAAAAAAAAAAAAAAAAAAAAAAAAAAAAAAAAAAAAAAAAAAAAAAAAAAAAAAAAAAAAAAAAAAAAAAAAAAAAAAAAAAAAAAAAAAAAAAAAAAAAAAAAAAAAAAAAAAAAAAAAAAAAAAAAAAAAAAAAAAAAAAAAAAAAAAAAAAAAAAAAAAAAAAAAAAAAAAAAAAAAAAAAAAAAAAAAAAAAAAAAAAAAAAAAAAAAAAAAAAAAAAAAAAAAAAAAAAAAAAAAAAAAAAAAAAAAAAAAAAAAAAAAAAAAAAAAAAAAAAAAAAAAAAAAAAAAAAAAAAAAAAAAAAAAAAAAAAAAAAAAAAAAAAAAAAAAAAAAAAAAAAAAAAAAAAAAAAAAAAAAAAAAAAAAAAAAAAAAAAAAAAAAAAAAAAAAAAAAAAAAAAAAAAAAAAAAAAAAAAAAAAAAAAAAAAAAAAAAAAAAAAAAAAAAAAAAAAAAAAAAAAAAAAAAAAAAAAAAAAAAAAAAAAAAAAAAAAAAAAAAAAAAAAAAAAAAAAAAAAAAAAAAAAAAAAAAAAAAAAAAAAAAAAAAAAAAAAAAAAAAAAAAAAAAAAAAAAAAAAAAAAAAAAAAAAAAAAAAAAAAAAAAAAAAAAAAAAAAAAAAAAAAAAAAAAAAAAAAAAAAAAAAAAAAAAAAAAAAAAAAAAAAAAAAAAAAAAAAAAAAAAAAAAAAAAAAAAAAAAAAAAAAAAAAAAAAAAAAAAAAAAAAAAAAAAAAAAAAAAAAAAAAAAAAAAAAAAAAAAAAAAAAAAAAAAAAAAAAAAAAAAAAAAAAAAAAAAAAAAAAAAAAAAAAAAAAAAAAAAAAAAAAAAAAAAAAAAAAAAAAAAAAAAAAAAAAAAAAAAAAAAAAAAAAAAAAAAAAAAAAAAAAAAAAAAAAAAAAAAAAAAAAAAAAAAAAAAAAAAAAAAAAAAAAAAAAAAAAAAAAAAAAAAAAAAAAAAAAAAAAAAAAAAAAAAAAAAAAAAAAAAAAAAAAAAAAAAAAAAAAAAAAAAAAAAAAAAAAAAAAAAAAAAAAAAAAAAAAAAAAAAAAAAAAAAAAAAAAAAAAAAAAAAAAAAAAAAAAAAAAAAAAAAAAAAAAAAAAAAAAAAAAAAAAAAAAAAAAAAAAAAAAAAAAAAAAAAAAAAAAAAAAAAAAAAAAAAAAAAAAAAAAAAAAAAAAAAAAAAAAAAAAAAAAAAAAAAAAAAAAAAAAAAAAAAAAAAAAAAAAAAAAAAAAAAAAAAAAAAAAAAAAAAAAAAAAAAAAAAAAAAAAAAAAAAAAAAAAAAAAAAAAAAAAAAAAAAAAAAAAAAAAAAAAAAAAAAAAAAAAAAAAAAAAAAAAAAAAAAAAAAAAAAAAAAAAAAAAAAAAAAAAAAAAAAAAAAAAAAAAAAAAAAAAAAAAAAAAAAAAAAAAAAAAAAAAAAAAAAAAAAAAAAAAAAAAAAAAAAAAAAAAAAAAAAAAAAAAAAAAAAAAAAAAAAAAAAAAAAAAAAAAAAAAAAAAAAAAAAAAAAAAAAAAAAAAAAAAAAAAAAAAAAAAAAAAAAAAAAAAAAAAAAAAAAAAAAAAAAAAAAAAAAAAAAAAAAAAAAAAAAAAAAAAAAAAAAAAAAAAAAAAAAAAAAAAAAAAAAAAAAAAAAAAAAAAAAAAAAAAAAAAAAAAAAAAAAAAAAAAAAAAAAAAAAAAAAAAAAAAAAAAAAAAAAAAAAAAAAAAAAAAAAAAAAAAAAAAAAAAAAAAAAAAAAAAAAAAAAAAAAAAAAAAAAAAAAAAAAAAAAAAAAAAAAAAAAAAAAAAAAAAAAAAAAAAAAAAAAAAAAAAAAAAAAAAAAAAAAAAAAAAAAAAAAAAAAAAAAAAAAAAAAAAAAAAAAAAAAAAAAAAAAAAAAAAAAAAAAAAAAAAAAAAAAAAAAAAAAAAAAAAAAAAAAAAAAAAAAAAAAAAAAAAAAAAAAAAAAAAAAAAAAAAAAAAAAAAAAAAAAAAAAAAAAAAAAAAAAAAAAAAAAAAAAAAAAAAAAAAAAAAAAAAAAAAAAAAAAAAAAAAAAAAAAAAAAAAAAAAAAAAAAAAAAAAAAAAAAAAAAAAAAAAAAAAAAAAAAAAAAAAAAAAAAAAAAAAAAAAAAAAAAAAAAAAAAAAAAAAAAAAAAAAAAAAAAAAAAAAAAAAAAAAAAAAAAAAAAAAAAAAAAAAAAAAAAAAAAAAAAAAAAAAAAAAAAAAAAAAAAAAAAAAAAAAAAAAAAAAAAAAAAAAAAAAAAAAAAAAAAAAAAAAAAAAAAAAAAAAAAAAAAAAAAAAAAAAAAAAAAAAAAAAAAAAAAAAAAAAAAAAAAAAAAAAAAAAAAAAAAAAAAAAAAAAAAAAAAAAAAAAAAAAAAAAAAAAAAAAAAAAAAAAAAAAAAAAAAAAAAAAAAAAAAAAAAAAAAAAAAAAAAAAAAAAAAAAAAAAAAAAAAAAAAAAAAAAAAAAAAAAAAAAAAAAAAAAAAAAAAAAAAAAAAAAAAAAAAAAAAAAAAAAAAAAAAAAAAAAAAAAAAAAAAAAAAAAAAAAAAAAAAAAAAAAAAAAAAAAAAAAAAAAAAAAAAAAAAAAAAAAAAAAAAAAAAAAAAAAAAAAAAAAAAAAAAAAAAAAAAAAAAAAAAAAAAAAAAAAAAAAAAAAAAAAAAAAAAAAAAAAAAAAAAAAAAAAAAAAAAAAAAAAAAAAAAAAAAAAAAAAAAAAAAAAAAAAAAAAAAAAAAAAAAAAAAAAAAAAAAAAAAAAAAAAAAAAAAAAAAAAAAAAAAAAAAAAAAAAAAAAAAAAAAAAAAAAAAAAAAAAAAAAAAAAAAAAAAAAAAAAAAAAAAAAAAAAAAAAAAAAAAAAAAAAAAAAAAAAAAAAAAAAAAAAAAAAAAAAAAAAAAAAAAAAAAAAAAAAAAAAAAAAAAAAAAAAAAAAAAAAAAAAAAAAAAAAAAAAAAAAAAAAAAAAAAAAAAAAAAAAAAAAAAAAAAAAAAAAAAAAAAAAAAAAAAAAAAAAAAAAAAAAAAAAAAAAAAAAAAAAAAAAAAAAAAAAAAAAAAAAAAAAAAAAAAAAAAAAAAAAAAAAAAAAAAAAAAAAAAAAAAAAAAAAAAAAAAAAAAAAAAAAAAAAAAAAAAAAAAAAAAAAAAAAAAAAAAAAAAAAAAAAAAAAAAAAAAAAAAAAAAAAAAAAAAAAAAAAAAAAAAAAAAAAAAAAAAAAAAAAAAAAAAAAAAAAAAAAAAAAAAAAAAAAAAAAAAAAAAAAAAAAAAAAAAAAAAAAAAAAAAAAAAAAAAAAAAAAAAAAAAAAAAAAAAAAAAAAAAAAAAAAAAAAAAAAAAAAAAAAAAAAAAAAAAAAAAAAAAAAAAAAAAAAAAAAAAAAAAAAAAAAAAAAAAAAAAAAAAAAAAAAAAAAAAAAAAAAAAAAAAAAAAAAAAAAAAAAAAAAAAAAAAAAAAAAAAAAAAAAAAAAAAAAAAAAAAAAAAAAAAAAAAAAAAAAAAAAAAAAAAAAAAAAAAAAAAAAAAAAAAAAAAAAAAAAAAAAAAAAAAAAAAAAAAAAAAAAAAAAAAAAAAAAAAAAAAAAAAAAAAAAAAAAAAAAAAAAAAAAAAAAAAAAAAAAAAAAAAAAAAAAAAAAAAAAAAAAAAAAAAAAAAAAAAAAAAAAAAAAAAAAAAAAAAAAAAAAAAAAAAAAAAAAAAAAAAAAAAAAAAAAAAAAAAAAAAAAAAAAAAAAAAAAAAAAAAAAAAAAAAAAAAAAAAAAAAAAAAAAAAAAAAAAAAAAAAAAAAAAAAAAAAAAAAAAAAAAAAAAAAAAAAAAAAAAAAAAAAAAAAAAAAAAAAAAAAAAAAAAAAAAAAAAAAAAAAAAAAAAAAAAAAAAAAAAAAAAAAAAAAAAAAAAAAAAAAAAAAAAAAAAAAAAAAAAAAAAAAAAAAAAAAAAAAAAAAAAAAAAAAAAAAAAAAAAAAAAAAAAAAAAAAAAAAAAAAAAAAAAAAAAAAAAAAAAAAAAAAAAAAAAAAAAAAAAAAAAAAAAAAAAAAAAAAAAAAAAAAAAAAAAAAAAAAAAAAAAAAAAAAAAAAAAAAAAAAAAAAAAAAAAAAAAAAAAAAAAAAAAAAAAAAAAAAAAAAAAAAAAAAAAAAAAAAAAAAAAAAAAAAAAAAAAAAAAAAAAAAAAAAAAAAAAAAAAAAAAAAAAAAAAAAAAAAAAAAAAAAAAAAAAAAAAAAAAAAAAAAAAAAAAAAAAAAAAAAAAAAAAAAAAAAAAAAAAAAAAAAAAAAAAAAAAAAAAAAAAAAAAAAAAAAAAAAAAAAAAAAAAAAAAAAAAAAAAAAAAAAAAAAAAAAAAAAAAAAAAAAAAAAAAAAAAAAAAAAAAAAAAAAAAAAAAAAAAAAAAAAAAAAAAAAAAAAAAAAAAAAAAAAAAAAAAAAAAAAAAAAAAAAAAAAAAAAAAAAAAAAAAAAAAAAAAAAAAAAAAAAAAAAAAAAAAAAAAAAAAAAAAAAAAAAAAAAAAAAAAAAAAAAAAAAAAAAAAAAAAAAAAAAAAAAAAAAAAAAAAAAAAAAAAAAAAAAAAAAAAAAAAAAAAAAAAAAAAAAAAAAAAAAAAAAAAAAAAAAAAAAAAAAAAAAAAAAAAAAAAAAAAAAAAAAAAAAAAAAAAAAAAAAAAAAAAAAAAAAAAAAAAAAAAAAAAAAAAAAAAAAAAAAAAAAAAAAAAAAAAAAAAAAAAAAAAAAAAAAAAAAAAAAAAAAAAAAAAAAAAAAAAAAAAAAAAAAAAAAAAAAAAAAAAAAAAAAAAAAAAAAAAAAAAAAAAAAAAAAAAAAAAAAAAAAAAAAAAAAAAAAAAAAAAAAAAAAAAAAAAAAAAAAAAAAAAAAAAAAAAAAAAAAAAAAAAAAAAAAAAAAAAAAAAAAAAAAAAAAAAAAAAAAAAAAAAAAAAAAAAAAAAAAAAAAAAAAAAAAAAAAAAAAAAAAAAAAAAAAAAAAAAAAAAAAAAAAAAAAAAAAAAAAAAAAAAAAAAAAAAAAAAAAAAAAAAAAAAAAAAAAAAAAAAAAAAAAAAAAAAAAAAAAAAAAAAAAAAAAAAAAAAAAAAAAAAAAAAAAAAAAAAAAAAAAAAAAAAAAAAAAAAAAAAAAAAAAAAAAAAAAAAAAAAAAAAAAAAAAAAAAAAAAAAAAAAAAAAAAAAAAAAAAAAAAAAAAAAAAAAAAAAAAAAAAAAAAAAAAAAAAAAAAAAAAAAAAAAAAAAAAAAAAAAAAAAAAAAAAAAAAAAAAAAAAAAAAAAAAAAAAAAAAAAAAAAAAAAAAAAAAAAAAAAAAAAAAAAAAAAAAAAAAAAAAAAAAAAAAAAAAAAAAAAAAAAAAAAAAAAAAAAAAAAAAAAAAAAAAAAAAAAAAAAAAAAAAAAAAAAAAAAAAAAAAAAAAAAAAAAAAAAAAAAAAAAAAAAAAAAAAAAAAAAAAAAAAAAAAAAAAAAAAAAAAAAAAAAAAAAAAAAAAAAAAAAAAAAAAAAAAAAAAAAAAAAAAAAAAAAAAAAAAAAAAAAAAAAAAAAAAAAAAAAAAAAAAAAAAAAAAAAAAAAAAAAAAAAAAAAAAAAAAAAAAAAAAAAAAAAAAAAAAAAAAAAAAAAAAAAAAAAAAAAAAAAAAAAAAAAAAAAAAAAAAAAAAAAAAAAAAAAAAAAAAAAAAAAAAAAAAAAAAAAAAAAAAAAAAAAAAAAAAAAAAAAAAAAAAAAAAAAAAAAAAAAAAAAAAAAAAAAAAAAAAAAAAAAAAAAAAAAAAAAAAAAAAAAAAAAAAAAAAAAAAAAAAAAAAAAAAAAAAAAAAAAAAAAAAAAAAAAAAAAAAAAAAAAAAAAAAAAAAAAAAAAAAAAAAAAAAAAAAAAAAAAAAAAAAAAAAAAAAAAAAAAAAAAAAAAAAAAAAAAAAAAAAAAAAAAAAAAAAAAAAAAAAAAAAAAAAAAAAAAAAAAAAAAAAAAAAAAAAAAAAAAAAAAAAAAAAAAAAAAAAAAAAAAAAAAAAAAAAAAAAAAAAAAAAAAAAAAAAAAAAAAAAAAAAAAAAAAAAAAAAAAAAAAAAAAAAAAAAAAAAAAAAAAAAAAAAAAAAAAAAAAAAAAAAAAAAAAAAAAAAAAAAAAAAAAAAAAAAAAAAAAAAAAAAAAAAAAAAAAAAAAAAAAAAAAAAAAAAAAAAAAAAAAAAAAAAAAAAAAAAAAAAAAAAAAAAAAAAAAAAAAAAAAAAAAAAAAAAAAAAAAAAAAAAAAAAAAAAAAAAAAAAAAAAAAAAAAAAAAAAAAAAAAAAAAAAAAAAAAAAAAAAAAAAAAAAAAAAAAAAAAAAAAAAAAAAAAAAAAAAAAAAAAAAAAAAAAAAAAAAAAAAAAAAAAAAAAAAAAAAAAAAAAAAAAAAAAAAAAAAAAAAAAAAAAAAAAAAAAAAAAAAAAAAAAAAAAAAAAAAAAAAAAAAAAAAAAAAAAAAAAAAAAAAAAAAAAAAAAAAAAAAAAAAAAAAAAAAAAAAAAAAAAAAAAAAAAAAAAAAAAAAAAAAAAAAAAAAAAAAAAAAAAAAAAAAAAAAAAAAAAAAAAAAAAAAAAAAAAAAAAAAAAAAAAAAAAAAAAAAAAAAAAAAAAAAAAAAAAAAAAAAAAAAAAAAAAAAAAAAAAAAAAAAAAAAAAAAAAAAAAAAAAAAAAAAAAAAAAAAAAAAAAAAAAAAAAAAAAAAAAAAAAAAAAAAAAAAAAAAAAAAAAAAAAAAAAAAAAAAAAAAAAAAAAAAAAAAAAAAAAAAAAAAAAAAAAAAAAAAAAAAAAAAAAAAAAAAAAAAAAAAAAAAAAAAAAAAAAAAAAAAAAAAAAAAAAAAAAAAAAAAAAAAAAAAAAAAAAAAAAAAAAAAAAAAAAAAAAAAAAAAAAAAAAAAAAAAAAAAAAAAAAAAAAAAAAAAAAAAAAAAAAAAAAAAAAAAAAAAAAAAAAAAAAAAAAAAAAAAAAAAAAAAAAAAAAAAAAAAAAAAAAAAAAAAAAAAAAAAAAAAAAAAAAAAAAAAAAAAAAAAAAAAAAAAAAAAAAAAAAAAAAAAAAAAAAAAAAAAAAAAAAAAAAAAAAAAAAAAAAAAAAAAAAAAAAAAAAAAAAAAAAAAAAAAAAAAAAAAAAAAAAAAAAAAAAAAAAAAAAAAAAAAAAAAAAAAAAAAAAAAAAAAAAAAAAAAAAAAAAAAAAAAAAAAAAAAAAAAAAAAAAAAAAAAAAAAAAAAAAAAAAAAAAAAAAAAAAAAAAAAAAAAAAAAAAAAAAAAAAAAAAAAAAAAAAAAAAAAAAAAAAAAAAAAAAAAAAAAAAAAAAAAAAAAAAAAAAAAAAAAAAAAAAAAAAAAAAAAAAAAAAAAAAAAAAAAAAAAAAAAAAAAAAAAAAAAAAAAAAAAAAAAAAAAAAAAAAAAAAAAAAAAAAAAAAAAAAAAAAAAAAAAAAAAAAAAAAAAAAAAAAAAAAAAAAAAAAAAAAAAAAAAAAAAAAAAAAAAAAAAAAAAAAAAAAAAAAAAAAAAAAAAAAAAAAAAAAAAAAAAAAAAAAAAAAAAAAAAAAAAAAAAAAAAAAAAAAAAAAAAAAAAAAAAAAAAAAAAAAAAAAAAAAAAAAAAAAAAAAAAAAAAAAAAAAAAAAAAAAAAAAAAAAAAAAAAAAAAAAAAAAAAAAAAAAAAAAAAAAAAAAAAAAAAAAAAAAAAAAAAAAAAAAAAAAAAAAAAAAAAAAAAAAAAAAAAAAAAAAAAAAAAAAAAAAAAAAAAAAAAAAAAAAAAAAAAAAAAAAAAAAAAAAAAAAAAAAAAAAAAAAAAAAAAAAAAAAAAAAAAAAAAAAAAAAAAAAAAAAAAAAAAAAAAAAAAAAAAAAAAAAAAAAAAAAAAAAAAAAAAAAAAAAAAAAAAAAAAAAAAAAAAAAAAAAAAAAAAAAAAAAAAAAAAAAAAAAAAAAAAAAAAAAAAAAAAAAAAAAAAAAAAAAAAAAAAAAAAAAAAAAAAAAAAAAAAAAAAAAAAAAAAAAAAAAAAAAAAAAAAAAAAAAAAAAAAAAAAAAAAAAAAAAAAAAAAAAAAAAAAAAAAAAAAAAAAAAAAAAAAAAAAAAAAAAAAAAAAAAAAAAAAAAAAAAAAAAAAAAAAAAAAAAAAAAAAAAAAAAAAAAAAAAAAAAAAAAAAAAAAAAAAAAAAAAAAAAAAAAAAAAAAAAAAAAAAAAAAAAAAAAAAAAAAAAAAAAAAAAAAAAAAAAAAAAAAAAAAAAAAAAAAAAAAAAAAAAAAAAAAAAAAAAAAAAAAAAAAAAAAAAAAAAAAAAAAAAAAAAAAAAAAAAAAAAAAAAAAAAAAAAAAAAAAAAAAAAAAAAAAAAAAAAAAAAAAAAAAAAAAAAAAAAAAAAAAAAAAAAAAAAAAAAAAAAAAAAAAAAAAAAAAAAAAAAAAAAAAAAAAAAAAAAAAAAAAAAAAAAAAAAAAAAAAAAAAAAAAAAAAAAAAAAAAAAAAAAAAAAAAAAAAAAAAAAAAAAAAAAAAAAAAAAAAAAAAAAAAAAAAAAAAAAAAAAAAAAAAAAAAAAAAAAAAAAAAAAAAAAAAAAAAAAAAAAAAAAAAAAAAAAAAAAAAAAAAAAAAAAAAAAAAAAAAAAAAAAAAAAAAAAAAAAAAAAAAAAAAAAAAAAAAAAAAAAAAAAAAAAAAAAAAAAAAAAAAAAAAAAAAAAAAAAAAAAAAAAAAAAAAAAAAAAAAAAAAAAAAAAAAAAAAAAAAAAAAAAAAAAAAAAAAAAAAAAAAAAAAAAAAAAAAAAAAAAAAAAAAAAAAAAAAAAAAAAAAAAAAAAAAAAAAAAAAAAAAAAAAAAAAAAAAAAAAAAAAAAAAAAAAAAAAAPZYQMbj3e54MwPlj0Ptn6hV3Rz72ALom3UbFeGP5FUJ93iefHg/5jdmLBrjLRd6XSzxAKEBUS6UPviZ4ZIhK8oQSV0=</c2pa:manifest></metadata>
<path transform="translate(0,0)" fill="rgb(255,255,255)" d="M 0 0 L 2048 0 L 2048 2048 L 0 2048 L 0 0 z"/>
<path transform="translate(0,0)" fill="rgb(42,49,89)" d="M 1347.13 81.9207 C 1350.29 81.8227 1353.53 81.7163 1356.43 83.593 C 1368.16 91.1719 1365.02 113.654 1366.66 126.109 C 1367.74 134.335 1368.11 141.44 1370.24 149.4 C 1374.82 166.499 1383.48 181.598 1390.78 197.493 C 1403.68 225.58 1416.21 256.755 1422.02 287.165 C 1426.48 310.927 1428.77 335.045 1428.85 359.222 C 1428.88 388.167 1423.58 422.117 1431.79 448.31 C 1451.82 512.218 1509.13 477.933 1513.83 427.623 C 1515.04 414.621 1521.67 390.001 1538.67 400.456 C 1547.88 406.119 1549.83 428.647 1551.41 438.951 C 1553.22 438.398 1555 437.744 1556.74 436.992 C 1570.66 431.037 1582.13 417.469 1589.37 404.545 C 1635.82 321.651 1566.65 252.734 1593.15 190.248 C 1595.72 184.175 1599.59 177.223 1606.19 174.851 C 1609.07 173.833 1612.25 174.089 1614.94 175.557 C 1628.03 182.57 1620.66 212.068 1624.95 226.587 C 1629.02 240.36 1632.64 247.379 1638.61 260.155 C 1651.04 286.744 1662.01 311.259 1664.95 340.934 C 1667.08 362.546 1666.56 381.211 1664.41 402.856 C 1661.85 429.634 1651.97 457.31 1658.81 484.12 C 1661.42 494.348 1665.6 499.942 1674.62 504.941 C 1694.82 505.871 1711.28 497.029 1725.78 483.517 C 1761.66 450.056 1775.3 402.781 1781.77 355.69 C 1782.96 347.053 1784.9 325.935 1790.5 320.144 C 1792.72 317.826 1795.81 316.547 1799.02 316.618 C 1826.56 317.103 1816.21 397.927 1815.15 416.014 C 1815.5 415.793 1815.85 415.571 1816.2 415.349 L 1817.86 414.241 C 1860.59 385.948 1870.02 244.825 1885.05 233.596 C 1888.34 231.137 1894.46 229.352 1898.55 230.148 C 1901.78 230.777 1904.16 232.218 1906.1 234.848 C 1916.02 248.263 1909.11 286.887 1907.02 302.468 C 1877.87 519.934 1703.93 632.221 1517.09 711.865 C 1412.32 756.527 1306.03 792.949 1206.8 849.9 C 1184.13 862.912 1161.34 876.083 1140.53 891.974 C 1146.69 895.326 1152.8 898.775 1158.85 902.317 C 1167.54 894.509 1180.92 884.779 1190.6 878.324 C 1220.4 858.453 1268.3 830.907 1303.02 825.237 C 1349.26 817.684 1308.64 913.996 1304.72 931.865 C 1295 976.122 1292.87 1012.21 1261.52 1047.06 C 1311.51 1075.84 1361.99 1103.76 1412.93 1130.82 C 1473.91 1162.79 1541.68 1189.29 1591.87 1237.15 C 1643.94 1286.79 1665.63 1374.1 1747.04 1383.77 C 1728.59 1402.17 1700.72 1405.1 1676.25 1407.94 C 1693.89 1446.69 1685.77 1473.53 1692.38 1513.01 C 1692.78 1515.41 1699.81 1525.91 1701.59 1528.91 L 1701.02 1529.76 C 1687.9 1534.22 1666.01 1515.62 1656.21 1507.71 C 1655.61 1529.25 1649.9 1550.28 1643.17 1570.64 C 1633.22 1600.77 1626.79 1618.92 1647.38 1646.78 C 1624.08 1638.54 1606.39 1624.05 1592 1604.01 C 1584.04 1660.75 1556.86 1704.81 1523.23 1749.85 C 1518.29 1721.49 1518.49 1711.32 1509.06 1681.71 C 1479.79 1748.13 1436.6 1807.5 1382.41 1855.79 C 1383.25 1837.83 1384.44 1821.85 1384.01 1803.82 C 1360.42 1853.91 1296.46 1925.36 1245.68 1948.33 C 1253.95 1939.07 1263.09 1930.31 1271.04 1920.79 C 1317.01 1865.7 1362.64 1806.7 1386.73 1738.32 C 1388.19 1734.17 1390.19 1726.89 1393.48 1724.3 C 1395.33 1727.2 1395.26 1740.07 1395.63 1744.13 C 1397.1 1760.13 1398.84 1775.78 1406.19 1790.35 C 1415.19 1781.91 1421.16 1772.16 1427.89 1762.03 C 1453.41 1723.62 1463.4 1683.71 1478.99 1641.62 C 1481.46 1651.42 1483.67 1663.5 1485.91 1673.58 C 1499.85 1654.5 1507.4 1639.14 1515.29 1617.34 C 1519.61 1645.09 1516.91 1658.63 1534.05 1684.61 C 1534.76 1683.77 1535.46 1682.92 1536.14 1682.05 C 1542.88 1673.59 1550.8 1659.07 1555.36 1649.21 C 1571.83 1613.64 1578.28 1589.57 1573.96 1551 C 1586.32 1562.26 1597.2 1575.27 1608.94 1587.27 C 1630.92 1541.35 1636.35 1506.28 1627.21 1456.89 C 1638.25 1463.85 1653.9 1479.75 1663.99 1489.44 C 1664.62 1454.96 1664.3 1423.03 1640.73 1395.92 C 1632.65 1386.63 1621.43 1375.7 1614.46 1366.26 L 1613.6 1365.08 C 1636.46 1377.64 1649.96 1387.28 1676.34 1384.57 C 1637.7 1347.02 1639.21 1348.21 1589.9 1328.17 C 1605.58 1328.24 1619.69 1332.83 1634.54 1337.25 C 1628.83 1330.17 1623.12 1323.11 1617.2 1316.21 C 1597.59 1293.36 1569.62 1282.09 1545.17 1265.28 C 1561.02 1269.16 1578.3 1276.46 1593.31 1283 C 1568.92 1258.46 1527.69 1250.36 1498.58 1233.36 C 1520.19 1236.21 1544.54 1244.39 1564.54 1252.79 C 1532.27 1224.95 1499.77 1221.24 1459.79 1210.4 C 1454.54 1208.98 1440.73 1207.01 1436.94 1204 C 1443.19 1200.24 1500.99 1212.43 1512.21 1214.77 C 1486.93 1201.45 1462.49 1198.29 1434.54 1193.18 C 1427.32 1191.86 1412.56 1192.03 1406.48 1189.57 L 1407.15 1188.69 C 1424.38 1183.62 1453.49 1188.99 1471.2 1191.78 C 1445.93 1179.55 1421.1 1176.43 1393.51 1174.1 C 1386.74 1173.53 1372.95 1173.67 1367.28 1171.63 L 1366.92 1170.06 C 1372.32 1163.72 1415.4 1167.76 1424.74 1168.31 C 1384.96 1147.98 1345.62 1157.06 1305 1155.87 C 1331.97 1145.8 1353.24 1143.88 1381.35 1146.19 C 1349.85 1128.22 1326.38 1137.37 1292.82 1137.35 C 1313.69 1130.51 1324.88 1128.8 1346.78 1127.69 C 1341.81 1125.03 1333.26 1120.6 1327.88 1119.6 C 1306.8 1115.66 1277.59 1123.2 1255.96 1126.8 C 1276.85 1115.97 1288.74 1112.99 1311.83 1110.66 C 1307.88 1108.23 1303.02 1105.76 1298.89 1103.52 C 1279.11 1104.81 1251.95 1112.31 1232.86 1117.43 C 1250.66 1105.61 1266.78 1104.35 1286.59 1097.43 C 1267.85 1086.84 1252.26 1082.57 1231.94 1076.41 C 1207.93 1090.49 1169.29 1102.81 1151.64 1121.16 C 1116.98 1157.17 1196.6 1213.39 1218.94 1232.89 C 1198.48 1228 1169.31 1212.38 1152.92 1199.25 C 1126.73 1178.27 1108.52 1153.56 1104.36 1119.81 C 1046.33 1146.98 1098.35 1195 1118.99 1227.52 C 1127.94 1241.61 1136.47 1256.9 1143.93 1271.85 C 1132.2 1264.3 1127.09 1259.37 1113.89 1253.84 C 1135.85 1279.88 1146.38 1298.89 1147.22 1334.31 C 1134.94 1322.46 1124.66 1312.26 1111.85 1300.6 C 1120.45 1325.91 1121.29 1337.7 1120.83 1363.91 L 1104.99 1348.77 C 1098.94 1369.79 1106.33 1379.06 1108.28 1400.39 C 1109.19 1410.3 1109.26 1420.44 1109.35 1430.42 L 1079.12 1395.18 C 1087.37 1431.96 1079.85 1448.36 1061.08 1481.57 C 1056.17 1458.11 1050.08 1441.97 1035.33 1423.19 C 993.483 1450.76 986.429 1452.7 978.062 1505.79 C 976.738 1514.2 971.297 1529.78 968.301 1538.57 C 958.436 1519.47 944.48 1494.05 932.098 1476.64 C 930.616 1485.09 929.292 1492.25 927.242 1500.56 C 916.022 1483.65 910.055 1477.52 891.925 1468.58 C 899.166 1484.54 906.274 1499.13 911.805 1515.89 C 916.64 1529.48 918.509 1547.33 923.486 1560.55 C 935.37 1592.1 942.346 1611.85 943.859 1645.7 C 958.671 1615.89 946.566 1576.71 938.99 1545.49 C 957.947 1580.53 959.784 1611.01 964.007 1649.63 C 968.222 1629.74 969.057 1606.69 973.065 1585.95 C 978.11 1604.85 974.892 1645.78 974.892 1666.41 C 974.892 1688.54 974.987 1711.5 974.987 1733.71 C 994.331 1706.81 999.399 1695.02 1007.46 1662.68 C 1008.45 1682 1009.63 1703.83 1013.45 1722.8 C 1017.84 1744.54 1023.73 1766.77 1028.72 1788.5 C 1036.11 1769.82 1038.14 1754.88 1039.74 1735.21 C 1046.6 1775.36 1071.06 1811.7 1089.09 1848.74 C 1099.9 1827.54 1098.76 1820.97 1095.34 1798.58 C 1098.51 1805.59 1101.69 1812.59 1104.96 1819.54 C 1115.58 1842.09 1131.76 1861.37 1145.26 1882.3 C 1163.2 1854.5 1177.91 1809.92 1186.81 1778.58 C 1200.36 1730.89 1208.62 1678.15 1206.6 1628.59 C 1206.36 1622.76 1204.04 1607.02 1206.36 1602.71 C 1210.5 1605.15 1215.5 1625.52 1217.05 1630.93 C 1221.31 1645.75 1225.99 1656.69 1234.08 1669.81 C 1249.46 1623.56 1256.1 1568.73 1253.46 1520.03 C 1253.13 1513.92 1249.7 1493.52 1252.61 1489.42 C 1256.36 1492.69 1262.89 1526.67 1263.41 1533.53 C 1267.56 1539.29 1277.52 1549.53 1282.8 1555.61 C 1282.29 1542.1 1284.31 1525.92 1284.68 1512.19 C 1285.01 1499.99 1284.62 1489.39 1283.79 1477.24 C 1282.29 1456.42 1279.66 1435.69 1275.93 1415.14 C 1273.54 1401.98 1270.11 1388.21 1268.49 1375.05 C 1280.25 1403.71 1283.77 1408.82 1302.37 1433.75 C 1290.68 1360.93 1291.99 1328.36 1236.55 1271.84 C 1239.67 1273.53 1242.75 1275.3 1245.77 1277.16 C 1289.74 1304.61 1310.08 1352.66 1318.88 1402.16 C 1323.91 1430.46 1325.34 1462.07 1331.86 1490.09 C 1321.49 1482.74 1311.56 1471.76 1303.6 1461.91 C 1309.05 1526.1 1307.17 1549.35 1297.94 1613.39 C 1291.02 1600.97 1282.38 1589.34 1274.1 1577.75 C 1274.09 1617.05 1263.54 1656.96 1254.66 1695.1 C 1251.13 1710.27 1246.09 1732.92 1240.71 1747.08 C 1237.36 1734.79 1233.26 1722.71 1228.45 1710.91 C 1222.84 1779.55 1175.52 1907.73 1135.24 1964.17 C 1133.71 1924.12 1127.45 1907.42 1106.8 1874.4 C 1097.97 1898.78 1087.94 1917.61 1066.54 1933.52 C 1070.37 1876.13 1069.96 1867.19 1044.5 1813.14 C 1028.36 1839.06 1022.21 1843.31 999.511 1863.34 C 1009.02 1819.39 1008.43 1791.72 992.998 1750.25 C 977.802 1772.55 971.367 1779.25 952.588 1797.64 C 957.265 1774.06 954.677 1739.56 953.468 1715.3 L 951.1 1659.47 C 941.619 1674.14 932.877 1681.28 917.537 1689.51 C 924.022 1648.74 925.808 1618.1 902.66 1581.44 C 900.293 1599.39 896.097 1607.75 886.376 1622.83 C 889.41 1580.77 888.936 1540.1 860.639 1505.86 C 867.232 1529.08 866.514 1566.57 855.706 1588.16 C 856.613 1551.11 853.929 1525.39 825.284 1500.25 C 835.484 1518.45 843.222 1547.19 844.777 1567.91 C 836.469 1552.77 832.993 1541.98 821.6 1527.7 C 824.695 1537.37 836.62 1572.71 831.481 1580.68 C 827.163 1576.26 812.389 1546.83 807.233 1538.85 C 795.505 1521.41 781.157 1505.89 764.696 1492.83 C 779.313 1514.07 783.451 1522.55 785.99 1547.96 C 758.083 1506.47 756.569 1495.13 705.88 1482.67 C 663.379 1472.23 617.566 1471.39 583.401 1504.27 C 563.504 1523.41 555.998 1544.75 527.443 1553.95 C 480.306 1572.92 452.85 1550.39 410.978 1532.21 C 392.986 1540.46 378.241 1545.37 358.24 1540.32 C 334.771 1534.38 314.882 1517.94 302.829 1497.15 C 297.588 1488.1 293.596 1477.78 293.682 1467.21 C 293.84 1447.66 303.9 1423.05 307.296 1402.8 C 311.321 1378.8 308.88 1352.83 315.276 1329.53 C 320.876 1309.13 333.83 1291.06 348.321 1275.99 C 399.745 1222.53 518.578 1158.93 587.3 1128.72 C 611.227 1118.06 635.299 1107.73 659.509 1097.73 C 673.796 1091.87 695.6 1084.21 708.5 1076.51 C 723.996 1034.91 736.917 1033.82 774.491 1011.3 C 783.979 1005.61 793.834 995.979 801.87 988.172 C 748.339 963.067 681.463 944.589 622.496 939.536 C 601.017 937.696 579.856 936.891 558.429 933.729 C 545.723 931.817 533.119 929.278 520.664 926.121 C 513.894 924.34 490.836 917.267 485.696 917.47 C 382.478 921.547 295.298 901.097 219.453 824.721 C 159.733 764.583 134.062 678.153 136.627 592.994 C 136.85 585.584 137.732 575.787 143.625 570.229 C 157.468 565.799 162.812 594.191 164.637 603.393 C 167.843 619.556 170.454 635.416 175.546 651.142 C 181.429 669.075 189.204 686.331 198.738 702.619 C 237.703 768.044 303.496 809.216 376.032 827.857 C 348.748 798.677 330.211 760.506 314.839 723.312 C 290.353 662.612 276.765 596.152 278.014 530.599 C 278.256 517.935 280.085 486.841 294.055 480.842 C 301.259 477.748 307.439 486.945 307.799 493.118 C 309.736 526.351 312.867 558.898 320.848 591.411 C 338.622 661.566 367.354 735.023 411.768 792.742 C 425.715 810.867 446.08 827.428 465.02 839.391 C 433.583 798.954 408.694 747.73 404.047 696.07 C 402.551 679.448 411.421 652.692 426.037 678.175 C 433.756 691.633 439.532 710.183 446.076 724.802 C 462.681 762.467 484.656 797.527 511.317 828.89 C 557.73 882.633 612.599 914.954 681.452 928.811 C 724.328 937.439 773.433 953.287 813.277 971.393 L 842.337 948.719 C 798.382 933.992 766.348 917.398 728.435 891.028 C 726.206 889.478 683.663 877 678.713 875.555 C 600.666 852.774 533.972 821.52 492.2 747.258 C 467.165 703.779 442.652 656.577 435.718 606.364 C 434.47 597.329 431.294 580.014 440.641 574.794 C 453.647 576.565 464.539 626.029 472.216 639.303 C 500.151 687.61 545.167 724.507 540.724 785.927 L 540.608 787.35 C 543.803 790.638 547.124 793.8 550.563 796.831 C 579.714 822.635 617.785 847.317 658.305 844.828 C 662.657 837.093 667.429 829.274 671.965 821.62 C 666.627 807.653 659.597 793.09 655.202 778.83 C 649.498 759.264 645.418 739.534 642.575 719.2 C 635.975 671.98 632.233 623.352 632.086 575.648 C 632.066 569.278 635.289 562.961 642.199 562.264 C 661.774 569.639 671.161 628.238 676.882 647.272 C 687.59 682.897 706.002 743.157 730.77 770.924 C 748.438 743.998 776.75 719.97 802.278 700.285 C 798.113 664.629 798.942 538.562 812.779 509.002 C 816.154 501.791 822.324 493.26 830.348 490.888 C 832.942 490.121 837.056 489.711 839.352 491.422 C 842.421 493.709 842.655 497.421 843.016 500.971 C 845.192 522.351 843.74 544.949 843.822 566.483 C 843.927 594.004 845.393 621.18 847.674 648.601 C 911.134 592.87 954.458 501.515 968.977 418.941 C 970.651 409.418 976.676 355.253 962.374 353.931 C 957.744 356.915 955.873 367.445 955.582 372.361 C 953.554 406.499 943.998 442.04 927.174 471.715 C 919.992 484.384 903.209 512.819 888.851 517.538 C 854.809 528.442 854.494 457.615 850.485 437.297 C 845.095 409.975 837.821 381.509 837.544 353.85 C 837.486 348.108 838.37 340.894 832.091 338.554 C 831.506 338.947 830.381 339.626 830.11 340.236 C 809.543 386.583 846.597 436.158 828.266 483.619 C 825.227 491.486 821.786 494.191 815.657 499.356 C 813.984 487.226 813.99 465.265 801.851 459.827 C 792.443 460.965 802.617 487.211 803.375 494.751 C 805.328 514.204 786.205 548.394 766.12 551.337 C 753.445 553.194 757.474 531.721 752.001 526.806 L 749.781 527.165 C 745.862 530.303 744.846 534.691 743.959 539.419 C 734.36 590.55 698.835 579.898 676.724 542.747 C 659.277 513.43 650.408 480.774 632.914 451.685 C 610.023 413.62 578.944 380.883 558.733 340.701 C 550.993 325.533 544.657 309.69 539.805 293.368 C 537.063 283.837 534.582 273.558 531.706 264.049 C 530.917 261.439 529.024 260.644 526.955 259.707 C 519.228 262.533 519.514 281.606 520.359 288.748 C 527.31 347.51 563.171 400.36 586.824 453.591 C 608.374 502.088 626.916 548.025 622.798 602.563 C 620.07 668.062 581.635 715.301 527.218 650.797 C 479.587 596.018 480.597 537.793 455.224 473.988 C 450.345 461.717 432.923 427.974 421.217 422.914 L 419.374 423.843 C 416.482 432.667 437.715 467.774 441.762 479.725 C 459.755 532.867 465.55 587.758 498.136 635.207 C 504.531 644.52 527.164 664.839 527.364 673.005 L 525.846 674.336 C 509.134 670.456 485.397 634.289 478.057 619.572 C 468.538 600.635 460.793 580.858 454.919 560.493 C 447.836 535.648 442.97 510.338 434.83 485.761 C 428.953 468.015 417.989 452.025 412.605 434.378 C 411.501 430.761 410.915 427.553 412.289 423.905 C 413.374 421.025 415.488 418.331 418.44 417.221 C 420.981 416.265 423.636 416.869 425.999 417.999 C 433.597 421.636 440.243 430.878 444.878 437.704 C 475.021 482.091 477.376 524.542 494.187 573.02 C 504.997 604.194 528.435 648.414 560.007 662.981 C 566.563 666.006 572.624 666.707 579.429 664.138 C 589.953 660.165 596.669 650.933 601.152 641.007 C 608.16 625.491 611.055 607.528 611.874 590.634 C 616.246 500.359 556.033 426.481 526.27 345.69 C 517.811 322.727 504.829 283.391 516.39 259.749 C 518.086 256.28 520.047 253.283 524.082 252.298 C 527.057 251.571 530.267 252.3 532.837 253.888 C 540.755 258.779 550.013 300.254 554.057 310.809 C 573.484 361.512 612.016 400.516 640.02 446.167 C 646.395 456.559 652.131 467.33 657.198 478.419 C 669.097 504.603 681.167 542.813 705.023 560.248 C 709.454 563.212 713.411 564.374 718.602 563.121 C 740.739 557.78 730.193 521.485 752.59 516.977 C 764.391 520.502 759.173 536.272 766.659 542.708 L 769.312 542.37 C 775.156 538.436 778.864 533.458 783.009 528.617 C 807.22 500.341 786.231 485.549 791.755 458.501 C 792.77 455.991 796.551 453.392 798.964 453.165 C 816.268 451.536 817.112 476.727 818.461 488.185 C 830.414 453.862 823.599 436.442 818.207 401.279 C 815.77 382.076 812.8 353.672 823.216 336.594 C 827.852 328.993 840.723 330.959 843.739 339.652 C 847.668 349.963 844.553 364.139 846.953 374.522 C 855.856 413.048 862.24 451.469 868.409 490.413 C 872.814 518.216 889.654 512.496 903.279 493.553 C 918.604 472.248 930.308 451.064 937.975 425.316 C 940.708 415.927 942.923 406.395 944.61 396.763 C 946.292 386.762 947.692 356.59 953.171 352.215 C 985.03 327.363 980.902 394.289 979.525 409.415 C 970.633 507.036 923.822 605.72 849.625 669.64 C 861.509 749.775 890.813 862.077 981.795 883.017 C 1003.7 888.06 1053.19 779.794 1069.84 764.093 C 1072.63 761.462 1077.26 760.34 1080.78 760.952 C 1094.7 763.373 1112.98 790.558 1120.98 800.572 C 1156.71 772.567 1188.09 745.43 1198.84 699.272 C 1211.72 643.97 1190.46 573.188 1176.95 519.426 C 1158.01 441.368 1135.37 364.252 1109.12 288.339 C 1100.51 263.442 1077.99 209.927 1081.38 186.292 C 1082.02 181.791 1083.56 175.263 1087.92 172.871 C 1090.02 171.722 1092.41 171.789 1094.65 172.37 C 1100.59 173.913 1104.99 178.838 1108 183.939 C 1114.07 194.222 1116.71 206.368 1120.99 217.429 C 1125.97 230.268 1131.98 242.744 1138.09 255.077 C 1171.86 323.3 1214.03 388.859 1239.36 460.967 C 1246.92 482.488 1253.88 504.512 1259.27 526.689 C 1265.7 553.135 1267.5 583.548 1280.91 607.599 C 1283.85 612.867 1288.16 619.235 1294.46 620.603 C 1297.22 621.2 1300.51 620.01 1302.8 618.554 C 1319.24 608.111 1333.09 565.53 1338.69 546.895 C 1365.68 457.108 1373.19 350.468 1356.7 258.023 C 1348.3 210.903 1324.34 150.951 1333.51 104.507 C 1335.45 94.6684 1338.66 87.5235 1347.13 81.9207 z"/>
<path transform="translate(0,0)" fill="rgb(255,255,255)" d="M 1300.16 845.691 L 1303.09 846.582 C 1304.4 848.64 1305.06 849.006 1304.62 851.698 C 1300.24 878.201 1289.6 907.677 1284.91 933.839 C 1273.42 997.996 1256.18 1049.19 1186.57 1067.39 C 1166.71 1072.58 1144.63 1076.33 1125.08 1082.95 C 1094.92 1093.51 1063.1 1107.89 1063.02 1145.22 C 1062.96 1179.54 1083.34 1212.79 1106.26 1237.16 C 1092.68 1235.16 1082.1 1230.43 1070.3 1223.85 C 1085.34 1255.39 1101.09 1260.15 1117.24 1287.06 C 1110.3 1281.57 1102.23 1275.13 1094.81 1270.43 C 1085.56 1264.57 1077.55 1260.72 1069 1253.66 C 1080.03 1278.89 1098.97 1296.47 1104.82 1325.31 C 1092.49 1304.71 1085.3 1292.08 1063.08 1280.98 C 1077.99 1304.3 1088.37 1323.1 1091.29 1350.54 C 1083.76 1339.39 1046.67 1305.52 1034.24 1313.5 C 1035.12 1315.29 1034.72 1315.09 1036.04 1316.06 C 1057.05 1331.44 1079.09 1357.47 1086.1 1383.07 L 1086.54 1384.72 C 1072.6 1366.79 1067.01 1360.11 1045.85 1351.18 C 1048.25 1355.94 1053.05 1362.98 1056.04 1367.55 C 1067.32 1384.78 1071.64 1396.45 1073.68 1416.63 C 1067.19 1404.57 1062.34 1391.6 1051.62 1382.77 C 1061.28 1401.55 1064.98 1413.78 1066.63 1434.49 C 1064.21 1429.19 1061.46 1424.04 1058.39 1419.09 C 1042.56 1393.86 1021.18 1377.43 991.962 1370.54 C 1004.93 1383.23 1010.25 1390.58 1019.43 1406.31 C 1016.5 1409.14 1011.99 1412.6 1008.74 1415.25 C 999.224 1405.21 995.708 1403.99 982.368 1402.33 C 987.439 1408.86 998.281 1423.77 989.514 1430.63 C 983.265 1428.38 973.487 1412.13 966.702 1414.63 C 966.437 1420.39 976.651 1438.8 974.425 1447.95 C 970.362 1448.39 964.685 1438.08 961.38 1434.46 C 945.093 1416.62 919.282 1405.69 897.437 1397.3 C 927.199 1426.46 953.233 1434.04 963.549 1482.75 C 939.301 1449.18 915.214 1431 874.423 1420.63 C 890.353 1431.79 905.951 1438.51 914.151 1457.68 C 915.897 1461.76 922.523 1472.3 920.201 1476.34 C 893.654 1447.93 876.774 1439.05 838.759 1432.89 C 861.532 1445.8 866.135 1451.39 877.897 1474.96 C 868.96 1470.56 859.421 1463.68 849.947 1459.16 C 825.495 1447.51 783.476 1432.13 756.911 1433.17 C 779.848 1440.03 795.417 1448.06 808.073 1468.54 C 760.866 1443.05 708.905 1447.69 657.908 1448.21 C 665.798 1442.8 672.217 1437.15 677.195 1428.91 C 672.61 1414.92 667.96 1400.8 655.204 1392.24 C 631.39 1376.25 587.908 1380.04 560.959 1385.77 C 525.883 1393.23 471.032 1414.59 446.772 1441.21 C 441.528 1446.97 429.428 1471.39 423.458 1480.47 L 422.419 1482.04 C 421.919 1482.78 421.419 1483.53 420.881 1484.24 C 410.201 1498.44 395.614 1511.48 377.225 1513.68 C 364.527 1515.2 350.623 1510.28 340.617 1502.62 C 330.919 1495.2 322.373 1483.37 321.199 1470.92 C 320.184 1460.16 335.149 1422.88 337.358 1406.61 C 341.448 1376.49 336.128 1344.41 349.682 1316.16 C 389.795 1232.56 600.332 1145.45 686.938 1109.14 C 720.031 1095.27 786.498 1073.46 808.87 1047 C 800.949 1049.62 792.974 1053.18 784.834 1055.53 C 769.584 1059.94 754.157 1064.02 738.826 1068.13 C 765.345 1036.98 776.524 1043.1 807.325 1020 C 816.123 1013.41 828.482 998.246 836.181 989.625 L 868.859 953.443 C 890.951 958.718 913.127 963.635 935.379 968.19 L 930.589 976.542 C 907.156 973.334 894.443 975.917 877.981 994.106 C 898.182 986.353 906.376 983.536 927.908 987.504 C 934.954 1010.04 950.513 1028.96 975.419 1031.82 C 998.786 1034.5 1009.13 1016.58 1022.05 1001.05 C 1050.62 966.717 1081.91 936.91 1116.63 908.961 C 1123.36 912.477 1130.04 916.106 1136.65 919.845 C 1107.58 944.594 1059.49 957.916 1050.29 1000.98 C 1045.41 1023.79 1051.7 1046.19 1064.21 1065.52 C 1061.19 1019.86 1069.72 992.507 1108.7 966.274 C 1101.79 977.625 1100.25 980.686 1096.65 993.518 C 1106.26 977.558 1114.82 966.93 1128.54 954.295 C 1117.19 972.907 1116.22 976.969 1111.79 998.267 C 1119.33 988.06 1127.54 970.971 1135.25 961.863 C 1164.23 927.637 1219.8 878.777 1260.54 861.165 C 1210.78 905.207 1179.67 944.985 1154.03 1007.06 C 1142.58 1034.79 1138.29 1054.98 1120.09 1079.78 C 1148.41 1070.5 1185.68 1039.81 1200.17 1013.54 C 1215.89 985.045 1218.23 948.549 1234.24 919.919 C 1249.62 892.407 1273.2 862.323 1300.16 845.691 z"/>
<path transform="translate(0,0)" fill="rgb(42,49,89)" d="M 945.884 1091.8 L 946.682 1092.48 C 948.183 1102.43 929.768 1114.49 921.96 1118.8 C 924.277 1124.96 924.758 1133.36 922.989 1139.65 C 913.322 1174.09 868.344 1161.67 844.425 1155.55 C 849.952 1153.77 854.478 1153.18 860.168 1152.25 L 855.789 1137.68 C 849.23 1142.65 844.532 1147.57 839.191 1153.75 C 832.922 1161.58 826.412 1169.21 819.67 1176.64 C 827.208 1145.54 845.067 1096.8 884.287 1099.01 C 911.8 1100.56 919.137 1109.22 945.884 1091.8 z"/>
<path transform="translate(0,0)" fill="rgb(255,255,255)" d="M 891.371 1124.64 C 893.073 1124.98 894.544 1125.3 896.183 1125.91 C 898.949 1126.98 901.158 1129.13 902.296 1131.87 C 905.905 1140.43 898.883 1150.2 890.517 1152.47 C 882.213 1154.72 875.936 1152.78 868.618 1148.85 C 868.274 1148.22 867.458 1146.13 867.153 1145.4 L 867.863 1143.75 C 871.071 1142.37 874.664 1142.34 877.715 1144.16 C 878.967 1147.24 879.018 1147.94 881.232 1150.47 C 898.398 1154.01 899.501 1136.26 891.371 1124.64 z"/>
<path transform="translate(0,0)" fill="rgb(42,49,89)" d="M 456.796 1315.25 C 463.027 1314.85 474.761 1317.44 477.926 1322.84 C 491.745 1347.22 468.08 1381.25 453.844 1400.73 C 447.59 1409.29 427.13 1437.37 413.274 1433.61 C 404.203 1431.15 403.777 1420.18 405.397 1411.92 C 415.437 1388.51 428.23 1389.21 444.646 1373.3 C 449.527 1368.96 458.143 1352.21 456.793 1345.77 C 453.191 1328.59 424.959 1351.84 415.865 1346.07 C 416.085 1343.95 416.485 1343.14 417.832 1341.34 C 428.662 1326.83 438.783 1318.52 456.796 1315.25 z"/>
<path transform="translate(0,0)" fill="rgb(42,49,89)" d="M 379.388 1408.62 C 383.328 1411.61 388.959 1425.74 391.768 1431.12 C 398.493 1444.02 406.503 1455.29 413.691 1467.81 C 402.353 1488.18 384.201 1500.69 360.407 1493.56 C 340.506 1480.28 346.471 1459.32 353.015 1440.49 C 355.014 1448.17 355.23 1461.91 362.506 1465.92 C 374.528 1460.24 371.686 1420.34 379.388 1408.62 z"/>
<path transform="translate(0,0)" fill="rgb(42,49,89)" d="M 595.527 1196.06 C 598.656 1194.75 598.989 1194.51 601.688 1192.73 C 606.791 1196.11 614.724 1197.56 617.537 1202.75 C 611.881 1205.97 588.608 1203.58 577.551 1204.85 C 585.288 1207.44 593.854 1210.06 601.149 1213.56 C 576.561 1220.13 550.146 1218.73 524.788 1225.56 C 536.051 1225.44 556.123 1225.29 564.831 1233.15 L 564.755 1234.62 C 561.547 1236.27 540.325 1235.45 533.699 1236.09 C 526.178 1236.87 518.726 1238.21 511.407 1240.11 C 517.03 1241.94 530.529 1245.45 533.027 1250.29 C 527.347 1256.01 496.038 1252.43 478.194 1265.25 L 477.308 1265.64 C 470.454 1268.12 463.645 1271.59 455.814 1274.35 C 466.464 1262.48 476.622 1259.42 491.073 1253.9 C 486.955 1252.06 480.821 1250.35 476.379 1248.97 C 498.535 1235.33 501.064 1238.91 523.041 1231.3 L 524.324 1230.84 C 516.227 1231.11 509.413 1231.08 501.306 1230.85 L 501.975 1230.38 C 517.497 1219.77 540.167 1212.92 558.597 1210.01 L 539.98 1208.28 C 551.929 1202.84 560.055 1201.63 573.135 1199.65 C 578.524 1198.83 591.457 1197.98 595.527 1196.06 z"/>
<path transform="translate(0,0)" fill="rgb(42,49,89)" d="M 488.174 1315.68 C 500.414 1322.35 513.413 1336.68 511.085 1351.75 C 506.19 1383.46 481.687 1401 458.645 1419.98 L 457.497 1421.04 C 455.068 1423.31 453.487 1425.59 450.366 1425.84 C 445.462 1419.41 463.945 1396.91 467.999 1391.53 C 478.04 1378.19 487.587 1365.59 491.255 1348.99 C 494.144 1335.9 488.962 1328.07 488.174 1315.68 z"/>
<path transform="translate(0,0)" fill="rgb(42,49,89)" d="M 861.55 1045.29 C 872.73 1043.78 880.867 1045.37 891.322 1048.73 C 850.333 1053.81 831.637 1061.32 802.566 1091.23 C 799.633 1094.64 792.651 1103.82 788.7 1104.52 L 787.858 1102.47 C 788.561 1097.79 794.168 1089.91 797.175 1085.96 C 815.427 1062 832.24 1050.11 861.55 1045.29 z"/>
<path transform="translate(0,0)" fill="rgb(42,49,89)" d="M 950.285 1127.44 C 951.75 1128.03 952.275 1128.46 953.619 1129.29 C 956.405 1134.42 956.478 1141.15 957.175 1146.88 C 958.627 1158.82 955.797 1159.72 948.374 1168.46 C 950.793 1168.24 952.335 1168.18 954.766 1168.17 L 955.5 1169.5 C 953.383 1176.54 936.603 1187.4 929.259 1188.92 C 926.598 1189.09 925.595 1189.5 923.375 1188.15 C 925.897 1180.34 943.12 1175.61 945.874 1169.24 C 943.232 1169.92 942.152 1170.36 939.423 1170.33 C 939.622 1167.01 944.56 1156.18 946.235 1152.51 C 950.264 1143.68 948.452 1136.32 950.285 1127.44 z"/>
<path transform="translate(0,0)" fill="rgb(42,49,89)" d="M 909.163 1326.11 C 906.477 1326.29 907.154 1325.72 905.682 1327.01 C 908.236 1328.37 909.567 1328.85 911.515 1331.04 L 909.962 1332.16 C 894.872 1334.63 863.693 1319.17 857.101 1306.19 L 857.725 1305.22 C 862.999 1306.43 882.27 1318.36 890.981 1321.68 C 887.713 1318.42 885.192 1316.52 883.377 1312.29 C 887.286 1310.59 898.641 1321.9 908.021 1322.2 L 909.163 1326.11 z"/>
<path transform="translate(0,0)" fill="rgb(42,49,89)" d="M 951.71 1182.15 L 952.452 1182.83 C 950.505 1187.28 944.387 1193.91 940.669 1197.35 C 924.643 1212.2 910.283 1215.38 889.503 1214.91 L 889.38 1213.95 C 890.383 1212.33 921.693 1202.85 926.869 1196.68 C 930.479 1192.37 946.316 1184.8 951.71 1182.15 z"/>
<path transform="translate(0,0)" fill="rgb(42,49,89)" d="M 893.754 1306.05 C 899.786 1309.33 906.744 1313.8 912.705 1317.41 L 913.849 1315.81 L 913.821 1314.22 C 917.808 1313.59 928.461 1316.39 935.555 1316.21 C 946.764 1315.92 955.414 1312.9 965.459 1311.87 C 956.935 1315.79 952.37 1317.36 943.343 1320.13 C 942.431 1321.1 940.312 1323.59 939.311 1324.08 C 930.162 1328.15 918.772 1328.84 909.163 1326.11 L 908.021 1322.2 L 908.263 1321.6 C 902.063 1314.99 899.982 1313.88 893.754 1306.05 z"/>
<path transform="translate(0,0)" fill="rgb(42,49,89)" d="M 893.754 1306.05 C 899.786 1309.33 906.744 1313.8 912.705 1317.41 C 923.666 1323.89 926.205 1324.35 939.311 1324.08 C 930.162 1328.15 918.772 1328.84 909.163 1326.11 L 908.021 1322.2 L 908.263 1321.6 C 902.063 1314.99 899.982 1313.88 893.754 1306.05 z"/>
<path transform="translate(0,0)" fill="rgb(239,236,237)" d="M 913.849 1315.81 C 924.265 1321.28 931.92 1321.14 943.343 1320.13 C 942.431 1321.1 940.312 1323.59 939.311 1324.08 C 926.205 1324.35 923.666 1323.89 912.705 1317.41 L 913.849 1315.81 z"/>
<path transform="translate(0,0)" fill="rgb(42,49,89)" d="M 668.418 1326.99 C 677.272 1319.14 677.806 1309.38 684.036 1302.67 L 685.448 1303.23 C 685.854 1309.82 681.927 1315.75 682.893 1319.39 C 684.336 1315.48 702.137 1280.59 703.577 1279.71 C 708.162 1287.81 694.777 1314.8 688.415 1321.3 C 687.471 1322.26 683.131 1322.64 681.672 1322.78 C 678.524 1326.29 675.622 1331.92 672.59 1333.13 C 670.881 1330.81 671.501 1332.08 671.254 1329.04 L 668.418 1326.99 z"/>
<path transform="translate(0,0)" fill="rgb(42,49,89)" d="M 496.333 1305.24 C 506.469 1308.25 525.198 1322.94 525.79 1334.32 C 526.154 1341.31 525.046 1344.74 522.301 1350.99 C 520.427 1353.16 521.48 1352.81 519.346 1353.13 C 515.396 1318.3 498.51 1325.77 496.333 1305.24 z"/>
<path transform="translate(0,0)" fill="rgb(42,49,89)" d="M 759.342 1340.91 C 768.52 1341.08 777.295 1351.85 795.772 1353.88 L 797.225 1354.03 L 798.276 1355.35 L 799.476 1354.67 L 799.477 1354.94 C 792.366 1359.06 770.56 1359.25 762.236 1359.43 C 755.268 1361.33 740.676 1356.06 733.978 1352.68 C 744.779 1351.86 762.23 1352.63 773.549 1352.82 C 767.844 1349.3 762.738 1346.73 759.342 1340.91 z"/>
<path transform="translate(0,0)" fill="rgb(42,49,89)" d="M 1163.65 956.886 C 1163.43 964.423 1132.7 1034.93 1127.3 1042.21 C 1127.34 1039.48 1131.14 1028.94 1132.18 1025.39 C 1140.96 995.626 1144.69 982.259 1163.65 956.886 z"/>
<path transform="translate(0,0)" fill="rgb(42,49,89)" d="M 695.212 1360.4 C 711.562 1365.77 712.644 1371.05 731.224 1370.2 L 733.753 1370.03 L 734.038 1371.42 C 739.756 1371.95 745.488 1372.3 751.227 1372.47 C 742.075 1375.6 736.311 1377.93 726.507 1378.09 C 719.509 1377.27 713.212 1378.63 705.921 1378.6 C 696.98 1378.58 689.573 1376.81 680.897 1375.02 C 683.206 1374.85 684.941 1374.75 687.231 1374.36 L 684.974 1372.86 C 685.081 1372.35 685.077 1371.8 685.294 1371.32 C 686.642 1368.36 706.193 1375.33 711.378 1373.14 C 709.995 1371.08 699.08 1363.74 695.212 1360.4 z"/>
<path transform="translate(0,0)" fill="rgb(49,53,88)" d="M 734.038 1371.42 C 739.756 1371.95 745.488 1372.3 751.227 1372.47 C 742.075 1375.6 736.311 1377.93 726.507 1378.09 C 726.543 1375.38 726.228 1376.63 727.875 1374.4 C 730.855 1373.48 731.729 1373.5 734.038 1371.42 z"/>
<path transform="translate(0,0)" fill="rgb(42,49,89)" d="M 595.527 1196.06 C 590.945 1196.17 587.156 1196.64 582.828 1195.27 L 582.943 1194 C 591.785 1185.96 606.477 1188.84 618.544 1187.32 L 616.731 1185.55 L 616.791 1184.47 L 619.719 1183.86 C 632.948 1184.4 625.906 1185.21 633.756 1188.88 C 636.899 1192.12 636.798 1191.01 637.206 1194.61 C 630.633 1200.08 610.564 1193.4 601.688 1192.73 C 598.989 1194.51 598.656 1194.75 595.527 1196.06 z"/>
<path transform="translate(0,0)" fill="rgb(42,49,89)" d="M 670.503 1315.94 C 669.359 1319.33 668.516 1322.45 667.577 1325.9 L 668.418 1326.99 L 671.254 1329.04 C 670.278 1331.01 667.339 1336.64 665.357 1337.52 C 647.858 1345.27 629.705 1352.76 611.494 1358.7 C 634.75 1345.43 652.657 1336.36 670.503 1315.94 z"/>
<path transform="translate(0,0)" fill="rgb(42,49,89)" d="M 478.194 1265.25 C 486.402 1264.4 504.354 1264.31 510.099 1271.18 L 510.217 1273.81 C 506.848 1276.44 491.74 1274.75 484.674 1275.49 C 482.812 1276.06 469.726 1277.41 466.964 1277.73 C 469.817 1273.95 474.12 1269.3 477.308 1265.64 L 478.194 1265.25 z"/>
<path transform="translate(0,0)" fill="rgb(49,53,88)" d="M 477.308 1265.64 L 478.194 1265.25 C 478.302 1268.85 481.544 1273.83 484.674 1275.49 C 482.812 1276.06 469.726 1277.41 466.964 1277.73 C 469.817 1273.95 474.12 1269.3 477.308 1265.64 z"/>
<path transform="translate(0,0)" fill="rgb(42,49,89)" d="M 463.262 1282.17 C 472.023 1281.64 480.914 1280.76 485.778 1289.06 C 484.557 1290.55 480.938 1289.89 477.983 1290.04 C 468.164 1290.54 459.512 1293.62 450.364 1296.92 C 444.42 1299.28 438.987 1302.61 433.406 1305.77 C 443.967 1293.71 448.742 1288.78 463.262 1282.17 z"/>
<path transform="translate(0,0)" fill="rgb(42,49,89)" d="M 727.094 1264.48 C 730.241 1255.81 727.502 1244.06 730.212 1234.93 C 730.841 1232.81 731.326 1227.93 731.686 1225.58 C 733.797 1224.4 732.966 1224.8 735.711 1224.79 C 739.205 1220.59 735.729 1212.7 738.104 1207.92 C 747.173 1215.74 734.185 1249.98 732.549 1261.09 C 732.343 1262.49 729.037 1266.7 727.934 1268.04 L 727.094 1264.48 z"/>
<path transform="translate(0,0)" fill="rgb(42,49,89)" d="M 731.224 1370.2 C 727.581 1368.51 718.931 1364.85 716.272 1362.49 C 718.047 1361.44 716.809 1361.75 718.512 1362.02 C 740.548 1365.41 744.135 1356.01 766.949 1365.43 C 760.325 1366.97 740.316 1370.18 733.753 1370.03 L 731.224 1370.2 z"/>
<path transform="translate(0,0)" fill="rgb(42,49,89)" d="M 858.849 1329.39 L 859.203 1330.08 C 842.417 1339.09 815.961 1343.02 798.322 1334.6 L 797.334 1332.85 L 798.052 1331.35 C 803.364 1330.91 810.013 1333.65 815.483 1334.23 C 829.854 1335.78 845.098 1332.77 858.849 1329.39 z"/>
<path transform="translate(0,0)" fill="rgb(42,49,89)" d="M 770.299 1337.9 C 792.496 1340.43 796.676 1342.87 820.95 1342.81 L 821.965 1345.98 C 802.045 1351.12 787.611 1349.08 770.299 1337.9 z"/>
<path transform="translate(0,0)" fill="rgb(42,49,89)" d="M 712.384 1264.72 C 720.871 1277.14 716.092 1290.02 709.454 1301.54 L 707.223 1301.53 L 706.519 1300 C 707.803 1290.57 708.56 1272.01 712.384 1264.72 z"/>
<path transform="translate(0,0)" fill="rgb(42,49,89)" d="M 619.719 1183.86 C 631.145 1182 637.036 1184.15 648.942 1180.32 C 652.628 1181.72 656.527 1182.68 658.925 1185.65 L 658.773 1187.45 C 652.795 1190.87 640.689 1189.36 633.756 1188.88 C 625.906 1185.21 632.948 1184.4 619.719 1183.86 z"/>
<path transform="translate(0,0)" fill="rgb(42,49,89)" d="M 727.934 1268.04 C 726.358 1274.38 725.34 1278.05 723.075 1284.18 L 721.975 1284.61 C 718.479 1279.6 719.165 1258.59 721.327 1252.84 L 722.785 1252.76 C 725.576 1256.44 725.978 1259.94 727.094 1264.48 L 727.934 1268.04 z"/>
<path transform="translate(0,0)" fill="rgb(42,49,89)" d="M 678.933 1173.56 L 695.89 1174.15 C 683.337 1176.15 673.522 1181.12 661.513 1181.76 L 660.331 1181.63 L 658.435 1181.39 C 655.367 1181.03 652.979 1181.26 650.774 1179.27 C 654.459 1175.28 672.874 1174.16 678.933 1173.56 z"/>
<path transform="translate(0,0)" fill="rgb(49,53,88)" d="M 680.897 1375.02 C 676.527 1375.01 672.508 1373.98 668.314 1372.9 L 668.066 1370.99 L 667.709 1371.02 C 673.803 1370.33 678.908 1371.73 684.974 1372.86 L 687.231 1374.36 C 684.941 1374.75 683.206 1374.85 680.897 1375.02 z"/>
<path transform="translate(0,0)" fill="rgb(49,53,88)" d="M 820.95 1342.81 C 824.503 1342.69 827.805 1342.16 830.938 1343.59 C 828.296 1345.53 825.439 1345.46 821.965 1345.98 L 820.95 1342.81 z"/>
<path transform="translate(0,0)" fill="rgb(255,255,255)" d="M 1348.42 89.3833 C 1359.96 90.5697 1357.09 108.363 1357.88 117.343 C 1358.74 126.103 1358.33 139.267 1360.93 147.531 C 1375.79 194.849 1398.15 233.333 1407.32 283.102 C 1411.01 303.478 1412.8 324.152 1412.68 344.859 C 1412.65 383.709 1402.13 441.389 1427.75 473.774 C 1436.44 484.755 1448.74 491.504 1462.7 492.746 C 1472.77 493.641 1482.51 491.177 1491.05 485.815 C 1524.66 464.736 1518.53 415.816 1530.68 407.045 C 1531.98 406.106 1532.37 406.6 1533.77 406.934 C 1541.04 415.005 1540.77 436.434 1543.27 448.451 L 1543.58 449.911 C 1547.46 449.336 1551.29 448.437 1555.02 447.225 C 1608.02 429.792 1619.61 356.671 1612.06 309.358 C 1605.62 269.08 1585.51 228.513 1602.93 188.7 C 1604.42 185.287 1606.96 183.479 1610.51 182.51 C 1618.38 187.343 1613.45 211.963 1616.64 225.235 C 1625.77 261.411 1645.15 288.539 1649.12 326.506 C 1654.54 370.74 1642.98 413.313 1640.11 457.359 C 1636.63 510.861 1670.13 542.171 1719.63 508.418 C 1777.06 469.255 1786.48 394.138 1794.33 330.552 C 1794.74 327.271 1796.22 325.774 1798.85 324.286 L 1801.05 325.184 C 1818.11 345.889 1801.18 408.807 1807.06 420.788 C 1808.32 423.363 1809.42 423.696 1812.01 424.462 C 1816.18 425.696 1820.57 424.86 1824.3 422.724 C 1859.88 402.37 1874.94 287.027 1886.27 247.252 C 1887.67 242.329 1888.12 240.749 1892.62 238.217 C 1905.32 238.24 1903.38 256.978 1902.62 266.027 C 1897.72 323.011 1879.74 382.055 1850.87 431.548 C 1716.88 661.017 1428.83 701.826 1214.05 821.695 C 1135.42 865.582 1068.93 912.13 1009.77 980.61 C 1003.04 988.397 988.523 1004.53 978.632 1007.15 C 972.743 1008.71 957.01 1001.09 954.092 995.48 C 943.406 980.236 965.166 976.432 967.496 964.157 C 968.162 951.536 947.854 951.531 939.648 949.95 C 863.964 940.402 780.726 914.839 723.493 861.981 C 661.784 801.839 652.575 731.735 644.029 650.146 C 641.114 622.311 638.198 596.518 639.374 568.358 C 658.619 589.482 661.973 627.226 669.329 654.747 C 674.266 672.637 679.944 690.314 686.347 707.734 C 713.72 782.066 753.895 833.017 827.184 867.643 C 835.122 871.393 862.308 883.059 871.884 879.294 C 873.297 879.542 875.864 874.359 875.538 873.777 C 860.608 847.129 843.251 820.804 832.266 792.094 C 828.942 783.406 826.474 768.561 824.229 759.165 C 809.42 697.178 809.064 633.572 812.442 570.297 C 813.236 555.352 815.009 529.537 818.331 515.195 L 818.676 513.734 C 826.4 505.965 828.166 504.277 834.673 495.353 C 835.762 542.517 832.973 589.935 835.642 637.053 C 839.667 708.134 860.344 798.878 909.203 852.694 C 928.613 874.073 956.771 896.442 987.019 897.364 C 1018.01 898.308 1134.45 814.263 1161.89 789.277 C 1192.32 761.578 1212.21 728.503 1218.39 687.406 C 1221.17 668.89 1220.76 649.72 1218.72 631.151 C 1215.43 601.185 1207.74 571.923 1200.63 542.699 C 1180.89 461.75 1155.87 382.178 1125.75 304.494 C 1116.04 279.435 1087.52 212.252 1089.12 189.539 C 1089.34 186.394 1089.76 183.818 1092.24 181.636 C 1101.61 182.026 1104.98 196.816 1107.63 204.147 C 1132.28 272.55 1173.01 334.246 1202.92 400.339 C 1223.58 445.934 1236.72 491.861 1246.95 540.933 C 1252.51 567.591 1257.24 628.633 1288.07 639.829 C 1318.64 649.357 1340.79 599.622 1348.37 577.742 C 1390.89 454.959 1389.36 313.912 1350.68 190.292 C 1342.33 163.602 1333.37 114.805 1348.42 89.3833 z"/>
<path transform="translate(0,0)" fill="rgb(255,255,255)" d="M 296.528 486.485 C 297.944 487.434 300.487 489.445 300.485 491.223 C 300.396 566.04 321.582 637.392 349.948 706.391 C 367.93 750.131 396.253 800.293 435.351 828.805 C 451.736 840.754 469.198 848.338 488.126 856.042 C 482.104 848.076 474.428 839.839 468.031 831.468 C 454.515 813.522 443.075 794.104 433.929 773.584 C 426.955 758.096 397.346 682.337 415.958 674.34 C 420.643 677.599 427.13 698.618 429.367 705.353 C 441.815 742.834 455.234 770.759 475.566 804.5 C 510.494 861.371 547.988 893.049 606.425 923.413 C 533.52 917.369 478.293 903.113 422.135 852.386 C 335.677 774.29 289.935 661.985 285.423 546.643 C 284.781 530.235 284.713 499.243 296.528 486.485 z"/>
<path transform="translate(0,0)" fill="rgb(255,255,255)" d="M 146.29 577.224 C 154.74 580.317 158.999 610.365 160.187 619.043 C 175.453 730.53 273.633 827.182 385.34 840.157 C 397.951 853.647 411.277 866.45 425.261 878.511 C 430.339 882.81 446.256 894.832 449.443 898.082 L 448.727 899.203 C 281.72 894.08 148.732 789.02 144.225 614.625 C 143.876 601.147 141.507 590.531 146.29 577.224 z"/>
<path transform="translate(0,0)" fill="rgb(255,255,255)" d="M 591.751 1393.38 C 608.983 1390.14 664.246 1396.18 652.347 1422.23 C 648.822 1429.95 600.281 1456.52 590.6 1464.26 C 545.123 1500.61 508.46 1557.2 444.554 1514.19 C 489.117 1484.58 516.126 1473.21 566.249 1456.44 C 570.876 1455 575.496 1453.54 580.109 1452.05 C 603.574 1444.46 625.408 1434.61 637.169 1411.58 C 622.647 1415.07 602.929 1421.75 588.097 1426 C 544.463 1438.52 479.894 1452.77 446.588 1484.35 C 450.191 1475.31 455.518 1463.55 461.789 1456.11 C 489.453 1423.33 550.75 1398.88 591.751 1393.38 z"/>
<path transform="translate(0,0)" fill="rgb(255,255,255)" d="M 803.807 723.02 C 805.761 725.675 807.084 740.239 807.853 744.502 C 815.443 786.57 826.886 826.15 850.733 862.049 C 837.164 858.37 824.616 851.809 812.524 844.832 C 782.031 827.565 768.524 814.38 745.65 789.055 C 758.28 763.245 780.685 739.864 803.807 723.02 z"/>
<path transform="translate(0,0)" fill="rgb(255,255,255)" d="M 442.966 582.724 C 446.077 587.264 452.019 608.534 453.666 615.117 C 469.691 679.167 526.696 706.077 530.126 775.912 C 514.976 759.102 496.478 728.349 484.833 708.689 C 471.725 686.56 435.913 606.75 442.966 582.724 z"/>
<path transform="translate(0,0)" fill="rgb(255,255,255)" d="M 1079.81 775.44 C 1084.8 777.911 1103.22 803.743 1107.55 809.587 C 1091.06 822.376 1072.13 834.46 1054.56 845.866 C 1048.4 850.054 1041.2 854.275 1034.79 858.209 C 1050.7 831.443 1064.08 800.739 1079.81 775.44 z"/>
<path transform="translate(0,0)" fill="rgb(255,255,255)" d="M 682.175 839.378 C 684.927 841.712 704.639 865.47 706.622 868.687 L 706.195 869.558 L 702.768 868.43 C 692.511 864.516 683.028 861.915 672.506 858.988 C 676.076 852.405 678.997 846.162 682.175 839.378 z"/>
<path transform="translate(0,0)" fill="rgb(42,49,89)" d="M 1035 1510.62 C 1037.33 1516.24 1040.73 1538.46 1042.43 1545.66 C 1047.59 1566.81 1053.82 1587.69 1061.1 1608.21 C 1060.14 1598.98 1058.02 1567.71 1065.41 1561.86 C 1067.1 1564.74 1067.39 1574.5 1067.59 1578.47 C 1068.81 1602.5 1072.47 1625 1077.58 1648.5 C 1080.83 1660.51 1084.36 1672.59 1087.76 1684.58 C 1068.52 1662.15 1070.78 1640.91 1057.85 1617.44 C 1042.68 1589.91 1026.24 1542.05 1035 1510.62 z"/>
<path transform="translate(0,0)" fill="rgb(42,49,89)" d="M 1017.37 1455.72 C 1019.85 1459.33 1016.16 1479.03 1017.32 1487.61 C 1020.1 1508.11 1024.38 1527.19 1028.84 1547.27 C 1030.64 1555.37 1038.86 1583.11 1038.37 1589.7 L 1036.43 1588.55 C 1016.96 1562.4 997.551 1484.83 1017.37 1455.72 z"/>
<path transform="translate(0,0)" fill="rgb(42,49,89)" d="M 1114.1 1635.5 L 1115.63 1637.11 C 1118.21 1647.16 1118.86 1658.92 1121.61 1669.12 C 1129.06 1696.81 1138.49 1726.79 1127.38 1755.26 L 1126.5 1754.36 C 1124.75 1747.41 1123.94 1724.92 1121.93 1714.34 C 1116.97 1688.23 1103.9 1661.26 1114.1 1635.5 z"/>
<path transform="translate(0,0)" fill="rgb(42,49,89)" d="M 1094.37 1603.7 C 1095.09 1606.74 1096.73 1623.79 1096.92 1627.61 C 1097.89 1647.1 1116.57 1703.69 1113.78 1718.5 L 1112.54 1718.47 C 1105.18 1702.03 1098.12 1684.78 1094.13 1667.15 C 1090.79 1652.39 1086.01 1616.96 1094.37 1603.7 z"/>
<path transform="translate(0,0)" fill="rgb(42,49,89)" d="M 1135.64 1694.58 C 1149.97 1710.76 1151.28 1752.82 1148.43 1773.32 C 1147.4 1773.11 1148.1 1773.33 1146.63 1772.07 C 1144.63 1758.6 1134.62 1704.2 1135.64 1694.58 z"/>
</svg>