<svg version="1.1" xmlns="http://www.w3.org/2000/svg" style="display: block;" viewBox="0 0 2048 2048" width="1024" height="1024" preserveAspectRatio="none" xmlns:c2pa="http://c2pa.org/manifest"><metadata><c2pa:manifest>AAAzs2p1bWIAAAAeanVtZGMycGEAEQAQgAAAqgA4m3EDYzJwYQAAADONanVtYgAAAEdqdW1kYzJtYQARABCAAACqADibcQN1cm46YzJwYTphNTQwNmEyYy1hMjZkLTQyZWMtYmZiNi01YTQ4ODk1MTFhMTcAAAAB4mp1bWIAAAApanVtZGMyYXMAEQAQgAAAqgA4m3EDYzJwYS5hc3NlcnRpb25zAAAAAO1qdW1iAAAAQWp1bWRjYm9yABEAEIAAAKoAOJtxE2MycGEuYWN0aW9ucy52MgAAAAAYYzJzaLwexhUlL/ZldqFBDctDCa4AAACkY2JvcqFnYWN0aW9uc4GjZmFjdGlvbmxjMnBhLmNyZWF0ZWRxZGlnaXRhbFNvdXJjZVR5cGV4Rmh0dHA6Ly9jdi5pcHRjLm9yZy9uZXdzY29kZXMvZGlnaXRhbHNvdXJjZXR5cGUvdHJhaW5lZEFsZ29yaXRobWljTWVkaWFrZGVzY3JpcHRpb252Q3JlYXRlZCBieSBSZWNyYWZ0IEFJLgAAAMRqdW1iAAAAQGp1bWRjYm9yABEAEIAAAKoAOJtxE2MycGEuaGFzaC5kYXRhAAAAABhjMnNojF2L4izR3a7eYuAlvBsucAAAAHxjYm9ypWpleGNsdXNpb25zgaJlc3RhcnQY22ZsZW5ndGgZRPBkbmFtZW5qdW1iZiBtYW5pZmVzdGNhbGdmc2hhMjU2ZGhhc2hYILedA3aiDLGusXwStAdF1UBCqpc0ArlsODzDZBDpoWGSY3BhZEkAAAAAAAAAAAAAAAI0anVtYgAAACdqdW1kYzJjbAARABCAAACqADibcQNjMnBhLmNsYWltLnYyAAAAAgVjYm9ypmppbnN0YW5jZUlEeCx4bXA6aWlkOmMxOWUyMGZiLTNmNGUtNDZkZC1hZTI1LTczOGU1MmU1MGIyZHRjbGFpbV9nZW5lcmF0b3JfaW5mb6NkbmFtZWpyZWNyYWZ0LmFpZ3ZlcnNpb254KDgxY2U4MmUyYzVjM2NiZmJlOGM2ZmJlMTc5ZDVmOGQ5MWM0MDljZTF3b3JnLmNvbnRlbnRhdXRoLmMycGFfcnNmMC45MC43aXNpZ25hdHVyZXhNc2VsZiNqdW1iZj0vYzJwYS91cm46YzJwYTphNTQwNmEyYy1hMjZkLTQyZWMtYmZiNi01YTQ4ODk1MTFhMTcvYzJwYS5zaWduYXR1cmVyY3JlYXRlZF9hc3NlcnRpb25zgqJjdXJseCpzZWxmI2p1bWJmPWMycGEuYXNzZXJ0aW9ucy9jMnBhLmFjdGlvbnMudjJkaGFzaFgg5VTcVp6Dy9LkNVPP6PE3i4VlPPlbPRQciIBUAQdcp72iY3VybHgpc2VsZiNqdW1iZj1jMnBhLmFzc2VydGlvbnMvYzJwYS5oYXNoLmRhdGFkaGFzaFggI3AC5jcfmAuagh9ICgNb0/kJcmkNTb4HJHi7rtmWQXBoZGM6dGl0bGV4GlJlY3JhZnQgQUkgR2VuZXJhdGVkIEltYWdlY2FsZ2ZzaGEyNTYAAC8oanVtYgAAAChqdW1kYzJjcwARABCAAACqADibcQNjMnBhLnNpZ25hdHVyZQAAAC74Y2JvctKEWQPsogEmGCGCWQH0MIIB8DCCAZWgAwIBAgIUJcFH1Va4pZJDhzepwEtzPPNj2YMwCgYIKoZIzj0EAwIwQTELMAkGA1UEBhMCVVMxEzARBgNVBAoMClJlY3JhZnQgQUkxHTAbBgNVBAMMFFJlY3JhZnQgQzJQQSBSb290IENBMB4XDTI2MDkxMDE2NTIzNFoXDTI3MDkxMDE2NTIzNFowNzELMAkGA1UEBhMCVVMxEzARBgNVBAoMClJlY3JhZnQgQUkxEzARBgNVBAMMCnJlY3JhZnQuYWkwWTATBgcqhkjOPQIBBggqhkjOPQMBBwNCAASoOPdqG3YmNRdGd+dltfh1ikcE/nkLm8YK10H29taFa8iegusHYB1678yl5Bs18hLaV/Fhd+Ni32xAlnHdbimFo3UwczAMBgNVHRMBAf8EAjAAMA4GA1UdDwEB/wQEAwIGwDATBgNVHSUEDDAKBggrBgEFBQcDBDAdBgNVHQ4EFgQUgVwhvbEXPSSgCubOfUHxCtuoVAQwHwYDVR0jBBgwFoAUc9yF+sfWlRHeWv2Iucaec5jwdAgwCgYIKoZIzj0EAwIDSQAwRgIhAJltDpQN+vbXITLxb+8BNwSL6/5WktO4Sevkb0VXjtfWAiEAqhoz7z/sN32NxdnnZsQVTeu3P7CgGtJdXFx283fp08RZAewwggHoMIIBjaADAgECAhQAydo/NKOQWWu/4V5FktVQHX7jTDAKBggqhkjOPQQDAjBBMQswCQYDVQQGEwJVUzETMBEGA1UECgwKUmVjcmFmdCBBSTEdMBsGA1UEAwwUUmVjcmFmdCBDMlBBIFJvb3QgQ0EwHhcNMjYwOTEwMTY1MjM0WhcNMzYwOTA3MTY1MjM0WjBBMQswCQYDVQQGEwJVUzETMBEGA1UECgwKUmVjcmFmdCBBSTEdMBsGA1UEAwwUUmVjcmFmdCBDMlBBIFJvb3QgQ0EwWTATBgcqhkjOPQIBBggqhkjOPQMBBwNCAAQbQ+eF6fkpnHhTwrMxSBLh/JhROWkzsC8L8jN1r1Rlf8oECvzEFk3WujloPtNs3PLADriqR5rGtd+8giFuiTLno2MwYTAfBgNVHSMEGDAWgBRz3IX6x9aVEd5a/Yi5xp5zmPB0CDAPBgNVHRMBAf8EBTADAQH/MA4GA1UdDwEB/wQEAwIBhjAdBgNVHQ4EFgQUc9yF+sfWlRHeWv2Iucaec5jwdAgwCgYIKoZIzj0EAwIDSQAwRgIhAND2Z+xryBRnMbxk8eAzMcAq8bzl0rfA9Y2z7q5QoEUeAiEA6ZbI3e47h5clRZaARSOOotKXsK/YQMWC3vj91d3bmlOhY3BhZFkqtAAAAAAAAAAAAAAAAAAAAAAAAAAAAAAAAAAAAAAAAAAAAAAAAAAAAAAAAAAAAAAAAAAAAAAAAAAAAAAAAAAAAAAAAAAAAAAAAAAAAAAAAAAAAAAAAAAAAAAAAAAAAAAAAAAAAAAAAAAAAAAAAAAAAAAAAAAAAAAAAAAAAAAAAAAAAAAAAAAAAAAAAAAAAAAAAAAAAAAAAAAAAAAAAAAAAAAAAAAAAAAAAAAAAAAAAAAAAAAAAAAAAAAAAAAAAAAAAAAAAAAAAAAAAAAAAAAAAAAAAAAAAAAAAAAAAAAAAAAAAAAAAAAAAAAAAAAAAAAAAAAAAAAAAAAAAAAAAAAAAAAAAAAAAAAAAAAAAAAAAAAAAAAAAAAAAAAAAAAAAAAAAAAAAAAAAAAAAAAAAAAAAAAAAAAAAAAAAAAAAAAAAAAAAAAAAAAAAAAAAAAAAAAAAAAAAAAAAAAAAAAAAAAAAAAAAAAAAAAAAAAAAAAAAAAAAAAAAAAAAAAAAAAAAAAAAAAAAAAAAAAAAAAAAAAAAAAAAAAAAAAAAAAAAAAAAAAAAAAAAAAAAAAAAAAAAAAAAAAAAAAAAAAAAAAAAAAAAAAAAAAAAAAAAAAAAAAAAAAAAAAAAAAAAAAAAAAAAAAAAAAAAAAAAAAAAAAAAAAAAAAAAAAAAAAAAAAAAAAAAAAAAAAAAAAAAAAAAAAAAAAAAAAAAAAAAAAAAAAAAAAAAAAAAAAAAAAAAAAAAAAAAAAAAAAAAAAAAAAAAAAAAAAAAAAAAAAAAAAAAAAAAAAAAAAAAAAAAAAAAAAAAAAAAAAAAAAAAAAAAAAAAAAAAAAAAAAAAAAAAAAAAAAAAAAAAAAAAAAAAAAAAAAAAAAAAAAAAAAAAAAAAAAAAAAAAAAAAAAAAAAAAAAAAAAAAAAAAAAAAAAAAAAAAAAAAAAAAAAAAAAAAAAAAAAAAAAAAAAAAAAAAAAAAAAAAAAAAAAAAAAAAAAAAAAAAAAAAAAAAAAAAAAAAAAAAAAAAAAAAAAAAAAAAAAAAAAAAAAAAAAAAAAAAAAAAAAAAAAAAAAAAAAAAAAAAAAAAAAAAAAAAAAAAAAAAAAAAAAAAAAAAAAAAAAAAAAAAAAAAAAAAAAAAAAAAAAAAAAAAAAAAAAAAAAAAAAAAAAAAAAAAAAAAAAAAAAAAAAAAAAAAAAAAAAAAAAAAAAAAAAAAAAAAAAAAAAAAAAAAAAAAAAAAAAAAAAAAAAAAAAAAAAAAAAAAAAAAAAAAAAAAAAAAAAAAAAAAAAAAAAAAAAAAAAAAAAAAAAAAAAAAAAAAAAAAAAAAAAAAAAAAAAAAAAAAAAAAAAAAAAAAAAAAAAAAAAAAAAAAAAAAAAAAAAAAAAAAAAAAAAAAAAAAAAAAAAAAAAAAAAAAAAAAAAAAAAAAAAAAAAAAAAAAAAAAAAAAAAAAAAAAAAAAAAAAAAAAAAAAAAAAAAAAAAAAAAAAAAAAAAAAAAAAAAAAAAAAAAAAAAAAAAAAAAAAAAAAAAAAAAAAAAAAAAAAAAAAAAAAAAAAAAAAAAAAAAAAAAAAAAAAAAAAAAAAAAAAAAAAAAAAAAAAAAAAAAAAAAAAAAAAAAAAAAAAAAAAAAAAAAAAAAAAAAAAAAAAAAAAAAAAAAAAAAAAAAAAAAAAAAAAAAAAAAAAAAAAAAAAAAAAAAAAAAAAAAAAAAAAAAAAAAAAAAAAAAAAAAAAAAAAAAAAAAAAAAAAAAAAAAAAAAAAAAAAAAAAAAAAAAAAAAAAAAAAAAAAAAAAAAAAAAAAAAAAAAAAAAAAAAAAAAAAAAAAAAAAAAAAAAAAAAAAAAAAAAAAAAAAAAAAAAAAAAAAAAAAAAAAAAAAAAAAAAAAAAAAAAAAAAAAAAAAAAAAAAAAAAAAAAAAAAAAAAAAAAAAAAAAAAAAAAAAAAAAAAAAAAAAAAAAAAAAAAAAAAAAAAAAAAAAAAAAAAAAAAAAAAAAAAAAAAAAAAAAAAAAAAAAAAAAAAAAAAAAAAAAAAAAAAAAAAAAAAAAAAAAAAAAAAAAAAAAAAAAAAAAAAAAAAAAAAAAAAAAAAAAAAAAAAAAAAAAAAAAAAAAAAAAAAAAAAAAAAAAAAAAAAAAAAAAAAAAAAAAAAAAAAAAAAAAAAAAAAAAAAAAAAAAAAAAAAAAAAAAAAAAAAAAAAAAAAAAAAAAAAAAAAAAAAAAAAAAAAAAAAAAAAAAAAAAAAAAAAAAAAAAAAAAAAAAAAAAAAAAAAAAAAAAAAAAAAAAAAAAAAAAAAAAAAAAAAAAAAAAAAAAAAAAAAAAAAAAAAAAAAAAAAAAAAAAAAAAAAAAAAAAAAAAAAAAAAAAAAAAAAAAAAAAAAAAAAAAAAAAAAAAAAAAAAAAAAAAAAAAAAAAAAAAAAAAAAAAAAAAAAAAAAAAAAAAAAAAAAAAAAAAAAAAAAAAAAAAAAAAAAAAAAAAAAAAAAAAAAAAAAAAAAAAAAAAAAAAAAAAAAAAAAAAAAAAAAAAAAAAAAAAAAAAAAAAAAAAAAAAAAAAAAAAAAAAAAAAAAAAAAAAAAAAAAAAAAAAAAAAAAAAAAAAAAAAAAAAAAAAAAAAAAAAAAAAAAAAAAAAAAAAAAAAAAAAAAAAAAAAAAAAAAAAAAAAAAAAAAAAAAAAAAAAAAAAAAAAAAAAAAAAAAAAAAAAAAAAAAAAAAAAAAAAAAAAAAAAAAAAAAAAAAAAAAAAAAAAAAAAAAAAAAAAAAAAAAAAAAAAAAAAAAAAAAAAAAAAAAAAAAAAAAAAAAAAAAAAAAAAAAAAAAAAAAAAAAAAAAAAAAAAAAAAAAAAAAAAAAAAAAAAAAAAAAAAAAAAAAAAAAAAAAAAAAAAAAAAAAAAAAAAAAAAAAAAAAAAAAAAAAAAAAAAAAAAAAAAAAAAAAAAAAAAAAAAAAAAAAAAAAAAAAAAAAAAAAAAAAAAAAAAAAAAAAAAAAAAAAAAAAAAAAAAAAAAAAAAAAAAAAAAAAAAAAAAAAAAAAAAAAAAAAAAAAAAAAAAAAAAAAAAAAAAAAAAAAAAAAAAAAAAAAAAAAAAAAAAAAAAAAAAAAAAAAAAAAAAAAAAAAAAAAAAAAAAAAAAAAAAAAAAAAAAAAAAAAAAAAAAAAAAAAAAAAAAAAAAAAAAAAAAAAAAAAAAAAAAAAAAAAAAAAAAAAAAAAAAAAAAAAAAAAAAAAAAAAAAAAAAAAAAAAAAAAAAAAAAAAAAAAAAAAAAAAAAAAAAAAAAAAAAAAAAAAAAAAAAAAAAAAAAAAAAAAAAAAAAAAAAAAAAAAAAAAAAAAAAAAAAAAAAAAAAAAAAAAAAAAAAAAAAAAAAAAAAAAAAAAAAAAAAAAAAAAAAAAAAAAAAAAAAAAAAAAAAAAAAAAAAAAAAAAAAAAAAAAAAAAAAAAAAAAAAAAAAAAAAAAAAAAAAAAAAAAAAAAAAAAAAAAAAAAAAAAAAAAAAAAAAAAAAAAAAAAAAAAAAAAAAAAAAAAAAAAAAAAAAAAAAAAAAAAAAAAAAAAAAAAAAAAAAAAAAAAAAAAAAAAAAAAAAAAAAAAAAAAAAAAAAAAAAAAAAAAAAAAAAAAAAAAAAAAAAAAAAAAAAAAAAAAAAAAAAAAAAAAAAAAAAAAAAAAAAAAAAAAAAAAAAAAAAAAAAAAAAAAAAAAAAAAAAAAAAAAAAAAAAAAAAAAAAAAAAAAAAAAAAAAAAAAAAAAAAAAAAAAAAAAAAAAAAAAAAAAAAAAAAAAAAAAAAAAAAAAAAAAAAAAAAAAAAAAAAAAAAAAAAAAAAAAAAAAAAAAAAAAAAAAAAAAAAAAAAAAAAAAAAAAAAAAAAAAAAAAAAAAAAAAAAAAAAAAAAAAAAAAAAAAAAAAAAAAAAAAAAAAAAAAAAAAAAAAAAAAAAAAAAAAAAAAAAAAAAAAAAAAAAAAAAAAAAAAAAAAAAAAAAAAAAAAAAAAAAAAAAAAAAAAAAAAAAAAAAAAAAAAAAAAAAAAAAAAAAAAAAAAAAAAAAAAAAAAAAAAAAAAAAAAAAAAAAAAAAAAAAAAAAAAAAAAAAAAAAAAAAAAAAAAAAAAAAAAAAAAAAAAAAAAAAAAAAAAAAAAAAAAAAAAAAAAAAAAAAAAAAAAAAAAAAAAAAAAAAAAAAAAAAAAAAAAAAAAAAAAAAAAAAAAAAAAAAAAAAAAAAAAAAAAAAAAAAAAAAAAAAAAAAAAAAAAAAAAAAAAAAAAAAAAAAAAAAAAAAAAAAAAAAAAAAAAAAAAAAAAAAAAAAAAAAAAAAAAAAAAAAAAAAAAAAAAAAAAAAAAAAAAAAAAAAAAAAAAAAAAAAAAAAAAAAAAAAAAAAAAAAAAAAAAAAAAAAAAAAAAAAAAAAAAAAAAAAAAAAAAAAAAAAAAAAAAAAAAAAAAAAAAAAAAAAAAAAAAAAAAAAAAAAAAAAAAAAAAAAAAAAAAAAAAAAAAAAAAAAAAAAAAAAAAAAAAAAAAAAAAAAAAAAAAAAAAAAAAAAAAAAAAAAAAAAAAAAAAAAAAAAAAAAAAAAAAAAAAAAAAAAAAAAAAAAAAAAAAAAAAAAAAAAAAAAAAAAAAAAAAAAAAAAAAAAAAAAAAAAAAAAAAAAAAAAAAAAAAAAAAAAAAAAAAAAAAAAAAAAAAAAAAAAAAAAAAAAAAAAAAAAAAAAAAAAAAAAAAAAAAAAAAAAAAAAAAAAAAAAAAAAAAAAAAAAAAAAAAAAAAAAAAAAAAAAAAAAAAAAAAAAAAAAAAAAAAAAAAAAAAAAAAAAAAAAAAAAAAAAAAAAAAAAAAAAAAAAAAAAAAAAAAAAAAAAAAAAAAAAAAAAAAAAAAAAAAAAAAAAAAAAAAAAAAAAAAAAAAAAAAAAAAAAAAAAAAAAAAAAAAAAAAAAAAAAAAAAAAAAAAAAAAAAAAAAAAAAAAAAAAAAAAAAAAAAAAAAAAAAAAAAAAAAAAAAAAAAAAAAAAAAAAAAAAAAAAAAAAAAAAAAAAAAAAAAAAAAAAAAAAAAAAAAAAAAAAAAAAAAAAAAAAAAAAAAAAAAAAAAAAAAAAAAAAAAAAAAAAAAAAAAAAAAAAAAAAAAAAAAAAAAAAAAAAAAAAAAAAAAAAAAAAAAAAAAAAAAAAAAAAAAAAAAAAAAAAAAAAAAAAAAAAAAAAAAAAAAAAAAAAAAAAAAAAAAAAAAAAAAAAAAAAAAAAAAAAAAAAAAAAAAAAAAAAAAAAAAAAAAAAAAAAAAAAAAAAAAAAAAAAAAAAAAAAAAAAAAAAAAAAAAAAAAAAAAAAAAAAAAAAAAAAAAAAAAAAAAAAAAAAAAAAAAAAAAAAAAAAAAAAAAAAAAAAAAAAAAAAAAAAAAAAAAAAAAAAAAAAAAAAAAAAAAAAAAAAAAAAAAAAAAAAAAAAAAAAAAAAAAAAAAAAAAAAAAAAAAAAAAAAAAAAAAAAAAAAAAAAAAAAAAAAAAAAAAAAAAAAAAAAAAAAAAAAAAAAAAAAAAAAAAAAAAAAAAAAAAAAAAAAAAAAAAAAAAAAAAAAAAAAAAAAAAAAAAAAAAAAAAAAAAAAAAAAAAAAAAAAAAAAAAAAAAAAAAAAAAAAAAAAAAAAAAAAAAAAAAAAAAAAAAAAAAAAAAAAAAAAAAAAAAAAAAAAAAAAAAAAAAAAAAAAAAAAAAAAAAAAAAAAAAAAAAAAAAAAAAAAAAAAAAAAAAAAAAAAAAAAAAAAAAAAAAAAAAAAAAAAAAAAAAAAAAAAAAAAAAAAAAAAAAAAAAAAAAAAAAAAAAAAAAAAAAAAAAAAAAAAAAAAAAAAAAAAAAAAAAAAAAAAAAAAAAAAAAAAAAAAAAAAAAAAAAAAAAAAAAAAAAAAAAAAAAAAAAAAAAAAAAAAAAAAAAAAAAAAAAAAAAAAAAAAAAAAAAAAAAAAAAAAAAAAAAAAAAAAAAAAAAAAAAAAAAAAAAAAAAAAAAAAAAAAAAAAAAAAAAAAAAAAAAAAAAAAAAAAAAAAAAAAAAAAAAAAAAAAAAAAAAAAAAAAAAAAAAAAAAAAAAAAAAAAAAAAAAAAAAAAAAAAAAAAAAAAAAAAAAAAAAAAAAAAAAAAAAAAAAAAAAAAAAAAAAAAAAAAAAAAAAAAAAAAAAAAAAAAAAAAAAAAAAAAAAAAAAAAAAAAAAAAAAAAAAAAAAAAAAAAAAAAAAAAAAAAAAAAAAAAAAAAAAAAAAAAAAAAAAAAAAAAAAAAAAAAAAAAAAAAAAAAAAAAAAAAAAAAAAAAAAAAAAAAAAAAAAAAAAAAAAAAAAAAAAAAAAAAAAAAAAAAAAAAAAAAAAAAAAAAAAAAAAAAAAAAAAAAAAAAAAAAAAAAAAAAAAAAAAAAAAAAAAAAAAAAAAAAAAAAAAAAAAAAAAAAAAAAAAAAAAAAAAAAAAAAAAAAAAAAAAAAAAAAAAAAAAAAAAAAAAAAAAAAAAAAAAAAAAAAAAAAAAAAAAAAAAAAAAAAAAAAAAAAAAAAAAAAAAAAAAAAAAAAAAAAAAAAAAAAAAAAAAAAAAAAAAAAAAAAAAAAAAAAAAAAAAAAAAAAAAAAAAAAAAAAAAAAAAAAAAAAAAAAAAAAAAAAAAAAAAAAAAAAAAAAAAAAAAAAAAAAAAAAAAAAAAAAAAAAAAAAAAAAAAAAAAAAAAAAAAAAAAAAAAAAAAAAAAAAAAAAAAAAAAAAAAAAAAAAAAAAAAAAAAAAAAAAAAAAAAAAAAAAAAAAAAAAAAAAAAAAAAAAAAAAAAAAAAAAAAAAAAAAAAAAAAAAAAAAAAAAAAAAAAAAAAAAAAAAAAAAAAAAAAAAAAAAAAAAAAAAAAAAAAAAAAAAAAAAAAAAAAAAAAAAAAAAAAAAAAAAAAAAAAAAAAAAAAAAAAAAAAAAAAAAAAAAAAAAAAAAAAAAAAAAAAAAAAAAAAAAAAAAAAAAAAAAAAAAAAAAAAAAAAAAAAAAAAAAAAAAAAAAAAAAAAAAAAAAAAAAAAAAAAAAAAAAAAAAAAAAAAAAAAAAAAAAAAAAAAAAAAAAAAAAAAAAAAAAAAAAAAAAAAAAAAAAAAAAAAAAAAAAAAAAAAAAAAAAAAAAAAAAAAAAAAAAAAAAAAAAAAAAAAAAAAAAAAAAAAAAAAAAAAAAAAAAAAAAAAAAAAAAAAAAAAAAAAAAAAAAAAAAAAAAAAAAAAAAAAAAAAAAAAAAAAAAAAAAAAAAAAAAAAAAAAAAAAAAAAAAAAAAAAAAAAAAAAAAAAAAAAAAAAAAAAAAAAAAAAAAAAAAAAAAAAAAAAAAAAAAAAAAAAAAAAAAAAAAAAAAAAAAAAAAAAAAAAAAAAAAAAAAAAAAAAAAAAAAAAAAAAAAAAAAAAAAAAAAAAAAAAAAAAAAAAAAAAAAAAAAAAAAAAAAAAAAAAAAAAAAAAAAAAAAAAAAAAAAAAAAAAAAAAAAAAAAAAAAAAAAAAAAAAAAAAAAAAAAAAAAAAAAAAAAAAAAAAAAAAAAAAAAAAAAAAAAAAAAAAAAAAAAAAAAAAAAAAAAAAAAAAAAAAAAAAAAAAAAAAAAAAAAAAAAAAAAAAAAAAAAAAAAAAAAAAAAAAAAAAAAAAAAAAAAAAAAAAAAAAAAAAAAAAAAAAAAAAAAAAAAAAAAAAAAAAAAAAAAAAAAAAAAAAAAAAAAAAAAAAAAAAAAAAAAAAAAAAAAAAAAAAAAAAAAAAAAAAAAAAAAAAAAAAAAAAAAAAAAAAAAAAAAAAAAAAAAAAAAAAAAAAAAAAAAAAAAAAAAAAAAAAAAAAAAAAAAAAAAAAAAAAAAAAAAAAAAAAAAAAAAAAAAAAAAAAAAAAAAAAAAAAAAAAAAAAAAAAAAAAAAAAAAAAAAAAAAAAAAAAAAAAAAAAAAAAAAAAAAAAAAAAAAAAAAAAAAAAAAAAAAAAAAAAAAAAAAAAAAAAAAAAAAAAAAAAAAAAAAAAAAAAAAAAAAAAAAAAAAAAAAAAAAAAAAAAAAAAAAAAAAAAAAAAAAAAAAAAAAAAAAAAAAAAAAAAAAAAAAAAAAAAAAAAAAAAAAAAAAAAAAAAAAAAAAAAAAAAAAAAAAAAAAAAAAAAAAAAAAAAAAAAAAAAAAAAAAAAAAAAAAAAAAAAAAAAAAAAAAAAAAAAAAAAAAAAAAAAAAAAAAAAAAAAAAAAAAAAAAAAAAAAAAAAAAAAAAAAAAAAAAAAAAAAAAAAAAAAAAAAAAAAAAAAAAAAAAAAAAAAAAAAAAAAAAAAAAAAAAAAAAAAAAAAAAAAAAAAAAAAAAAAAAAAAAAAAAAAAAAAAAAAAAAAAAAAAAAAAAAAAAAAAAAAAAAAAAAAAAAAAAAAAAAAAAAAAAAAAAAAAAAAAAAAAAAAAAAAAAAAAAAAAAAAAAAAAAAAAAAAAAAAAAAAAAAAAAAAAAAAAAAAAAAAAAAAAAAAAAAAAAAAAAAAAAAAAAAAAAAAAAAAAAAAAAAAAAAAAAAAAAAAAAAAAAAAAAAAAAAAAAAAAAAAAAAAAAAAAAAAAAAAAAAAAAAAAAAAAAAAAAAAAAAAAAAAAAAAAAAAAAAAAAAAAAAAAAAAAAAAAAAAAAAAAAAAAAAAAAAAAAAAAAAAAAAAAAAAAAAAAAAAAAAAAAAAAAAAAAAAAAAAAAAAAAAAAAAAAAAAAAAAAAAAAAAAAAAAAAAAAAAAAAAAAAAAAAAAAAAAAAAAAAAAAAAAAAAAAAAAAAAAAAAAAAAAAAAAAAAAAAAAAAAAAAAAAAAAAAAAAAAAAAAAAAAAAAAAAAAAAAAAAAAAAAAAAAAAAAAAAAAAAAAAAAAAAAAAAAAAAAAAAAAAAAAAAAAAAAAAAAAAAAAAAAAAAAAAAAAAAAAAAAAAAAAAAAAAAAAAAAAAAAAAAAAAAAAAAAAAAAAAAAAAAAAAAAAAAAAAAAAAAAAAAAAAAAAAAAAAAAAAAAAAAAAAAAAAAAAAAAAAAAAAAAAAAAAAAAAAAAAAAAAAAAAAAAAAAAAAAAAAAAAAAAAAAAAAAAAAAAAAAAAAAAAAAAAAAAAAAAAAAAAAAAAAAAAAAAAAAAAAAAAAAAAAAAAAAAAAAAAAAAAAAAAAAAAAAAAAAAAAAAAAAAAAAAAAAAAAAAAAAAAAAAAAAAAAAAAAAAAAAAAAAAAAAAAAAAAAAAAAAAAAAAAAAAAAAAAAAAAAAAAAAAAAAAAAAAAAAAAAAAAAAAAAAAAAAAAAAAAAAAAAAAAAAAAAAAAAAAAAAAAAAAAAAAAAAAAAAAAAAAAAAAAAAAAAAAAAAAAAAAAAAAAAAAAAAAAAAAAAAAAAAAAAAAAAAAAAAAAAAAAAAAAAAAAAAAAAAAAAAAAAAAAAAAAAAAAAAAAAAAAAAAAAAAAAAAAAAAAAAAAAAAAAAAAAAAAAAAAAAAAAAAAAAAAAAAAAAAAAAAAAAAAAAAAAAAAAAAAAAAAAAAAAAAAAAAAAAAAAAAAAAAAAAAAAAAAAAAAAAAAAAAAAAAAAAAAAAAAAAAAAAAAAAAAAAAAAAAAAAAAAAAAAAAAAAAAAAAAAAAAAAAAAAAAAAAAAAAAAAAAAAAAAAAAAAAAAAAAAAAAAAAAAAAAAAAAAAAAAAAAAAAAAAAAAAAAAAAAAAAAAAAAAAAAAAAAAAAAAAAAAAAAAAAAAAAAAAAAAAAAAAAAAAAAAAAAAAAAAAAAAAAAAAAAAAAAAAAAAAAAAAAAAAAAAAAAAAAAAAAAAAAAAAAAAAAAAAAAAAAAAAAAAAAAAAAAAAAAAAAAAAAAAAAAAAAAAAAAAAAAAAAAAAAAAAAAAAAAAAAAAAAAAAAAAAAAAAAAAAAAAAAAAAAAAAAAAAAAAAAAAAAAAAAAAAAAAAAAAAAAAAAAAAAAAAAAAAAAAAAAAAAAAAAAAAAAAAAAAAAAAAAAAAAAAAAAAAAAAAAAAAAAAAAAAAAAAAAAAAAAAAAAAAAAAAAAAAAAAAAAAAAAAAAAAAAAAAAAAAAAAAAAAAAAAAAAAAAAAAAAAAAAAAAAAAAAAAAAAAAAAAAAAAAAAAAAAAAAAAAAAAAAAAAAAAAAAAAAAAAAAAAAAAAAAAAAAAAAAAAAAAAAAAAAAAAAAAAAAAAAAAAAAAAAAAAAAAAAAAAAAAAAAAAAAAAAAAAAAAAAAAAAAAAAAAAAAAAAAAAAAAAAAAAAAAAAAAAAAAAAAAAAAAAAAAAAAAAAAAAAAAAAAAAAAAAAAAAAAAAAAAAAAAAAAAAAAAAAAAAAAAAAAAAAAAAAAAAAAAAAAAAAAAAAAAAAAAAAAAAAAAAAAAAAAAAAAAAAAAAAAAAAAAAAAAAAAAAAAAAAAAAAAAAAAAAAAAAAAAAAAAAAAAAAAAAAAAAAAAAAAAAAAAAAAAAAAAAAAAAAAAAAAAAAAAAAAAAAAAAAAAAAAAAAAAAAAAAAAAAAAAAAAAAAAAAAAAAAAAAAAAAAAAAAAAAAAAAAAAAAAAAAAAAAAAAAAAAAAAAAAAAAAAAAAAAAAAAAAAAAAAAAAAAAAAAAAAAAAAAAAAAAAAAAAAAAAAAAAAAAAAAAAAAAAAAAAAAAAAAAAAAAAAAAAAAAAAAAAAAAAAAAAAAAAAAAAAAAAAAAAAAAAAAAAAAAAAAAAAAAAAAAAAAAAAAAAAAAAAAAAAAAAAAAAAAAAAAAAAAAAAAAAAAAAAAAAAAAAAAAAAAAAAAAAAAAAAAAAAAAAAAAAAAAAAAAAAAAAAAAAAAAAAAAAAAAAAAAAAAAAAAAAAAAAAAAAAAAAAAAAAAAAAAAAAAAAAAAAAAAAAAAAAAAAAAAAAAAAAAAAAAAAAAAAAAAAAAAAAAAAAAAAAAAAAAAAAAAAAAAAAAAAAAAAAAAAAAAAAAAAAAAAAAAAAAAAAAAAAAAAAAAAAAAAAAAAAAAAAAAAAAAAAAAAAAAAAAAAAAAAAAAAAAAAAAAAAAAAAAAAAAAAAAAAAAAAAAAAAAAAAAAAAAAAAAAAAAAAAAAAAAAAAAAAAAAAAAAAAAAAAAAAAAAAAAAAAAAAAAAAAAAAAAAAAAAAAAAAAAAAAAAAAAAAAAAAAAAAAAAAAAAAAAAAAAAAAAAAAAAAAAAAAAAAAAAAAAAAAAAAAAAAAAAAAAAAAAAAAAAAAAAAAAAAAAAAAAAAAAAAAAAAAAAAAAAAAAAAAAAAAAAAAAAAAAAAAAAAAAAAAAAAAAAAAAAAAAAAAAAAAAAAAAAAAAAAAAAAAAAAAAAAAAAAAAAAAAAAAAAAAAAAAAAAAAAAAAAAAAAAAAAAAAAAAAAAAAAAAAAAAAAAAAAAAAAAAAAAAAAAAAAAAAAAAAAAAAAAAAAAAAAAAAAAAAAAAAAAAAAAAAAAAAAAAAAAAAAAAAAAAAAAAAAAAAAAAAAAAAAAAAAAAAAAAAAAAAAAAAAAAAAAAAAAAAAAAAAAAAAAAAAAAAAAAAAAAAAAAAAAAAAAAAAAAAAAAAAAAAAAAAAAAAAAAAAAAAAAAAAAAAAAAAAAAAAAAAAAAAAAAAAAAAAAAAAAAAAAAAAAAAAAAAAAAAAAAAAAAAAAAAAAAAAAAAAAAAAAAAAAAAAAAAAAAAAAAAAAAAAAAAAAAAAAAAAAAAAAAAAAAAAAAAAAAAAAAAAAAAAAAAAAAAAAAAAAAAAAAAAAAAAAAAAAAAAAAAAAAAAAAAAAAAAAAAAAAAAAAAAAAAAAAAAAAAAAAAAAAAAAAAAAAAAAAAAAAAAAAAAAAAAAAAAAAAAAAAAAAAAAAAAAAAAAAAAAAAAAAAAAAAAAAAAAAAAAAAAAAAAAAAAAAAAAAAAAAAAAAAAAAAAAAAAAAAAAAAAAAAAAAAAAAAAAAAAAAAAAAAAAAAAAAAAAAAAAAAAAAAAAAAAAAAAAAAAAAAAAAAAAAAAAAAAAAAAAAAAAAAAAAAAAAAAAAAAAAAAAAAAAAAAAAAAAAAAAAAAAAAAAAAAAAAAAAAAAAAAAAAAAAAAAAAAAAAAAAAAAAAAAAAAAAAAAAAAAAAAAAAAAAAAAAAAAAAAAAAAAAAAAAAAAAAAAAAAAAAAAAAAAAAAAAAAAAAAAAAAAAAAAAAAAAAAAAAAAAAAAAAAAAAAAAAAAAAAAAAAAAAAAAAAAAAAAAAAAAAAAAAAAAAAAAAAAAAAAAAAAAAAAAAAAAAAAAAAAAAAAAAAAAAAAAAAAAAAAAAAAAAAAAAAAAAAAAAAAAAAAAAAAAAAAAAAAAAAAAAAAAAAAAAAAAAAAAAAAAAAAAAAAAAAAAAAAAAAAAAAAAAAAAAAAAAAAAAAAAAAAAAAAAAAAAAAAAAAAAAAAAAAAAAAAAAAAAAAAAAAAAAAAAAAAAAAAAAAAAAAAAAAAAAAAAAAAAAAAAAAAAAAAAAAAAAAAAAAAAAAAAAAAAAAAAAAAAAAAAAAAAAAAAAAAAAAAAAAAAAAAAAAAAAAAAAAAAAAAAAAAAAAAAAAAAAAAAAAAAAAAAAAAAAAAAAAAAAAAAAAAAAAAAAAAAAAAAAAAAAAAAAAAAAAAAAAAAAAAAAAAAAAAAAAAAAAAAAAAAAAAAAAAAAAAAAAAAAAAAAAAAAAAAAAAAAAAAAAAAAAAAAAAAAAAAAAAAAAAAAAAAAAAAAAAAAAAAAAAAAAAAAAAAAAAAAAAAAAAAAAAAAAAAAAAAAAAAAAAAAAAAAAAAAAAAAAAAAAAAAAAAAAAAAAAAAAAAAAAAAAAAAAAAAAAAAAAAAAAAAAAAAAAAAAAAAAAAAAAAAAAAAAAAAAAAAAAAAAAAAAAAAAAAAAAAAAAAAAAAAAAAAAAAAAAAAAAAAAAAAAAAAAAAAAAAAAAAAAAAAAAAAAAAAAAAAAAAAAAAAAAAAAAAAAAAAAAAAAAAAAAAAAAAAAAAAAAAAAAAAAAAAAAAAAAAAAAAAAAAAAAAAAAAAAAAAAAAAAAAAAAAAAAAAAAAAAAAAAAAAAAAAAAAAAAAAAAAAAAAAAAAAAAAAAAAAAAAAAAAAAAAAAAAAAAAAAAAAAAAAAAAAAAAAAAAAAAAAAAAAAAAAAAAAAAAAAAAAAAAAAAAAAAAAAAAAAAAAAAAAAAAAAAAAAAAAAAAAAAAAAAAAAAAAAAAAAAAAAAAAAAAAAAAAAAAAAAAAAAAAAAAAAAAAAAAAAAAAAAAAAAAAAAAAAAAAAAAAAAAAAAAAAAAAAAAAAAAAAAAAAAAAAAAAAAAAAAAAAAAAAAAAAAAAAAAAAAAAAAAAAAAAAAAAAAAAAAAAAAAAAAAAAAAAAAAAAAAAAAAAAAAAAAAAAAAAAAAAAAAAAAAAAAAAAAAAAAAAAAAAAAAAAAAAAAAAAAAAAAAAAAAAAAAAAAAAAAAAAAAAAAAAAAAAAAAAAAAAAAAAAAAAAAAAAAAAAAAAAAAAAAAAAAAAAAAAAAAAAAAAAAAAAAAAAAAAAAAAAAAAAAAAAAAAAAAAAAAAAAAAAAAAAAAAAAAAAAAAAAAAAAAAAAAAAAAAAAAAAAAAAAAAAAAAAAAAAAAAAAAAAAAAAAAAAAAAAAAAAAAAAAAAAAAAAAAAAAAAAAAAAAAAAAAAAAAAAAAAAAAAAAAAAAAAAAAAAAAAAAAAAAAAAAAAAAAAAAAAAAAAAAAAAAAAAAAAAAAAAAAAAAAAAAAAAAAAAAAAAAAAAAAAAAAAAAAAAAAAAAAAAAAAAAAAAAAAAAAAAAAAAAAAAAAAAAAAAAAAAAAAAAAAAAAAAAAAAAAAAAAAAAAAAAAAAAAAAAAAAAAAAAAAAAAAAAAAAAAAAAAAAAAAAAAAAAAAAAAAAAAAAAAAAAAAAAAAAAAAAAAAAAAAAAAAAAAAAAAAAAAAAAAAAAAAAAAAAAAAAAAAAAAAAAAAAAAAAAAAAAAAAAAAAAAAAAAAAAAAAAAAAAAAAAAAAAAAAAAAAAAAAAAAAAAAAAAAAAAAAAAAAAAAAAAAAAAAAAAAAAAAAAAAAAAAAAAAAAAAAAAAAAAAAAAAAAAAAAAAAAAAAAAAAAAAAAAAAAAAAAAAAAAAAAAAAAAAAAAAAAAAAAAAAAAAAAAAAAAAAAAAAAAAAAAAAAAAAAAAAAAAAAAAAAAAAAAAAAAAAAAAAAAAAAAAAAAAAAAAAAAAAAAAAAAAAAAAAAAAAAAAAAAAAAAAAAAAAAAAAAAAAAAAAAAAAAAAAAAAAAAAAAAAAAAAAAAAAAAAAAAAAAAAAAAAAAAAAAAAAAAAAAAAAAAAAAAAAAAAAAAAAAAAAAAAAAAAAAAAAAAAAAAAAAAAAAAAAAAAAAAAAAAAAAAAAAAAAAAAAAAAAAAAAAAAAAAAAAAAAAAAAAAAAAAAAAAAAAAAAAAAAAAAAAAAAAAAAAAAAAAAAAAAAAAAAAAAAAAAAAAAAAAAAAAAAAAAAAAAAAAAAAAAAAAAAAAAAAAAAAAAAAAAAAAAAAAAAAAAAAAAAAAAAAAAAAAAAAAAAAAAAAAAAAAAAAAAAAAAAAAAAAAAAAAAAAAAAAAAAAAAAAAAAAAAAAAAAAAAAAAAAAAAAAAAAAAAAAAAAAAAAAAAAAAAAAAAAAAAAAAAAAAAAAAAAAAAAAAAAAAAAAAAAAAAAAAAAAAAAAAAAAAAAAAAAAAAAAAAAAAAAAAAAAAAAAAAAAPZYQBws3YeTQGEfkMWBzfEr13grdcH4/X59MMwkZvih4/uUug3iC5ZZTbRjhoaYqKnSnjRlgSo2wpTzjh+OpiIdInI=</c2pa:manifest></metadata>
<defs>
	<linearGradient id="Gradient1" gradientUnits="userSpaceOnUse" x1="1215.39" y1="968.947" x2="1199" y2="948.541">
		<stop class="stop0" offset="0" stop-opacity="1" stop-color="rgb(26,17,30)"/>
		<stop class="stop1" offset="1" stop-opacity="1" stop-color="rgb(54,59,51)"/>
	</linearGradient>
	<linearGradient id="Gradient2" gradientUnits="userSpaceOnUse" x1="1470.67" y1="570.664" x2="1450.94" y2="632.127">
		<stop class="stop0" offset="0" stop-opacity="1" stop-color="rgb(45,43,38)"/>
		<stop class="stop1" offset="1" stop-opacity="1" stop-color="rgb(61,59,65)"/>
	</linearGradient>
	<linearGradient id="Gradient3" gradientUnits="userSpaceOnUse" x1="1570.17" y1="669.502" x2="1501.24" y2="707.089">
		<stop class="stop0" offset="0" stop-opacity="1" stop-color="rgb(37,35,34)"/>
		<stop class="stop1" offset="1" stop-opacity="1" stop-color="rgb(62,61,68)"/>
	</linearGradient>
	<linearGradient id="Gradient4" gradientUnits="userSpaceOnUse" x1="1249.23" y1="572.554" x2="1222.68" y2="576.89">
		<stop class="stop0" offset="0" stop-opacity="1" stop-color="rgb(38,34,32)"/>
		<stop class="stop1" offset="1" stop-opacity="1" stop-color="rgb(61,61,70)"/>
	</linearGradient>
	<linearGradient id="Gradient5" gradientUnits="userSpaceOnUse" x1="406.184" y1="272.505" x2="317.888" y2="370.416">
		<stop class="stop0" offset="0" stop-opacity="1" stop-color="rgb(32,31,34)"/>
		<stop class="stop1" offset="1" stop-opacity="1" stop-color="rgb(59,58,62)"/>
	</linearGradient>
	<linearGradient id="Gradient6" gradientUnits="userSpaceOnUse" x1="761.857" y1="591.833" x2="749.516" y2="585.363">
		<stop class="stop0" offset="0" stop-opacity="1" stop-color="rgb(32,34,40)"/>
		<stop class="stop1" offset="1" stop-opacity="1" stop-color="rgb(66,61,66)"/>
	</linearGradient>
</defs>
<path transform="translate(0,0)" fill="rgb(255,255,255)" d="M 0 0 L 2048 0 L 2048 2048 L 0 2048 L 0 0 z"/>
<path transform="translate(0,0)" fill="rgb(47,48,60)" d="M 752.541 909.716 C 615.281 851.958 456.876 805.714 334.242 719.174 C 254.477 662.885 184.742 569.671 136.446 486.038 C 129.965 474.594 104.125 421.416 122.182 412.243 C 124.585 412.156 126.918 412.692 128.713 414.719 C 138.659 425.946 145.316 439.009 153.933 451.552 C 169.808 473.263 192.483 506.169 221.123 510.262 C 224.508 510.745 230.812 506.952 232.784 504.242 C 245.984 486.099 231.177 454.497 223.884 436.579 C 214.013 412.328 203.839 390.471 196.396 365.519 C 179.871 312.365 177.697 253.439 191.957 199.547 C 198.708 174.03 205.784 147.564 219.763 124.922 C 222.799 120.004 230.054 117.825 234.212 122.761 C 240.177 130.225 239.265 141.607 238.397 150.582 C 235.702 172.766 230.674 194.901 229.706 217.265 C 227.168 275.907 238.765 338.838 273.656 387.145 C 291.396 411.706 300.693 381.182 300.137 365.355 C 299.344 342.685 294.402 320.586 294.91 297.747 C 296.033 247.166 303.282 196.964 318.991 148.766 C 321.653 140.6 328.728 114.253 340.012 115.35 C 357.427 117.041 349.955 143.133 348.359 153.999 C 336.23 215.688 333.24 282.573 354.963 342.537 C 361.632 360.945 368.449 376.607 382.597 390.338 C 390.885 376.028 397.783 354.67 403.958 338.809 C 422.226 291.881 438.924 246.932 472.268 207.815 C 476.459 202.898 509.863 162.423 516.795 191.81 C 519.104 201.599 493.395 231.4 489.155 240.12 C 483.071 250.935 478.016 260.31 473.697 270.904 C 446.814 338.915 447.707 421.288 472.393 489.957 C 478.957 508.819 487.884 524.815 499.927 540.246 C 518.435 563.959 536.779 536.847 542.827 518.797 C 559.734 468.337 584.025 418.046 601.233 368.254 C 606.507 352.51 611.1 336.546 615 320.406 C 618.399 306.737 626.127 254.2 632.895 247.248 C 635.204 244.876 638.584 242.415 642.022 242.398 C 644.602 242.385 646.67 243.851 648.177 245.82 C 661.705 263.501 655.953 325.641 652.102 348.022 C 638.795 425.347 595.079 503.223 590.498 580.014 C 589.661 594.052 590.96 608.342 592.564 622.298 C 595.187 645.119 601.645 668.079 615.117 687.006 C 622.743 697.718 635.681 710.413 649.148 712.542 C 655.881 713.606 662.977 711.639 668.402 707.531 C 673.864 703.395 678.559 695.649 681.953 689.747 C 696.664 664.17 708.574 636.458 722.311 610.265 C 742.307 572.141 764.037 534.761 783.38 496.334 C 791.423 480.355 806.844 442.373 817.001 430.239 C 819.072 427.764 820.777 427.617 823.853 427.602 C 826.914 428.94 828.277 431.031 829.372 434.076 C 834.163 447.398 829.793 464.639 826.63 477.894 C 819.42 508.111 808.826 537.079 796.516 565.565 C 776.903 610.952 724 705.868 725.264 751.303 C 725.811 770.95 736.911 790.772 747.722 806.655 C 762.224 786.606 774.406 742.539 776.443 717.761 C 780.885 663.731 795.391 659.203 840.242 690.446 C 858.917 703.456 877.255 718.553 890.718 738.71 C 899.454 719.013 908.838 699.461 916.515 679.354 C 926.516 653.158 934.525 625.91 944.931 599.915 C 946.457 596.104 948.305 590.523 951.924 589.876 C 954.004 589.505 955.471 589.91 956.782 591.356 C 963.844 599.145 962.242 627.685 961.237 636.48 C 956.064 681.757 937.666 740.456 916.882 780.879 C 935.49 810.592 938.949 845.15 940.183 879.17 C 962.683 875.269 987.731 871.46 1010.21 876.959 C 1018.97 879.102 1026.95 882.44 1035.29 884.823 C 1105.22 847.689 1135.11 756.129 1165.1 688.552 C 1167.28 683.645 1170.94 679.536 1176.62 680.139 C 1201.77 699.862 1141.73 830.245 1132.36 857.219 C 1154.18 841.238 1178.72 827.211 1201.3 811.792 C 1227.7 793.767 1246.39 777.408 1269.45 755.768 C 1220.54 695.252 1202.84 631.427 1198.33 555.255 C 1194.53 491.05 1198.65 428.458 1219.55 367.497 C 1227.23 345.089 1248.57 334.349 1245.18 366.7 C 1238.64 414.658 1243.12 490.614 1297.43 510.114 C 1362.97 533.649 1320.26 441.76 1337.05 420.804 C 1361.14 413.44 1363.8 496.638 1369.5 511.132 C 1374.78 524.577 1381.34 543.354 1401.65 540.715 C 1406.3 540.112 1410.37 533.137 1412.09 529.584 C 1427.89 505.889 1404.06 397.566 1423.82 384.746 C 1442 382.33 1445.25 423.352 1446.75 435.733 C 1449.84 460.765 1451.25 485.974 1450.98 511.194 C 1450.74 532.497 1447.33 555.034 1450.9 575.705 C 1453.76 592.251 1469.21 608.896 1486.99 605.963 C 1499.22 603.947 1508.5 594.385 1515.43 584.546 C 1541.35 545.154 1547.84 494.317 1547.69 448.026 C 1547.65 435.541 1546.41 416.018 1551.15 404.859 C 1552.53 401.618 1554.21 400.197 1557.53 399.481 C 1560.95 400.085 1564.65 402.28 1566.1 405.508 C 1586.6 454.562 1579.31 514.092 1570.23 565.409 C 1561.92 612.354 1524.02 674.404 1544.61 720.721 C 1554.24 736.913 1572.56 735.092 1584.46 724.544 C 1629.05 685.019 1645.14 620.031 1657.84 564.077 C 1660.91 550.535 1662.46 510.694 1676.47 508.093 C 1679.25 508.851 1682.17 509.968 1683.27 512.835 C 1698.69 552.924 1691.13 613.095 1679.73 651.33 C 1671.17 680.939 1659.09 709.415 1643.75 736.149 C 1635.85 750.016 1629.45 760.354 1620.45 773.602 C 1600.48 803 1570.26 835.315 1567.77 871.983 C 1566.5 890.624 1577.89 913.252 1585.34 930.019 C 1646.73 912.744 1694.11 869.108 1724.84 814.148 C 1742.3 782.494 1753.33 747.701 1757.29 711.769 C 1758.18 703.632 1755.01 650.283 1777.1 668.727 C 1789.95 679.455 1791.85 723.104 1792.28 738.619 C 1792.77 830.115 1748.05 905.575 1680.54 963.387 C 1753.29 958.527 1813.12 917.381 1859.76 863.962 C 1886.2 833.676 1911.34 785.407 1907.85 744.024 C 1907.18 736.096 1902.64 715.277 1907.65 710.613 C 1910 708.43 1910.83 708.626 1913.53 708.369 C 1919.17 710.503 1922.65 716.867 1924.76 722.275 C 1970.31 839.21 1882.36 970.26 1775.77 1015.93 C 1698.47 1049.05 1625.12 1043.77 1547.3 1021.09 C 1540.55 1019.13 1519.77 1018.55 1511.52 1017.81 C 1493.13 1015.98 1474.76 1013.9 1456.43 1011.56 C 1422.15 1007.24 1386.65 999.578 1352.12 997.55 C 1342.79 997.001 1330.92 999.74 1321.49 1000.26 C 1285.61 1003.76 1252.91 1011.91 1218.19 1021.25 C 1235.17 1029.37 1268.62 1043.54 1275.67 1061.09 C 1281.54 1075.69 1293.12 1098.15 1298.2 1112.49 L 1298.73 1114.02 C 1334.16 1134.99 1367.81 1153.95 1398.47 1182.2 C 1421.37 1203.07 1441.21 1227.45 1463.9 1248.43 C 1503.56 1285.1 1552.77 1306.67 1566.23 1363.9 C 1574.5 1399.06 1565.96 1428.54 1572.39 1463.6 C 1577.39 1490.87 1571.57 1521.83 1557.01 1544.79 C 1540.38 1573.38 1511.56 1591.74 1478.25 1578.37 C 1461.62 1589.84 1447.41 1599.82 1427.95 1605.65 C 1396.24 1615.14 1363.13 1608.35 1344.24 1579.47 C 1329.11 1556.34 1328.03 1528.01 1308.14 1507.25 C 1297.63 1505.75 1282.14 1504.61 1271.56 1504.61 C 1227.37 1504.57 1175.04 1497.75 1131.69 1502.19 C 1073.46 1508.15 1058.09 1581.73 1065.8 1629.1 C 1069.57 1652.28 1070.02 1681.42 1068.56 1703.67 C 1060.47 1688.58 1053.56 1673.4 1044.53 1658.82 C 1040.69 1682.97 1036.76 1702.9 1037.12 1727.63 C 1030.59 1714.44 1027.96 1707.86 1024.27 1693.66 C 1021.87 1710.06 1019.6 1726.49 1017.47 1742.93 C 1010.86 1729.7 1012.99 1728.6 1010.37 1715.41 C 1002.9 1741.17 1005.11 1745.7 1006.64 1770.97 C 996.333 1756.41 997.436 1749.66 992.889 1733.5 C 985.684 1778.78 984.375 1795.77 1002.42 1838.18 C 985.409 1823.81 977.268 1808.83 975.203 1786.5 C 973.201 1794.79 971.318 1803.1 969.553 1811.44 L 964.642 1796.95 C 960.973 1813.94 959.525 1825.09 959.401 1842.39 C 951.717 1825.69 950.38 1818.1 949.661 1799.63 C 928.468 1831.13 924.196 1851.05 925.621 1888.17 C 912.693 1863.34 914.449 1842.96 920.013 1815.86 C 903.91 1837.23 902.541 1862.04 906.155 1887.58 L 906.36 1889.01 C 900.029 1875.36 894.701 1861.27 890.417 1846.84 C 872.943 1880.51 873.356 1895.1 876.429 1931.99 C 864.022 1912.03 867.695 1906.7 861.083 1889.06 C 858.959 1898.78 857.049 1908.53 855.355 1918.33 C 851.277 1910.76 847.469 1902.57 843.476 1895.3 C 844.141 1911.12 844.251 1924.54 849.552 1939.72 C 836.295 1921.43 834.142 1908.9 833.696 1886.25 C 827.064 1906.55 829.095 1905.07 828.85 1923.89 C 823.031 1912.89 822.47 1910.41 820.854 1897.99 L 818.927 1896.74 C 815.687 1907.58 815.962 1918.23 815.741 1929.42 C 812.457 1919.07 809.663 1909.26 805.154 1899.37 L 804.508 1897.92 C 806.188 1906.84 807.769 1916.1 810.022 1924.87 C 751.864 1884.29 762.033 1750.26 767.197 1687.91 C 769.525 1658.95 772.443 1630.05 775.95 1601.21 C 778.049 1584.91 781.278 1567.87 783.085 1551.72 C 773.418 1570.94 766.072 1593.87 752.908 1610.54 C 746.133 1565.48 733.351 1522.59 735.026 1476.53 C 735.342 1467.84 735.615 1459.14 735.947 1450.46 C 725.39 1481.77 725.121 1501.53 717.385 1531.09 C 706.616 1502.8 709.843 1449.37 706.445 1419.96 C 703.748 1437.04 699.889 1445.52 690.046 1460.04 C 685.468 1421.1 691.771 1354.47 703.9 1317.99 C 695.685 1330.85 684.103 1348.44 673.384 1359.02 C 675.523 1318.23 686.63 1288.76 702.721 1252.4 C 692.863 1260.84 682.847 1269.99 673.058 1278.23 C 680.456 1253.82 689.74 1232.15 703.624 1210.5 C 710.385 1199.96 718.563 1189.7 725.252 1179.23 C 717.852 1185.51 704.773 1199.05 698.021 1206.5 C 703.274 1194.9 706.652 1187.15 713.606 1176.4 C 720.844 1165.21 730.26 1154.13 737.114 1143.18 C 727.723 1151.46 718.777 1159.8 708.569 1167.02 L 707.392 1167.86 L 706.68 1168.36 C 729.72 1132.33 749.776 1091.13 782.998 1064.93 C 738.06 1086.56 695.166 1160.89 677.931 1206.72 C 683.457 1201.38 688.912 1195.96 694.293 1190.48 C 688.012 1206.85 679.845 1221.69 672.536 1237.6 C 661.135 1262.42 657.385 1281.25 653.766 1307.63 C 661.912 1297.01 664.862 1292.5 675.561 1284.34 C 655.732 1332.35 653.436 1352.2 657.185 1405.19 C 664.218 1391.33 670.834 1376.81 680.336 1364.56 C 668.571 1419.22 668.075 1461.21 684.656 1515.08 C 688.592 1500.68 693.674 1481.56 695.82 1467.02 L 696.095 1465.22 C 698.982 1483.99 699.741 1502.84 702.025 1521.68 C 704.558 1542.59 709.498 1561.61 715.759 1581.6 C 719.85 1565.76 723.962 1556.74 726.317 1540.17 C 733.303 1582.24 734.052 1607.54 748.045 1650.81 C 752.563 1637.47 756.842 1625.17 763.22 1612.49 C 762.921 1626.53 760.022 1643.75 758.212 1657.92 C 756.066 1674.72 754.654 1690.22 753.238 1707.09 C 751.014 1734.69 749.014 1762.3 747.238 1789.94 C 746.199 1804.22 745.664 1820 743.164 1833.95 C 738.141 1861.99 716.707 1875.86 696.856 1849.83 C 666.313 1809.79 647.67 1763.81 620.914 1721.45 C 603.453 1693.24 583.431 1666.69 561.102 1642.15 C 477.94 1552 309.476 1445.34 185.535 1510.23 C 207.314 1466.31 237.363 1427.01 274.034 1394.48 L 254.187 1399.07 C 269.526 1377.09 282.186 1360.89 303.181 1343.22 C 307.892 1339.26 323.85 1329.01 326.022 1326.26 C 323.505 1326.34 320.987 1326.36 318.469 1326.32 L 317.574 1325.04 C 321.46 1312.33 354.967 1281.89 367.933 1272.78 C 359.907 1274.97 353.883 1276.63 345.72 1277.96 C 371.933 1247.38 405.339 1221.62 440.69 1202.45 C 446.293 1199.41 486.873 1180.13 487.388 1179.34 C 482.088 1179.81 473.945 1181.83 468.523 1183.02 C 493.822 1162.13 520.885 1143.47 549.407 1127.25 C 563.89 1119.14 596.446 1102.66 608.693 1094.4 C 601.804 1096.23 596.799 1097.53 590.151 1100.13 C 609.288 1080.02 647.913 1063.58 673.398 1051.98 C 678.992 1049.44 696.317 1042.79 699.614 1040.14 C 697.759 1038.18 694.263 1039.07 691.736 1039.63 C 700.852 1026.29 774.373 1002.57 793.05 998.032 C 769.19 970.149 760.977 944.043 752.541 909.716 z"/>
<path transform="translate(0,0)" fill="rgb(255,255,255)" d="M 828.845 1841.76 C 829.916 1866.17 824.384 1866.25 820.635 1886.94 L 818.882 1883.88 C 819.379 1867.32 823.28 1857.49 828.845 1841.76 z"/>
<path transform="translate(0,0)" fill="rgb(132,131,135)" d="M 818.882 1883.88 L 820.635 1886.94 L 820.854 1897.99 L 818.927 1896.74 C 819.091 1892.73 818.919 1887.96 818.882 1883.88 z"/>
<path transform="translate(0,0)" fill="rgb(255,255,255)" d="M 228.847 128.299 C 230.023 152.247 224.905 165.813 222.016 189.295 C 216.307 235.683 220.302 286.782 233.496 331.774 C 241.257 354.63 257.055 392.655 278.504 405.333 C 296.46 415.947 309.159 390.592 310.921 375.649 C 313.415 354.494 307.736 335.441 306.956 314.468 C 304.797 256.419 313.408 197.039 333.063 142.324 C 334.268 138.983 337.669 130.388 340.577 129.082 C 342.84 137.937 333.064 179.349 331.596 192.215 C 329.48 209.86 328.585 227.629 328.915 245.397 C 329.582 291.656 337.01 338.22 359.119 379.423 C 366.559 393.287 384.081 413.907 395.113 389.88 C 417.283 341.593 429.748 288.396 459.151 243.38 C 466.074 232.781 492.258 195.837 504.632 193.074 L 506.012 193.996 C 506.218 199.284 490.464 220.485 486.392 226.478 C 470.159 250.369 460 276.552 452.67 304.46 C 434.266 378.147 442.195 462.525 479.35 529.22 C 498.538 563.664 526.406 575.255 547.427 533.979 C 557.561 514.081 564.138 492.277 572.504 471.38 C 587.12 434.867 603.831 398.521 615.936 361.053 C 624.98 332.784 630.704 303.984 636.508 274.964 C 637.528 269.176 638.737 261.434 641.294 256.312 C 641.684 260.227 641.157 261.896 640.446 265.834 L 642.882 267.212 C 643.046 267.543 643.211 267.873 643.375 268.203 C 657.146 374.107 589.307 469.816 579.673 572.95 C 578.065 608.207 580.273 644.736 595.839 676.589 C 613.983 713.718 656.23 750.096 688.049 703.114 C 701.154 683.764 711.21 657.124 721.977 635.911 C 742.665 595.858 763.936 556.109 785.784 516.677 C 792.903 503.529 800.512 485.872 807.551 473.776 C 807.574 473.398 808.799 469.731 809.001 469.104 L 810.593 468.71 L 812.967 471.612 C 815.41 463.045 817.482 456.156 820.543 447.817 C 819.705 465.947 814.746 483.647 809.391 500.892 C 786.31 575.224 741.65 640.506 719.316 714.981 C 710.434 744.597 710.391 765.282 725.381 792.738 C 741.961 823.105 763.915 846.429 798.033 856.091 C 810.217 859.542 822.783 860.112 834.084 853.621 C 880.272 827.091 936.582 664.433 951.22 611.019 C 953.185 678.801 912.604 761.269 884.051 820.587 C 865.391 859.352 862.277 887.493 906.969 907.174 C 940.322 921.863 995.266 921.724 1028.53 908.172 C 1089.34 883.401 1125.29 809.114 1151.05 752.335 C 1158.92 734.489 1164.68 712.079 1172.73 694.084 L 1173.33 692.755 C 1166.19 747.148 1144.23 794.144 1121.67 843.536 C 1095.79 900.217 1062.32 964.125 995.468 978.773 C 951.253 988.46 892.605 956.835 852.784 937.159 C 829.359 925.308 805.564 914.201 781.436 903.855 C 752.061 891.361 722.447 880.271 692.916 868.34 L 580.236 821.936 C 507.158 792.131 423.333 756.503 358.085 713.015 C 327.277 692.095 298.578 668.227 272.393 641.749 C 231.336 600.372 136.535 481.29 125.2 424.434 C 131.265 432.187 135.877 442.048 141.434 450.496 C 157.907 475.539 178.45 506.073 205.699 519.942 C 237.373 536.063 258.535 513.306 252.666 480.738 C 247.508 452.12 235.645 426.942 225.498 399.828 C 196.131 326.73 184.213 236.135 216.175 162.035 C 213.376 180.28 210.142 200.419 209.239 219.663 C 207.159 283.504 218.88 358.434 258.947 409.916 C 267.013 420.279 292.51 432.118 302.533 421.427 C 294.894 421.698 293.407 424.088 284.062 421.495 C 268.601 417.205 253.941 395.823 246.931 382.235 C 213.555 317.543 207.292 235.936 221.078 165.171 C 223.706 151.685 224.944 141.659 228.847 128.299 z"/>
<path transform="translate(0,0)" fill="rgb(47,48,60)" d="M 636.508 274.964 C 637.528 269.176 638.737 261.434 641.294 256.312 C 641.684 260.227 641.157 261.896 640.446 265.834 L 642.882 267.212 L 642.564 269.19 C 641.701 274.928 641.962 281.384 641.488 287.305 C 635.673 359.913 603.031 424.62 580.254 492.95 C 568.331 528.719 540.176 612.703 487.153 571.532 C 462.281 552.22 451.54 513.904 445.074 484.217 L 445.93 485.752 C 447.939 489.43 453.096 502.544 454.886 507.2 C 464.449 532.071 479.982 566.133 507.898 574.79 C 516.238 577.391 525.282 576.412 532.873 572.088 C 560.144 556.829 575.982 488.853 586.552 460.284 C 600.871 421.58 616.879 382.276 627.083 342.293 C 631.91 322.811 635.623 303.069 638.206 283.165 C 638.217 279.559 638.645 277.807 636.508 274.964 z"/>
<path transform="translate(0,0)" fill="rgb(218,219,224)" d="M 636.508 274.964 C 637.528 269.176 638.737 261.434 641.294 256.312 C 641.684 260.227 641.157 261.896 640.446 265.834 C 639.658 271.605 638.911 277.382 638.206 283.165 C 638.217 279.559 638.645 277.807 636.508 274.964 z"/>
<path transform="translate(0,0)" fill="url(#Gradient6)" d="M 807.551 473.776 C 807.574 473.398 808.799 469.731 809.001 469.104 L 810.593 468.71 L 812.967 471.612 C 803.122 506.531 789.113 531.349 772.254 563.041 C 758.991 587.397 746.293 612.056 734.168 636.999 C 725.14 655.693 708.896 697.966 698.985 712.239 L 697.963 713.729 C 697.753 714.024 697.544 714.318 697.334 714.612 C 706.856 688.533 717.424 662.848 729.011 637.618 C 739.357 615.217 808.381 485.018 807.551 473.776 z"/>
<path transform="translate(0,0)" fill="url(#Gradient5)" d="M 442.184 302.989 C 434.957 322.544 417.082 397.21 408.026 407.031 C 338.772 482.138 306.389 251.554 319.904 233.789 C 321.778 238.134 322.189 276.556 324.094 286.668 C 331.726 327.174 338.883 389.582 375.676 413.774 C 384.26 419.418 402.279 408.947 405.203 399.999 C 418.356 368.552 425.941 335.791 438.438 303.386 L 442.184 302.989 z"/>
<path transform="translate(0,0)" fill="rgb(47,48,60)" d="M 570.917 631.608 C 573.03 637.041 573.764 645.318 575.097 651.162 C 581.552 679.461 599.692 718.469 627.995 730.641 L 634.911 733.622 C 593.547 731.872 571.46 666.322 570.917 631.608 z"/>
<path transform="translate(0,0)" fill="rgb(59,58,60)" d="M 699.831 748.556 C 702.712 754.714 704.733 768.72 707.362 776.146 C 716.548 802.106 729.879 820.668 747.012 841.377 C 743.049 839.764 739.254 835.841 736.187 832.789 C 713.657 810.37 700.492 780.198 699.831 748.556 z"/>
<path transform="translate(0,0)" fill="rgb(47,48,60)" d="M 438.438 303.386 C 440.322 298.846 448.21 278.966 451.15 277.153 C 448.605 286.534 445.026 294.172 442.184 302.989 L 438.438 303.386 z"/>
<path transform="translate(0,0)" fill="rgb(255,255,255)" d="M 1234.56 363.525 C 1232.99 373.634 1231.9 383.811 1231.3 394.023 C 1228.1 448.778 1247.27 521.982 1315.12 525.916 C 1362.44 528.659 1341.41 460.914 1341.82 433.011 L 1341.86 431.353 C 1354.82 463.487 1348.86 498.768 1363.8 529.916 C 1370.38 543.349 1383.23 554.732 1398.76 554.649 C 1430.84 554.476 1430.04 506.128 1429.74 483.663 C 1429.57 470.74 1428.2 456.007 1427.52 442.551 C 1426.84 426.503 1426.34 410.448 1426.04 394.389 C 1435.05 415.835 1437.89 476.797 1438.15 502.085 C 1438.49 535.335 1428.95 577.659 1451.94 606.609 C 1459.5 615.938 1470.13 620.765 1481.97 621.349 C 1507.87 622.627 1524 596.345 1533.88 575.97 C 1551.13 540.386 1557.12 499.538 1557.75 460.275 C 1557.99 444.615 1557.41 428.756 1558.32 413.109 C 1572.12 459.256 1565.62 525.839 1554.23 571.963 C 1550.41 587.155 1546.14 602.232 1541.43 617.172 C 1529.84 654.085 1502.96 716.797 1549.35 742.282 C 1556.22 746.055 1569.79 747.83 1576.94 743.879 C 1634.8 711.885 1653.47 629.83 1668.15 570.332 C 1670.55 559.903 1674.17 529.541 1675.64 526.222 C 1678.75 530.551 1679.76 555.965 1677.98 561.115 C 1677.76 564.239 1677.38 564.956 1678.18 567.893 C 1679.94 575.626 1678.24 589.035 1677.16 597.176 C 1669.85 652.201 1648.83 694.222 1620.76 741.045 C 1592.18 788.719 1541.87 830.98 1553.84 891.574 C 1556.59 905.516 1564.57 921.213 1570.92 933.592 C 1516.18 940.343 1474.75 931.669 1420.64 922.615 C 1407.39 902.105 1393.69 880.544 1378.61 861.371 C 1353.87 829.94 1325.9 801.262 1297.56 773.161 C 1299.1 765.619 1300.27 758.518 1301.47 750.911 C 1312.76 765.094 1329.28 777.515 1343.62 788.849 C 1328.18 770.445 1317.09 760.459 1301.45 743.764 C 1302.22 736.164 1303.2 733.868 1298.84 727.49 C 1293.81 725.442 1291.3 728.716 1288.48 732.79 L 1286.46 733.58 C 1284.03 738.285 1281.19 741.898 1278.09 746.169 C 1262.44 730.383 1246.94 700.048 1238.45 679.576 C 1204.04 596.618 1199.77 446.188 1234.56 363.525 z"/>
<path transform="translate(0,0)" fill="url(#Gradient4)" d="M 1270.67 714.257 C 1262.08 701.911 1254.61 688.823 1248.35 675.149 C 1220.48 613.955 1215.16 541.216 1219.03 474.993 C 1219.53 466.484 1222.09 434.083 1224.5 427.678 L 1225.62 427.459 C 1226.13 433.28 1224.86 447.537 1224.5 453.937 C 1223.92 465.69 1223.64 477.457 1223.65 489.225 C 1223.35 565.384 1231.8 645.653 1272.66 711.622 L 1270.67 714.257 z"/>
<path transform="translate(0,0)" fill="rgb(47,48,60)" d="M 1678.18 567.893 C 1673.76 597.759 1661.02 661.979 1643.44 686.089 C 1644.75 680.089 1648.76 670.001 1650.93 663.926 C 1655.49 651.483 1659.52 638.849 1663 626.058 C 1666.3 613.187 1669.03 600.178 1671.19 587.068 C 1672.46 579.796 1673.82 568.307 1676.14 561.938 L 1677.98 561.115 C 1677.76 564.239 1677.38 564.956 1678.18 567.893 z"/>
<path transform="translate(0,0)" fill="rgb(47,48,60)" d="M 1272.66 711.622 C 1278 719.195 1282.67 725.576 1288.48 732.79 L 1286.46 733.58 C 1280.72 728.04 1275.34 720.675 1270.67 714.257 L 1272.66 711.622 z"/>
<path transform="translate(0,0)" fill="url(#Gradient3)" d="M 1536.79 601.8 C 1536.87 606.303 1532.03 617.671 1530.19 622.309 C 1514.69 661.268 1494.9 714.533 1533.18 747.125 C 1547.01 758.905 1558.29 752.639 1571.7 753.587 L 1567.82 756.061 C 1565.9 756.917 1563.94 757.663 1561.93 758.297 C 1552.68 761.284 1542.6 760.333 1534.07 755.669 C 1521.66 748.914 1512.6 734.802 1508.82 721.464 C 1497.79 682.508 1518.54 635.371 1536.79 601.8 z"/>
<path transform="translate(0,0)" fill="url(#Gradient2)" d="M 1424.53 553.834 C 1426.44 556.166 1427.29 578.555 1428.67 584.364 C 1435 611.042 1457.04 639.388 1487.64 633.788 C 1493.6 632.697 1500.74 627.004 1506 628.633 L 1504.5 630.162 C 1462.52 660.752 1426.1 617.306 1423.58 577.021 C 1423.05 568.547 1423.64 562.335 1424.53 553.834 z"/>
<path transform="translate(0,0)" fill="rgb(47,48,60)" d="M 1618.28 730.975 C 1619.09 734.997 1601.77 755.384 1597.81 760.112 C 1575.23 786.848 1550.79 813.633 1545.62 849.705 C 1544.24 859.314 1546.23 870.975 1544.48 880.339 C 1543.94 877.909 1543.5 875.456 1543.17 872.988 C 1535.46 810.882 1582.79 776.702 1618.28 730.975 z"/>
<path transform="translate(0,0)" fill="rgb(47,48,60)" d="M 1345.99 527.493 C 1350.69 530.441 1358.09 546.509 1364.9 551.45 C 1373.71 557.844 1380.93 559.261 1390.64 563.661 C 1369.07 564.674 1350.8 547.843 1345.99 527.493 z"/>
<path transform="translate(0,0)" fill="rgb(255,255,255)" d="M 1139.84 933.414 C 1152.7 931.837 1164.79 928.901 1178.01 927.668 C 1224.94 923.288 1274.55 920.973 1321.51 924.832 C 1362.22 928.436 1402.78 933.475 1443.13 939.939 C 1471.55 944.241 1502.06 949.672 1530.79 950.111 C 1609.13 951.309 1664.63 918.469 1711.59 857.704 C 1742.1 818.242 1758.73 780.058 1766.5 730.715 C 1768.14 720.07 1769.17 709.34 1769.59 698.578 C 1769.72 694.672 1768.43 679.211 1772.07 678.691 C 1783.19 696.284 1778.49 758.427 1773.37 780.079 C 1755.55 862.201 1713.01 921.005 1642.29 965.61 C 1570.01 1011.2 1495.29 997.608 1415.87 986.266 C 1355.06 977.582 1307.72 982.938 1248.41 998.434 C 1234.35 1002.11 1219.56 1006.55 1205.27 1009.98 C 1203.17 1007.69 1198.59 1003.3 1198.39 1000.4 L 1197.68 998.844 C 1192.72 994.748 1184.17 978.123 1179.89 971.574 C 1168.45 954.077 1156.91 944.602 1139.84 933.414 z"/>
<path transform="translate(0,0)" fill="rgb(47,48,60)" d="M 1197.68 998.844 C 1246.84 979.21 1307.63 970.481 1360.47 969.903 C 1403.73 969.429 1449.66 978.025 1492.01 986.19 L 1485.75 987.166 C 1368.58 972.341 1314.73 965.715 1198.39 1000.4 L 1197.68 998.844 z"/>
<path transform="translate(0,0)" fill="rgb(132,131,135)" d="M 1492.01 986.19 C 1494.27 986.71 1497.49 986.954 1498.64 988.333 C 1493.07 988.527 1491.29 988.163 1485.75 987.166 L 1492.01 986.19 z"/>
<path transform="translate(0,0)" fill="rgb(47,48,60)" d="M 1755.47 820.767 C 1756.47 830.743 1734.18 864.54 1727.91 873.34 C 1695.66 918.604 1638.67 969.441 1582.17 977.932 C 1582.05 976.799 1587.62 975.164 1589.43 974.443 C 1607.65 967.183 1630.21 958.263 1646.44 947.448 C 1678.69 925.94 1710.51 892.123 1732.9 860.371 C 1741.17 848.641 1748.89 833.42 1755.47 820.767 z"/>
<path transform="translate(0,0)" fill="rgb(47,48,60)" d="M 1230.51 941.412 C 1244.87 940.78 1254.01 940.377 1268.16 942.737 C 1254.25 945.879 1222.11 947.907 1206.77 949.204 C 1201.1 949.935 1177.65 953.911 1174.97 948.285 C 1181.72 943.537 1220.19 942.086 1230.51 941.412 z"/>
<path transform="translate(0,0)" fill="url(#Gradient1)" d="M 1227.54 953.367 C 1229.72 952.948 1232.99 952.487 1234.58 953.967 C 1230.23 955.931 1191.77 964.201 1185.39 965.681 C 1182.76 967.107 1182.87 967.289 1179.95 967.373 L 1178.54 966.002 L 1179.42 963.905 C 1187.58 957.198 1216.43 954.858 1227.54 953.367 z"/>
<path transform="translate(0,0)" fill="rgb(255,255,255)" d="M 1091.55 925.45 C 1128.17 936.22 1157.2 954.152 1174.37 988.088 C 1181.57 1002.31 1192.63 1016.82 1204.35 1027.4 C 1222.74 1043.99 1255.26 1045.69 1266.19 1069.11 C 1273.29 1084.35 1276.12 1093.62 1285.27 1108.31 C 1246.59 1087.81 1211.91 1061.87 1181.1 1030.74 C 1145.18 994.455 1139.73 960.531 1085.56 946.027 C 1093.95 951.841 1102.57 956.937 1111.11 962.463 C 1133.68 977.049 1148.55 1001.12 1165.17 1021.67 C 1181.36 1041.27 1199.26 1059.39 1218.67 1075.8 C 1262.97 1113.11 1307.71 1130.79 1354.76 1163.3 C 1371.75 1175.04 1396.3 1195.8 1410.59 1210.52 C 1427.02 1227.45 1440.38 1243.24 1458.17 1259.67 C 1482.3 1281.94 1512.08 1300.24 1532.9 1325.09 C 1545.72 1340.41 1553.03 1356.19 1556.68 1375.7 C 1560.63 1396.81 1557.29 1413.03 1557.22 1433.97 C 1557.45 1449.05 1560.76 1463.46 1561.94 1478.48 C 1563.85 1502.73 1556.08 1524.16 1542.71 1544.13 C 1527.71 1566.56 1499.83 1580.98 1475.7 1561.2 C 1450.25 1540.33 1448.64 1509.03 1441.72 1479.47 C 1433.93 1470.89 1422.51 1464.52 1412.38 1458.68 C 1385.93 1443.46 1372.77 1422.56 1373.69 1391.88 C 1374.08 1378.7 1382.46 1331.43 1398.26 1329.69 L 1400.62 1330.95 C 1401.13 1333.68 1396.34 1340.37 1394.67 1343.66 C 1392.39 1348.21 1390.5 1352.95 1389.02 1357.83 C 1385.1 1370.58 1383.61 1385.11 1385.02 1397.72 C 1389.31 1435.96 1429.21 1451.66 1450.19 1479.12 C 1453.68 1483.68 1455.01 1494.37 1456.57 1499.98 C 1461.2 1520 1467.29 1543.13 1485.36 1555.27 C 1491.8 1559.59 1497.77 1560.22 1505.28 1558.7 C 1543.35 1551.02 1556.58 1505.11 1552.2 1471.3 C 1550.75 1460.03 1548.74 1448.83 1548.04 1437.52 C 1547.92 1418.48 1550.71 1403.08 1546.08 1383.94 C 1541.76 1366.12 1535.26 1349.38 1523.13 1335.32 C 1500.37 1308.94 1468.79 1290.6 1441.9 1268.4 C 1425.47 1254.83 1411.97 1240.61 1396.53 1226.77 C 1385.55 1216.93 1363.95 1200.54 1351.53 1192.43 L 1352.65 1190.37 C 1373.72 1202.92 1395.69 1220.81 1414.93 1231.36 C 1391.09 1209.35 1371.09 1193.22 1343.13 1176.3 C 1302.28 1151.58 1253.97 1127.77 1218.62 1095.19 C 1201.07 1078.85 1185.15 1060.86 1171.06 1041.46 C 1138.2 995.909 1131.63 973.305 1074.8 946.822 C 1080.31 939.936 1086.45 932.581 1091.55 925.45 z"/>
<path transform="translate(0,0)" fill="rgb(47,48,60)" d="M 1200.21 1040.81 C 1200.9 1041.03 1202.05 1041.35 1202.58 1041.74 C 1220.12 1054.66 1264.18 1078.28 1271.75 1098.32 C 1264.77 1096.99 1223.94 1061.66 1214.27 1055.45 C 1211.39 1053.61 1202.61 1044.1 1200.21 1040.81 z"/>
<path transform="translate(0,0)" fill="rgb(255,255,255)" d="M 770.996 917.76 C 773.877 918.902 777.281 920.545 780.151 921.834 C 787.237 958.5 831.343 1024.36 871.267 1027.4 C 860.474 1005.94 849.927 972.418 841.874 949.326 C 846.713 951.473 851.147 954.101 855.761 956.695 C 861.367 975.076 869.091 998.589 876.786 1016.04 C 882.991 1001.04 888.169 988.262 889.418 972.023 C 894.151 974.567 899.006 977.675 903.616 980.491 C 897.629 998.539 891.218 1010.43 882.579 1027.34 C 906.521 1092.63 888.572 1095.95 863.18 1153.83 C 853.354 1176.22 850.297 1203.48 848.538 1227.73 C 852.493 1221.84 856.647 1214.57 860.364 1208.41 C 855.766 1233.53 853.815 1250.6 856.644 1275.86 C 862.195 1259.92 866.115 1249.24 874.592 1234.73 C 866.208 1263.29 863.271 1297.99 871.829 1326.76 L 885.78 1294.4 C 885.219 1299.43 884.874 1304.49 884.746 1309.55 C 884.356 1334.36 895.15 1351.74 911.958 1368.7 C 909.889 1356.02 905.61 1344.95 904.126 1331.51 C 917.595 1363.64 941.024 1394.75 969.201 1415.47 C 966.748 1410.6 963.917 1405.5 961.333 1400.67 C 1015.45 1457.33 1046.62 1466.76 1122.78 1477.87 C 1130.41 1478.92 1138.02 1480.12 1145.6 1481.49 C 1084.02 1484.54 1008.14 1477.73 968.914 1424.46 C 970.689 1437.8 971.622 1440.44 977.528 1452.61 C 951.556 1439.58 941.929 1422.86 929.352 1398.56 C 928.569 1408.79 928.248 1414.61 928.823 1424.81 C 913.642 1414.23 902.834 1391.01 899.264 1373.03 C 896.712 1389.47 897.427 1391.21 899.568 1407.85 C 884.876 1387.36 883.618 1379.26 878.968 1354.73 C 876.268 1364.84 875.909 1372.99 875.138 1383.31 C 859.541 1352.86 857.116 1340.96 856.907 1307.11 C 850.598 1322.07 849.226 1331.56 847.579 1347.61 C 846.372 1345.59 845.227 1343.53 844.145 1341.43 C 826.661 1307.21 830.79 1274.31 841.86 1239.22 C 832.487 1249.17 827.15 1264.11 821.658 1276.75 C 815.045 1239.87 835.124 1205.01 847.409 1170.92 C 839.815 1182.09 833.018 1193.56 825.818 1204.98 L 824.719 1204.95 C 823.728 1198.76 825.865 1192.01 827.337 1186.03 C 839.276 1137.44 878.088 1125.34 887.953 1076.49 L 875.868 1099.3 C 877.501 1073.77 879.277 1060.46 872.781 1035.39 C 871.464 1035.72 870.135 1036 868.799 1036.23 C 846.167 1040.34 828.136 1019.92 814.804 1005 C 791.755 979.219 776.941 952.029 770.996 917.76 z"/>
<path transform="translate(0,0)" fill="rgb(255,255,255)" d="M 707.09 1040.96 C 739.824 1026.71 770.098 1015.66 805.028 1008.48 C 809.415 1012.2 813.836 1015.89 818.291 1019.53 C 740.585 1035.84 689.837 1071.29 625.844 1116.26 C 600.837 1133.83 569.685 1148.59 543.695 1165.4 C 547.798 1165.48 549.609 1165.87 552.776 1169.09 C 556.397 1168.69 565.585 1166.59 569.573 1165.8 C 544.524 1182.06 515.823 1194.59 489.432 1208.17 C 475.721 1215.22 457.781 1227.17 445.05 1236.34 C 456.224 1233.34 467.463 1230.59 478.758 1228.09 C 451.307 1240.66 428.109 1253.5 408.874 1277.45 C 422.9 1272.89 431.439 1270.16 446.008 1267.96 C 412.925 1282.22 402.963 1289.4 376.034 1313.04 C 390.851 1306.34 401.234 1302.73 416.635 1298.41 C 385.599 1320.97 354.112 1335.67 328.492 1367.22 C 341.66 1364.46 352.013 1362.87 364.892 1358.54 C 335.476 1378.54 308.662 1402.47 282.78 1426.81 C 263.493 1444.95 247.29 1462.5 226.02 1478.45 C 243.589 1439.14 262.256 1423.36 293.299 1394.32 C 301.983 1386.2 313.629 1376.82 321.115 1367.92 C 316.654 1370.06 305.41 1377.08 301.612 1374.18 L 301.952 1370.78 C 298.088 1373.51 288.216 1380.92 283.77 1381.1 C 286.503 1368.74 345.37 1328.18 356.788 1318.75 C 361.003 1315.26 368.222 1304.45 371.618 1299.58 C 357.442 1308.97 353.505 1311.82 337.172 1317.21 C 363.644 1290.3 380.015 1274.6 410.962 1252.62 C 398.96 1256.26 387.076 1260.27 375.326 1264.66 C 410.922 1229.24 456.865 1207.69 501.209 1185.62 C 511.769 1180.37 522.351 1175.41 531.821 1168.3 C 522.193 1168.91 513.644 1169.61 504.18 1171.47 C 513.38 1162.86 526.057 1155.34 536.936 1148.79 C 571.879 1127.73 606.645 1112.74 640.592 1089.54 C 632.311 1091.05 623.72 1093.72 615.581 1096.04 C 636.844 1080.61 668.299 1067.94 692.078 1057.11 C 703.254 1052.02 714.967 1047.64 725.49 1041.2 C 719.479 1041.01 713.133 1041.03 707.09 1040.96 z"/>
<path transform="translate(0,0)" fill="rgb(59,58,60)" d="M 552.776 1169.09 C 547.841 1170.19 541.136 1171.9 536.324 1170.31 C 537.637 1167.81 540.717 1166.92 543.695 1165.4 C 547.798 1165.48 549.609 1165.87 552.776 1169.09 z"/>
<path transform="translate(0,0)" fill="rgb(255,255,255)" d="M 1916.36 724.831 C 1929.6 738.746 1927.59 793.336 1924.39 811.67 C 1913.18 875.748 1870.57 932.697 1818.45 970.031 C 1776.77 1000.25 1726.54 1016.39 1675.05 1016.11 C 1652.98 1015.8 1635.67 1012.99 1614.24 1009.41 C 1609.78 1008.4 1605.21 1007.98 1600.66 1007.42 C 1626.64 998.453 1639.39 992.644 1661.97 977.964 C 1675.86 980.499 1690.07 980.767 1704.04 978.758 C 1802.53 965.192 1912.25 859.055 1918.94 756.707 C 1919.62 746.335 1917.87 735.138 1916.36 724.831 z"/>
<path transform="translate(0,0)" fill="rgb(47,48,60)" d="M 1770.49 982.044 L 1771.84 982.623 C 1747.36 999.753 1686.86 1005.79 1656.19 1003.69 C 1653.94 1003.14 1654.57 1003.42 1652.51 1002.31 C 1693.92 1002.05 1731.41 996.619 1770.49 982.044 z"/>
<path transform="translate(0,0)" fill="rgb(255,255,255)" d="M 1292.36 789.411 C 1296.33 791.894 1310.43 807.01 1314.47 811.267 C 1348.61 847.195 1375.89 878.032 1401.53 920.59 C 1382.57 917.129 1363.45 914.652 1344.25 913.17 C 1299.44 909.725 1270.76 909.464 1226.39 911.137 C 1261.32 867.218 1274.02 841.676 1292.36 789.411 z"/>
<path transform="translate(0,0)" fill="rgb(255,255,255)" d="M 1037.66 1079.32 L 1038.7 1079.23 C 1059.93 1077.42 1077.58 1089.94 1093.15 1102.96 C 1060.01 1086.12 1050.87 1092.77 1015.02 1098.07 C 1037.29 1105.2 1055.63 1098.89 1076.91 1105.3 C 1089.05 1108.96 1108.81 1122.43 1118.04 1131.41 C 1119.55 1141.77 1118.53 1156.31 1120.96 1166.67 C 1128.49 1198.8 1156.24 1235.77 1175.15 1262.55 C 1181.54 1271.05 1186.95 1278.24 1192.68 1287.25 C 1168.52 1265.71 1149.07 1240.64 1129.08 1215.41 C 1120.84 1205.02 1107.05 1177.48 1095.31 1171.93 C 1075.7 1162.65 1047.4 1171.37 1027.5 1157.23 C 999.173 1139.02 1011.19 1118.31 1006.33 1099.18 C 1003.65 1097.36 1004.19 1098.27 1002.8 1095.74 L 1008.24 1095.39 L 1008.42 1094.06 C 1005.44 1091.58 998.243 1089.87 994.207 1088.64 C 1010.58 1086.7 1022.32 1081.52 1037.66 1079.32 z"/>
<path transform="translate(0,0)" fill="rgb(47,48,60)" d="M 1046.25 1111.21 C 1091.81 1107.75 1090.29 1137.96 1111.96 1163.81 C 1107.97 1160.94 1104.7 1159.18 1100.44 1156.79 C 1081.28 1146.51 1068.12 1150.83 1048.22 1146.91 C 1026.8 1142.68 1025.58 1119.99 1046.25 1111.21 z"/>
<path transform="translate(0,0)" fill="rgb(255,255,255)" d="M 1077.51 1125.49 C 1082.86 1128.94 1090.63 1137.46 1089.42 1144.06 L 1087.47 1144.52 C 1082.8 1143.8 1078.38 1143.42 1074.04 1141.61 L 1073.48 1139.85 C 1076.15 1133.83 1076.77 1132.12 1077.51 1125.49 z"/>
<path transform="translate(0,0)" fill="rgb(255,255,255)" d="M 1049.05 1116.74 C 1053.35 1116.96 1055.09 1116.81 1057.6 1120.59 C 1056.91 1124.72 1057.1 1123.45 1053.64 1127.06 C 1051.52 1127.27 1050.62 1127.19 1048.49 1127.14 C 1045.08 1125.09 1046.13 1126.49 1044.89 1123.09 C 1045.96 1118.89 1045.58 1120.22 1049.05 1116.74 z"/>
<path transform="translate(0,0)" fill="rgb(255,255,255)" d="M 1034.14 1337.8 C 1039.55 1338.89 1066.63 1354.89 1073.85 1358.37 C 1094.77 1368.48 1116.26 1377.37 1138.21 1385.01 C 1161.28 1392.95 1184.73 1399.75 1208.47 1405.38 C 1265.88 1418.44 1270.11 1404.09 1290.27 1463.05 C 1375.76 1458.28 1410.26 1476.95 1452.58 1551.26 C 1428.99 1538.73 1424.47 1526.18 1406.17 1507.79 C 1373.03 1474.48 1338.52 1471.53 1294.26 1471.44 C 1308.32 1488.02 1325.25 1498.4 1335.79 1512.63 C 1345.14 1527.62 1349.55 1545.28 1359.17 1559.6 C 1386.98 1600.97 1430.29 1587.26 1463.57 1564.59 L 1468.74 1571.81 C 1449.23 1584.46 1433.04 1594.47 1408.9 1596.07 C 1379.33 1598.02 1358.33 1582.82 1347.08 1556.28 C 1341.99 1544.3 1339.54 1532.33 1332.6 1520.84 C 1322.64 1503.7 1300.7 1496.75 1289.35 1481.68 C 1275.65 1463.47 1273.63 1440.03 1255.38 1424.22 C 1170.57 1410.23 1103.8 1392.45 1034.14 1337.8 z"/>
<path transform="translate(0,0)" fill="rgb(255,255,255)" d="M 1058.67 1543.81 C 1058.65 1545.48 1058.81 1545.02 1058.35 1546.33 C 1045.61 1583.17 1050.79 1612.22 1055.09 1649.65 C 1048.72 1636.37 1042.15 1625.46 1032.72 1614.02 C 1026.79 1632.93 1024.97 1652.99 1019.43 1672.06 C 1015.87 1665.56 1011.75 1659.52 1007.58 1653.4 C 1003.68 1677.55 996.726 1699.29 989.737 1722.62 C 987.638 1717.07 985.075 1711.89 982.388 1706.6 C 979.838 1717.78 977.411 1729.02 974.419 1740.08 C 972.112 1748.61 966.44 1771.58 958.561 1776.1 C 954.199 1770.63 958.387 1759.88 953.194 1754.19 C 952.08 1752.97 951.194 1753.41 949.682 1753.41 C 946.744 1756.52 928.734 1796.28 925.196 1803.46 C 925.729 1791.5 926.27 1783.63 919.462 1773.18 C 909.362 1789.97 901.334 1810.97 894.28 1829.27 L 893.462 1798.5 C 882.373 1816.28 870.562 1834.13 863.958 1854.16 C 860.018 1866.11 858.06 1878.63 854.024 1890.52 L 853.66 1891.56 C 852.642 1877.78 855.264 1864.16 854.414 1850.43 C 855.134 1846.26 879.273 1804.72 883.387 1796.58 C 883.772 1800.35 882.717 1804.33 882.107 1808.06 C 891.175 1794.72 895.08 1780.63 901.04 1765.84 C 901.032 1774.01 901.3 1782.04 901.965 1790.18 C 913.221 1773.3 917.849 1755.35 922.519 1735.91 C 923.077 1743.35 921.246 1764.63 926.107 1769.62 C 927.174 1769.16 927.125 1769.24 928.218 1768.39 C 940.116 1759.15 945.278 1717.76 946.991 1702.97 C 949.713 1718.99 949.219 1734.47 953.99 1750.25 C 969.114 1728.25 972.36 1699.45 973.398 1673.36 C 975.936 1684.04 978.229 1694.36 983.354 1704.13 C 994.217 1680.02 1000.68 1650.54 1001.32 1624.27 C 1005.45 1633.4 1009.63 1642.37 1014.4 1651.18 C 1020.19 1626.4 1018.94 1600.75 1023.9 1576.01 C 1025.95 1591.66 1030.91 1601.72 1041.05 1613.65 C 1040.72 1594.42 1046.92 1559.29 1058.67 1543.81 z"/>
<path transform="translate(0,0)" fill="rgb(255,255,255)" d="M 913.96 1466.71 C 916.577 1468.62 918.527 1472.17 920.056 1475.09 C 935.279 1504.19 940.759 1534.89 931.888 1566.59 C 928.036 1560.06 927.117 1558.81 922.014 1553.3 C 922.952 1589.9 910.448 1637.41 893.495 1669.81 C 893.273 1658.36 893.177 1654.03 890.328 1642.95 C 887.682 1654.91 883.741 1672.71 878.911 1683.72 C 855.29 1737.54 823.158 1786.08 780.23 1825.7 C 805.787 1786.96 810.91 1768.08 814.826 1723.64 C 818.678 1746.72 817.281 1758.76 812.091 1781.78 C 811.897 1782.37 811.547 1784.56 811.42 1785.26 C 821.146 1777.18 837.537 1724.85 839.699 1711.11 C 841.155 1701.86 842.878 1687.3 843.901 1677.55 C 845.723 1692.77 847.567 1720.28 844.972 1735.54 C 853.52 1719.28 860.636 1702.77 866.261 1685.27 C 871.839 1667.93 869.205 1651.43 867.052 1633.78 C 870.128 1641.87 872.555 1658.66 878.541 1662.62 L 880.008 1661.86 C 888.55 1647.1 886.221 1627.1 882.795 1611.19 C 888.173 1621.34 893.368 1631.58 898.378 1641.91 C 907.588 1616.81 903.97 1589.1 898.082 1563.68 C 903.12 1573.34 906.699 1579.8 912.63 1589.08 C 917.757 1566.89 913.023 1545.64 909.006 1523.47 C 914.667 1533.87 919.096 1541.36 925.75 1551.12 C 928.214 1512.72 925.427 1503.75 913.96 1466.71 z"/>
<path transform="translate(0,0)" fill="rgb(255,255,255)" d="M 801.221 689.232 C 828.87 694.325 843.667 708.56 864.097 726.801 C 870.678 732.677 884.116 741.575 884.649 750.602 L 883.606 751.879 C 880.028 750.783 871.444 738.958 867.686 734.979 C 874.615 754.011 878.876 761.867 865.148 779.248 C 864.145 767.686 863.225 735.208 855.939 728.124 L 853.986 727.8 C 852.853 743.859 861.018 759.646 849.527 775.799 C 847.21 779.056 843.254 786.439 839.249 787.538 C 838.689 785.338 838.717 786.243 838.779 784.861 C 836.343 769.27 836.047 758.523 832.371 741.839 C 825.325 720.496 820.92 709.207 805.631 693.151 C 815.842 737.975 802.043 783.813 779.213 822.961 C 777.544 825.823 775.906 828.27 773.303 830.327 C 770.43 829.921 771.803 830.397 769.416 828.115 C 768.142 822.023 773.911 815.982 776.614 810.602 C 789.288 785.378 795.981 759.021 798.445 730.906 C 799.638 717.299 799.54 702.817 801.221 689.232 z"/>
<path transform="translate(0,0)" fill="rgb(47,48,60)" d="M 813.828 696.086 C 840.995 709.564 858.639 749.176 843.836 777.59 C 843.07 779.07 842.27 780.532 841.436 781.974 L 838.779 784.861 C 836.343 769.27 836.047 758.523 832.371 741.839 L 834.601 741.789 C 830.664 724.158 826.3 709.613 813.828 696.086 z"/>
<path transform="translate(0,0)" fill="rgb(176,174,182)" d="M 832.371 741.839 L 834.601 741.789 C 835.625 747.976 839.73 778.544 841.436 781.974 L 838.779 784.861 C 836.343 769.27 836.047 758.523 832.371 741.839 z"/>
<path transform="translate(0,0)" fill="rgb(255,255,255)" d="M 601.07 1198.95 L 601.65 1200.34 C 588.736 1216.11 563.665 1245.83 553.895 1263.33 L 571.433 1255.83 C 547.512 1274.26 538.562 1282.43 523.443 1307.91 C 537.032 1297.1 543.251 1293.45 559.505 1287.32 C 533.54 1307.02 519.964 1315.54 499.693 1341.99 C 513.351 1336.32 529.106 1325.66 545.505 1318.68 C 513.238 1343.9 483.994 1370.12 465.452 1407.4 C 477.427 1396.34 484.031 1391.88 497.559 1383.27 C 503.755 1379.09 510.025 1375.03 516.366 1371.08 C 503.182 1385.17 466.986 1414.99 459.393 1427.77 C 462.834 1426.09 467.135 1421.55 470.077 1418.76 C 452.548 1447.57 455.494 1446.42 469.169 1473.7 C 466.207 1470.78 463.09 1467.8 460.46 1464.57 C 453.377 1455.88 451.653 1447.52 452.674 1436.46 C 457.627 1382.78 525.109 1280.32 560.726 1238.46 C 573.031 1224 586.473 1211.06 601.07 1198.95 z"/>
<path transform="translate(0,0)" fill="rgb(255,255,255)" d="M 1409.17 1333.86 C 1439.31 1346.81 1466.19 1399.48 1474.98 1429.18 C 1458.16 1397.28 1439.62 1366.99 1412.99 1342.14 C 1403.85 1362.86 1404.52 1376.26 1411.36 1397.28 C 1423.34 1428.3 1453.08 1451.1 1466.06 1485.94 C 1441.6 1456.09 1407.62 1441.06 1397.5 1406.8 C 1390.3 1382.4 1397.4 1355.63 1409.17 1333.86 z"/>
<path transform="translate(0,0)" fill="rgb(255,255,255)" d="M 1190.8 1122.73 C 1191.75 1123.94 1191.59 1123.61 1192.21 1124.85 C 1221.14 1182.99 1269.94 1225.69 1325.23 1258.32 C 1352.33 1274.32 1387.27 1294.23 1405.73 1320.27 C 1398.76 1316.74 1378.37 1298.07 1368.22 1292.1 C 1350.86 1281.94 1332.96 1272.23 1315.03 1263.05 C 1262.67 1236.26 1207.37 1180.54 1190.8 1122.73 z"/>
<path transform="translate(0,0)" fill="rgb(255,255,255)" d="M 769.782 1236.69 C 771.198 1242.34 767.906 1282.95 767.972 1292.37 C 768.094 1310.07 768.568 1328.39 769.245 1346.27 C 770.217 1367.96 771.756 1389.61 773.861 1411.22 C 774.787 1420.99 784.575 1499.32 783.756 1502.46 L 782.219 1498.8 C 764.274 1428.84 753.715 1354.36 761.937 1282.38 C 763.441 1269.22 765.951 1249.09 769.782 1236.69 z"/>
<path transform="translate(0,0)" fill="rgb(255,255,255)" d="M 1292.63 739.742 C 1307 753.976 1204.77 840.514 1194.1 850.142 C 1182.94 860.354 1172.13 870.945 1161.69 881.894 C 1150.45 893.86 1143.77 907.185 1135.03 920.781 C 1134.07 922.275 1130.44 923.607 1128.72 924.252 C 1115.53 901.967 1203.64 832.12 1219.3 817.346 C 1245.19 792.925 1275.49 771.384 1292.63 739.742 z"/>
<path transform="translate(0,0)" fill="rgb(255,255,255)" d="M 1288.64 761.958 C 1288.6 762.436 1288.56 762.914 1288.52 763.393 C 1274.85 810.357 1253.97 856.172 1223.77 894.855 C 1218.66 901.404 1212.44 907.822 1206.62 911.537 C 1206.55 904.553 1223.55 887.103 1227.2 879.424 C 1229.09 875.457 1234.58 867.619 1237.1 863.591 C 1248.05 846.262 1257.87 828.246 1266.49 809.655 C 1271.61 798.591 1282.2 770.232 1288.64 761.958 z"/>
<path transform="translate(0,0)" fill="rgb(255,255,255)" d="M 908.579 799.822 C 918.163 810.132 924.837 885.641 916.757 894.467 L 913.726 894.135 C 911.598 892.757 906.804 890.16 906.576 887.774 C 906.009 881.839 910.429 875.962 910.983 870.053 C 912.956 849.035 910.362 829.782 904.164 809.865 L 908.579 799.822 z"/>
<path transform="translate(0,0)" fill="rgb(255,255,255)" d="M 1056.69 968.084 C 1055 976.986 1036.66 992.115 1028.13 995.953 C 1004.5 1006.58 982.649 1007.3 958.28 999.148 L 953.6 996.585 C 955.226 995.581 964.259 996.609 966.67 996.822 C 1004.12 1000.13 1026.11 988.344 1056.69 968.084 z"/>
<path transform="translate(0,0)" fill="rgb(255,255,255)" d="M 914.262 1173.06 C 915.384 1181.75 913.831 1197.1 913.701 1206.72 C 915.272 1247.96 925.207 1288.45 942.903 1325.74 C 941.052 1323.5 939.251 1321.22 937.503 1318.9 C 912.663 1285.92 905.535 1233.11 911.329 1192.94 C 911.747 1186.21 913.077 1179.7 914.262 1173.06 z"/>
<path transform="translate(0,0)" fill="rgb(255,255,255)" d="M 1095.61 1009.7 C 1103.24 1013.23 1120.7 1037.05 1125.49 1044.66 C 1140.25 1068.12 1141.95 1083.56 1136.14 1109.79 C 1135.98 1110.33 1135.27 1111.4 1134.95 1111.94 C 1133.63 1109.38 1134.28 1099.57 1134.15 1095.93 C 1132.95 1062.63 1113.71 1036.76 1095.61 1009.7 z"/>
<path transform="translate(0,0)" fill="rgb(255,255,255)" d="M 851.661 1818.87 C 853.42 1822.16 850.905 1841.76 850.741 1847.1 C 845.969 1855.12 840.014 1868.41 832.23 1873.55 C 830.614 1869.61 829.516 1864.77 830.338 1860.54 L 831.425 1860.06 L 833.371 1860.89 C 841.679 1848.3 846.34 1832.89 851.661 1818.87 z"/>
<path transform="translate(0,0)" fill="rgb(255,255,255)" d="M 996.304 892.417 C 1001.13 891.614 1007.7 891.754 1012.49 892.672 L 1013.09 894.406 C 1013.83 894.19 1014.57 893.975 1015.31 893.759 C 1010.13 897.975 981.522 898.147 973.886 898.411 C 963.008 898.218 961.06 896.948 951.295 892.624 C 970.262 894.817 977.563 894.065 996.304 892.417 z"/>
<path transform="translate(0,0)" fill="rgb(255,255,255)" d="M 898.823 821.767 C 901.879 825.568 908.097 869.44 907.791 876.102 L 906.712 876.226 C 902.745 859.966 899.343 847.532 893.579 831.857 L 898.823 821.767 z"/>
<path transform="translate(0,0)" fill="rgb(255,255,255)" d="M 791.461 693.728 C 794.984 711.818 784.602 759.031 777.521 776.269 C 777.027 774.06 781.302 755.201 782.366 751.683 C 786.793 737.049 787.368 706.738 791.461 693.728 z"/>
<path transform="translate(0,0)" fill="rgb(218,219,224)" d="M 1170.51 844.093 C 1170.84 844.242 1170.63 844.081 1171.02 844.987 C 1160.31 853.652 1150.14 860.924 1139.07 870.119 L 1138.38 868.695 C 1144.39 861.455 1161.98 848.107 1170.51 844.093 z"/>
<path transform="translate(0,0)" fill="rgb(176,174,182)" d="M 960.303 883.498 C 968.997 882.996 985.173 882.828 993.099 886.5 L 992.557 887.161 C 986.458 887.21 966.05 885.561 959.487 884.478 L 960.303 883.498 z"/>
<path transform="translate(0,0)" fill="rgb(218,219,224)" d="M 1351.53 1192.43 C 1344.9 1187.91 1339.98 1184.65 1334 1179.36 C 1340.56 1183.02 1346.37 1186.26 1352.65 1190.37 L 1351.53 1192.43 z"/>
<path transform="translate(0,0)" fill="rgb(107,106,119)" d="M 761.883 806.931 L 762.674 808.087 C 761.33 810.985 757.695 813.129 754.965 815.131 L 754.204 814.46 C 754.752 811.942 759.367 809.007 761.883 806.931 z"/>
</svg>